STARTFONT 2.1
FONT HAN-GB2312
SIZE 10 72 72
FONTBOUNDINGBOX 10 10 0 0
STARTPROPERTIES 1
BITCOUNT 8
ENDPROPERTIES
CHARS 6836
STARTCHAR  00A8
ENCODING  168
SWIDTH  1000 0
DWIDTH  10 0
BBX  3 1 1 7
BITMAP
E000E0
ENDCHAR
STARTCHAR  00B0
ENCODING  176
SWIDTH  1000 0
DWIDTH  5 0
BBX  3 3 1 5
BITMAP
80F080
A040F0
80E080
ENDCHAR
STARTCHAR  00B1
ENCODING  177
SWIDTH  1000 0
DWIDTH  7 0
BBX  7 6 0 0
BITMAP
000000F0000000
000000F0000000
40F0F0FFF0F040
000000F0000000
000000F0000000
40F0F0F0F0F040
ENDCHAR
STARTCHAR  00B7
ENCODING  183
SWIDTH  1000 0
DWIDTH  6 0
BBX  2 2 2 3
BITMAP
E0C0
FFE0
ENDCHAR
STARTCHAR  00D7
ENCODING  215
SWIDTH  1000 0
DWIDTH  6 0
BBX  6 5 0 1
BITMAP
104000006000
20E060A0A000
0020FFC00000
10C0A0E08000
308000108000
ENDCHAR
STARTCHAR  00F7
ENCODING  247
SWIDTH  1000 0
DWIDTH  7 0
BBX  7 5 0 1
BITMAP
000000E0000000
00000000000000
20F0F0F0F0F020
00000000000000
000000E0000000
ENDCHAR
STARTCHAR  02C7
ENCODING  711
SWIDTH  1000 0
DWIDTH  4 0
BBX  5 3 0 5
BITMAP
60E0A0A000
0060A00000
0000000000
ENDCHAR
STARTCHAR  02C9
ENCODING  713
SWIDTH  1000 0
DWIDTH  4 0
BBX  4 1 0 6
BITMAP
60F0F0A0
ENDCHAR
STARTCHAR  2014
ENCODING  8212
SWIDTH  1000 0
DWIDTH  10 0
BBX  10 1 0 3
BITMAP
E0F0F0F0F0F0F0F0F0E0
ENDCHAR
STARTCHAR  2018
ENCODING  8216
SWIDTH  1000 0
DWIDTH  9 0
BBX  1 3 6 6
BITMAP
00
F0
30
ENDCHAR
STARTCHAR  2019
ENCODING  8217
SWIDTH  1000 0
DWIDTH  10 0
BBX  1 2 2 6
BITMAP
F0
30
ENDCHAR
STARTCHAR  201C
ENCODING  8220
SWIDTH  1000 0
DWIDTH  10 0
BBX  3 3 5 6
BITMAP
000000
F000F0
300030
ENDCHAR
STARTCHAR  201D
ENCODING  8221
SWIDTH  1000 0
DWIDTH  10 0
BBX  3 2 2 6
BITMAP
F000E0
300030
ENDCHAR
STARTCHAR  2026
ENCODING  8230
SWIDTH  1000 0
DWIDTH  11 0
BBX  9 1 1 3
BITMAP
E0000000E0000000E0
ENDCHAR
STARTCHAR  2030
ENCODING  8240
SWIDTH  1000 0
DWIDTH  13 0
BBX  11 9 1 -1
BITMAP
0000000040A00000000000
A0F0A000C0300000000000
F000F020C0000000000000
F000F08060000000000000
A0F0A0E000000000000000
00006080A0F0A000A0F0A0
0000C020F000F000F000F0
0030C000F000F000F000F0
00A04000A0F0A000A0F0A0
ENDCHAR
STARTCHAR  2032
ENCODING  8242
SWIDTH  1000 0
DWIDTH  10 0
BBX  3 3 1 5
BITMAP
10F010
40C000
806000
ENDCHAR
STARTCHAR  2033
ENCODING  8243
SWIDTH  1000 0
DWIDTH  10 0
BBX  4 3 1 5
BITMAP
10F0A080
60A0E020
8060C000
ENDCHAR
STARTCHAR  2103
ENCODING  8451
SWIDTH  1000 0
DWIDTH  11 0
BBX  11 9 0 -1
BITMAP
60E08020C0E0F0F0F0E000
E020F0C060101010101000
80F080F000000000000000
000000F000000000000000
000000F000000000000000
000000F000000000000000
000000F000000000000000
000000C060000000000000
00000020C0F0F0F0F0F010
ENDCHAR
STARTCHAR  221E
ENCODING  8734
SWIDTH  1000 0
DWIDTH  8 0
BBX  7 3 0 2
BITMAP
60F0E060E0F080
E03040FF6020F0
60F0E060E0F080
ENDCHAR
STARTCHAR  2234
ENCODING  8756
SWIDTH  1000 0
DWIDTH  9 0
BBX  8 9 0 -1
BITMAP
0000002060100000
00000060FF200000
0000001020000000
0000000000000000
0000000000000000
0000000000000000
1030100000002030
30FF4000000080F0
1040100000002040
ENDCHAR
STARTCHAR  2235
ENCODING  8757
SWIDTH  1000 0
DWIDTH  9 0
BBX  8 9 0 -1
BITMAP
1060200000003060
30FF4000000080F0
0020100000001020
0000000000000000
0000000000000000
0000000000000000
0000001030000000
00000060FF200000
0000002040100000
ENDCHAR
STARTCHAR  2236
ENCODING  8758
SWIDTH  1000 0
DWIDTH  10 0
BBX  0 0 0 0
BITMAP
ENDCHAR
STARTCHAR  2503
ENCODING  9475
SWIDTH  1000 0
DWIDTH  10 0
BBX  0 0 0 0
BITMAP
ENDCHAR
STARTCHAR  2505
ENCODING  9477
SWIDTH  1000 0
DWIDTH  10 0
BBX  9 3 0 2
BITMAP
004010004010003010
10FF6000FF6000FF60
002010002010002010
ENDCHAR
STARTCHAR  2507
ENCODING  9479
SWIDTH  1000 0
DWIDTH  10 0
BBX  0 0 0 0
BITMAP
ENDCHAR
STARTCHAR  3000
ENCODING  12288
SWIDTH  1000 0
DWIDTH  10 0
BBX  0 0 0 0
BITMAP
ENDCHAR
STARTCHAR  3001
ENCODING  12289
SWIDTH  1000 0
DWIDTH  10 0
BBX  4 4 1 -2
BITMAP
00A02000
0080A000
0010F020
00000000
ENDCHAR
STARTCHAR  3002
ENCODING  12290
SWIDTH  1000 0
DWIDTH  10 0
BBX  3 3 2 -1
BITMAP
60E060
E030E0
60E060
ENDCHAR
STARTCHAR  3008
ENCODING  12296
SWIDTH  1000 0
DWIDTH  10 0
BBX  4 10 4 -1
BITMAP
00000010
00008080
0000E020
0040A000
00C04000
10F00000
00C04000
0040C000
0000E020
00006080
ENDCHAR
STARTCHAR  3009
ENCODING  12297
SWIDTH  1000 0
DWIDTH  10 0
BBX  4 10 1 -1
BITMAP
00100000
00E02000
00608000
0010E010
0000A060
000040C0
0000A060
0010E010
00608000
00E02000
ENDCHAR
STARTCHAR  300A
ENCODING  12298
SWIDTH  1000 0
DWIDTH  10 0
BBX  6 10 3 -1
BITMAP
000000001000
0000C040E010
0030E0808000
00A060E02000
10E060C00000
60A0A0600000
10E060C00000
00A060E02000
0030E0608000
0000C040E010
ENDCHAR
STARTCHAR  300B
ENCODING  12299
SWIDTH  1000 0
DWIDTH  10 0
BBX  6 10 1 -1
BITMAP
001000000000
00E040C00000
008080C03000
0020E060A000
0000A060E010
000060A0A060
0000C060E010
0020E060A000
008080E03000
10E040C00000
ENDCHAR
STARTCHAR  300C
ENCODING  12300
SWIDTH  1000 0
DWIDTH  10 0
BBX  3 9 6 -1
BITMAP
F0F0A0
F00000
F00000
F00000
F00000
F00000
F00000
F00000
E00000
ENDCHAR
STARTCHAR  300D
ENCODING  12301
SWIDTH  1000 0
DWIDTH  10 0
BBX  3 9 1 -1
BITMAP
0000E0
0000F0
0000F0
0000F0
0000F0
0000F0
0000F0
0000F0
A0F0F0
ENDCHAR
STARTCHAR  300E
ENCODING  12302
SWIDTH  1000 0
DWIDTH  10 0
BBX  4 9 5 -1
BITMAP
F0E0F020
E0C0F020
E0E00000
E0E00000
E0E00000
E0E00000
E0E00000
E0E00000
E0E00000
ENDCHAR
STARTCHAR  300F
ENCODING  12303
SWIDTH  1000 0
DWIDTH  10 0
BBX  3 9 1 -1
BITMAP
00E0F0
00E0E0
00E0E0
00E0E0
00E0E0
00E0E0
00E0E0
E0E0E0
C0E0E0
ENDCHAR
STARTCHAR  3010
ENCODING  12304
SWIDTH  1000 0
DWIDTH  10 0
BBX  3 9 6 -1
BITMAP
FFFFC0
FFFF60
FFFF10
FFE000
FFE000
FFE000
FFFF10
FFFF60
F0F0A0
ENDCHAR
STARTCHAR  3011
ENCODING  12305
SWIDTH  1000 0
DWIDTH  10 0
BBX  3 9 1 -1
BITMAP
C0FFFF
60FFFF
10FFFF
00E0FF
00E0FF
00E0FF
10FFFF
60FFFF
C0F0F0
ENDCHAR
STARTCHAR  3014
ENCODING  12308
SWIDTH  1000 0
DWIDTH  10 0
BBX  3 11 6 -2
BITMAP
000010
80E080
FF3000
F00000
F00000
F00000
F00000
F00000
FF4000
60C080
000000
ENDCHAR
STARTCHAR  3015
ENCODING  12309
SWIDTH  1000 0
DWIDTH  10 0
BBX  3 11 2 -2
BITMAP
100000
80E080
0030F0
0000F0
0000F0
0000F0
0000F0
0000F0
0040F0
80C060
000000
ENDCHAR
STARTCHAR  4E00
ENCODING  19968
SWIDTH  1000 0
DWIDTH  10 0
BBX  10 1 0 3
BITMAP
FFFFFFFFFFFFFFFFFF20
ENDCHAR
STARTCHAR  4E01
ENCODING  19969
SWIDTH  1000 0
DWIDTH  10 0
BBX  10 9 0 -1
BITMAP
F0F0F0F0F0F0F0F0F030
0000000000A000000000
0000000000FF10000000
0000000000FF10000000
0000000000FF10000000
0000000000FF10000000
0000000000FF10000000
0000000000FF10000000
0000FFFFFFFF00000000
ENDCHAR
STARTCHAR  4E03
ENCODING  19971
SWIDTH  1000 0
DWIDTH  10 0
BBX  11 10 -1 -1
BITMAP
0000000020000000000000
00000000FF000000000000
00000000FF000000000000
00000000FF20406080A010
00A0C0E0FFE0C0A0806000
00604020FF000000000000
00000000FF000000000000
00000000FF000000000000
00000000FF000000000000
00000000F0FFFFFFFFFF20
ENDCHAR
STARTCHAR  4E07
ENCODING  19975
SWIDTH  1000 0
DWIDTH  10 0
BBX  10 10 0 -2
BITMAP
F0F0F0F0F0F0F0F0F010
0060A000000000000000
00806000000000000000
00C0F0F0F0F0F0F0F000
00F0100000000000F000
20E0000000000000F000
40A0000000000000F000
8080000000000000F000
A06000000060F0F0E000
00000000000000000000
ENDCHAR
STARTCHAR  4E08
ENCODING  19976
SWIDTH  1000 0
DWIDTH  10 0
BBX  11 11 -1 -2
BITMAP
0000000000000000000000
0000000000000000F00000
10F0F0F0F0F0F0F0FFF040
0000800000000000F00000
0000F00000000000F00000
0000F00000000000F00000
0000E0C0400040C0E00000
00000060F0F0F060000000
001060E0C060A0E0802000
00E0A0200000002080E030
0010000000000000000010
ENDCHAR
STARTCHAR  4E09
ENCODING  19977
SWIDTH  1000 0
DWIDTH  10 0
BBX  10 9 0 -1
BITMAP
80F0F0F0F0F0F0F0F000
00000000000000000000
00000000000000000000
00000000000000000000
00F0F0F0F0F0F0F0F000
00000000000000000000
00000000000000000000
00000000000000000000
F0F0F0F0F0F0F0F0F040
ENDCHAR
STARTCHAR  4E0A
ENCODING  19978
SWIDTH  1000 0
DWIDTH  10 0
BBX  10 9 0 -1
BITMAP
00000000F00000000000
00000000F00000000000
00000000FFF0F0F0F080
00000000F00000000000
00000000F00000000000
00000000F00000000000
00000000F00000000000
00000000800000000000
F0F0F0F0F0F0F0F0F030
ENDCHAR
STARTCHAR  4E0B
ENCODING  19979
SWIDTH  1000 0
DWIDTH  10 0
BBX  10 9 0 -1
BITMAP
F0F0F0F0F0F0F0F0F040
000000A0000000000000
000000F00040C0000000
000000F00000E0200000
000000F0000080800000
000000F0000030E00000
000000F0000000C04000
000000F0000000303000
000000F0000000000000
ENDCHAR
STARTCHAR  4E0C
ENCODING  19980
SWIDTH  1000 0
DWIDTH  10 0
BBX  10 9 0 -1
BITMAP
30F0F0F0F0F0F0F0F0F0
0000406000000000A000
0000808000000000F000
0000C04000000000F000
0000E03000000000F000
0000F01000000000F000
0020F00000000000F000
0040C00000000000F000
0060A00000000000F000
ENDCHAR
STARTCHAR  4E0D
ENCODING  19981
SWIDTH  1000 0
DWIDTH  10 0
BBX  11 10 -1 -2
BITMAP
00F0F0F0F0F0F0F0F0F030
00000060A0000000000000
000000E040F010E0100000
000040C000F000A0800000
0000C04000F00020E00000
0030E00000F00000A06000
00A0600000F0000030E000
0060000000F00000006020
0000000000F00000000000
0000000000200000000000
ENDCHAR
STARTCHAR  4E0E
ENCODING  19982
SWIDTH  1000 0
DWIDTH  10 0
BBX  10 10 0 -1
BITMAP
00800000000000000000
00F00000000000000000
00F040F0F0F0F0F0F0F0
00F00000000000000000
00F0F0F0F0F0F0F0F000
0000000000000000F000
0000000000000000F000
60E0E0E0E0E0E0E0F000
0000000000000000F000
00000040F0F0F0F0F000
ENDCHAR
STARTCHAR  4E10
ENCODING  19984
SWIDTH  1000 0
DWIDTH  10 0
BBX  10 9 0 -1
BITMAP
F0F0F0F0F0F0F0F0F020
00000000400000000000
A0000000FFF0F0F0F000
F0000000F00000000000
F0000000F00000000000
E0F0F0F0F0F0F0F0F000
0000000000000000F000
0000000000000000F000
000020F0F0F0F0F0E000
ENDCHAR
STARTCHAR  4E11
ENCODING  19985
SWIDTH  1000 0
DWIDTH  10 0
BBX  10 9 0 -1
BITMAP
10F0F0F0F0F0F0F0F000
000000F000000000FF00
000000F000000000FF00
000000F000000000FF00
00E0F0FFF0F0F0F0FF00
000000F000000000FF00
000000F000000000FF00
0000003000000000FF00
30F0F0F0F0F0F0F0F0F0
ENDCHAR
STARTCHAR  4E13
ENCODING  19987
SWIDTH  1000 0
DWIDTH  10 0
BBX  10 10 0 -1
BITMAP
00001010000000000000
00008080000000000000
A0F0FFF0F0F0F0F0F000
0000F010000000000000
E0F0FFE0E0E0E0E0E040
0060A000000000000000
00A0F0F0F0F0F0F06000
00000000000000E03000
00000000000010F00000
0000E0F0F0F0F0A00000
ENDCHAR
STARTCHAR  4E14
ENCODING  19988
SWIDTH  1000 0
DWIDTH  10 0
BBX  10 9 0 -1
BITMAP
00E0E0E0E0E0E0F00000
00E00000000000F00000
00E00000000000F00000
00E080F0F0F0F0F00000
00E00000000000F00000
00E080F0F0F0F0F00000
00E00000000000F00000
00E00000000000F00000
E0F0F0F0F0F0F0E0F040
ENDCHAR
STARTCHAR  4E15
ENCODING  19989
SWIDTH  1000 0
DWIDTH  10 0
BBX  11 9 -1 -1
BITMAP
00E0F0F0F0F0F0F0F0F000
00000020E0100000000000
000000A060F040E0000000
000040C000F000A0800000
0000E03000F00020F02000
0080800000F0000080A000
0060100000F0000010A020
0000000000000000000000
00F0F0F0F0F0F0F0F0F060
ENDCHAR
STARTCHAR  4E16
ENCODING  19990
SWIDTH  1000 0
DWIDTH  10 0
BBX  10 9 0 -1
BITMAP
0000E00000E00000F000
0000E00000E00000F000
30F0FFF0F0FFF0F0FFF0
0000E00000E00000F000
0000E00000E00000F000
0000E00000E00000F000
0000E00000F0F0E0E000
0000E000000000000000
0000E0E0E0E0E0E0E0C0
ENDCHAR
STARTCHAR  4E18
ENCODING  19992
SWIDTH  1000 0
DWIDTH  10 0
BBX  10 9 0 -1
BITMAP
00F0F0F0F0F0F0F0E000
00F00000000000000000
00F00000000000000000
00F0C0F0F0F0F0F0F000
00F000000000F0000000
00F000000000F0000000
00F000000000F0000000
00F000000000F0000000
E0E0E0E0E0E0E0E0E040
ENDCHAR
STARTCHAR  4E19
ENCODING  19993
SWIDTH  1000 0
DWIDTH  10 0
BBX  10 9 0 -1
BITMAP
F0F0F0F0F0F0F0F0F020
00000000A00000000000
E0E0E0E0FFE0E0E0E000
F0000000F0000000F000
F0000030FF400000F000
F00000E040E01000F000
F00080800060A000F000
F000400000004000F000
E00000000010F0F0E000
ENDCHAR
STARTCHAR  4E1A
ENCODING  19994
SWIDTH  1000 0
DWIDTH  10 0
BBX  10 9 0 -1
BITMAP
000000F000F000000000
C04000F000F00010F000
A06000F000F00030E000
808000F000F00060A000
60A000F000F000808000
30C000F000F000A06000
108000F000F000803000
000000A000A000000000
F0F0F0F0F0F0F0F0F030
ENDCHAR
STARTCHAR  4E1B
ENCODING  19995
SWIDTH  1000 0
DWIDTH  10 0
BBX  11 10 -1 -1
BITMAP
0000000000000000000000
000000F0000000F0000000
000000F0000000F0000000
000020F0000000F0200000
000080F0400040F0800000
0000E08080008080E00000
0040C010E000E010C04000
00A06000C040C00060C000
00A010004080400010A000
00F0F0F0F0F0F0F0F0F010
ENDCHAR
STARTCHAR  4E1C
ENCODING  19996
SWIDTH  1000 0
DWIDTH  10 0
BBX  9 10 0 -1
BITMAP
000010000000000000
0010E0000000000000
E0F0F0E0E0E0E0E0E0
00A04000A000000000
00E01000F000000000
20FFE0E0FFE0E0E0C0
00300000F000103000
30C00000F00010F010
80600000F00000A060
C01060F0FF000040C0
ENDCHAR
STARTCHAR  4E1D
ENCODING  19997
SWIDTH  1000 0
DWIDTH  10 0
BBX  11 10 -1 -1
BITMAP
0000003000000020200000
00006080000000C0300000
0000E010A04040C010E010
00608040C000C030A08000
00E0F0F04040FFF0E01000
000080A0000000E0600000
0010F020000060C0000000
00A0FFF0F060E0F0F0F010
0000000000000000000000
00F0F0F0F0F0F0F0F0F010
ENDCHAR
STARTCHAR  4E1E
ENCODING  19998
SWIDTH  1000 0
DWIDTH  10 0
BBX  10 9 0 -1
BITMAP
00F0F0F0F0F0F0F01000
0000000020A0C0406000
E0F0F060E04040E0A000
0020E000F0C040200000
00A06000F080E0400000
30E00000F00040E08000
A04000F0FF000010C020
00000000000000000000
E0E0E0E0E0E0E0E0E030
ENDCHAR
STARTCHAR  4E22
ENCODING  20002
SWIDTH  1000 0
DWIDTH  10 0
BBX  10 9 0 -1
BITMAP
00F0F0F0F0FFF0F0F080
0000000000F000000000
00C0F0F0F0FFF0F0F040
0000000000F000000000
00000000002000000000
30F0F0F0F0F0F0F0F0F0
0000A080000000603000
0060C00000000020E000
00E0E0E0E0E0E0E0E040
ENDCHAR
STARTCHAR  4E24
ENCODING  20004
SWIDTH  1000 0
DWIDTH  10 0
BBX  10 9 0 -1
BITMAP
10F0F0F0F0F0F0F0F0F0
000000A00000A0000000
000000F00000F0000000
00F0E0FFE0E0FFE0E0F0
00F000F00000F00000F0
00F010FF3020FF4000F0
00F060C08060C0C000F0
00F0A030E0C030E040F0
00E00000000000A0F0E0
ENDCHAR
STARTCHAR  4E25
ENCODING  20005
SWIDTH  1000 0
DWIDTH  10 0
BBX  10 10 0 -2
BITMAP
00F0F0F0F0F0F0F0F0E0
00A06000F00000F020A0
0060A000F00000F06060
00000000F00000F00000
00F0F0F0F0F0F0F0F0F0
00F00000000000000000
00F00000000000000000
00F00000000000000000
00F00000000000000000
00200000000000000000
ENDCHAR
STARTCHAR  4E27
ENCODING  20007
SWIDTH  1000 0
DWIDTH  10 0
BBX  10 11 0 -2
BITMAP
00000000400000000000
A0F0F0F0FFF0F0F0F000
00000000F00000000000
00E00000F00010E00000
00A04000F00060800000
F0F0F0F0F0F0F0F0F000
00A00000108020006000
00E000000060E0E08000
00E000000000A0800000
00E0F0F0300010E04000
00000000000000001000
ENDCHAR
STARTCHAR  4E28
ENCODING  20008
SWIDTH  1000 0
DWIDTH  10 0
BBX  1 11 4 -2
BITMAP
10
F0
F0
F0
F0
F0
F0
F0
F0
F0
00
ENDCHAR
STARTCHAR  4E2A
ENCODING  20010
SWIDTH  1000 0
DWIDTH  10 0
BBX  11 10 -1 -1
BITMAP
0000000000401000000000
00000060E0C0E060000000
0040E0C0300030C0E04000
20E040000080000040C030
0000000000F00000000000
0000000000F00000000000
0000000000F00000000000
0000000000F00000000000
0000000000F00000000000
0000000000F00000000000
ENDCHAR
STARTCHAR  4E2B
ENCODING  20011
SWIDTH  1000 0
DWIDTH  10 0
BBX  10 11 0 -2
BITMAP
00000000000000000000
30A020000000000030C0
0080F080100010A0E060
000010A0E010E0A01000
00000000304030000000
0000000000F000000000
0000000000F000000000
0000000000F000000000
0000000000F000000000
0000000000F000000000
00000000002000000000
ENDCHAR
STARTCHAR  4E2C
ENCODING  20012
SWIDTH  1000 0
DWIDTH  10 0
BBX  4 11 0 -2
BITMAP
00000020
C06000F0
40E000F0
00C040F0
004060F0
002040F0
00A060F0
20E000F0
A08000F0
301000F0
00000010
ENDCHAR
STARTCHAR  4E2D
ENCODING  20013
SWIDTH  1000 0
DWIDTH  10 0
BBX  9 11 1 -2
BITMAP
000000004000000000
00000000F000000000
F0F0F0F0FFF0F0F0E0
F0000000F0000000F0
F0000000F0000000F0
F0000000F0000000F0
F0000000F0000000F0
F0F0F0F0FFF0F0C0E0
00000000F000000000
00000000F000000000
000000003000000000
ENDCHAR
STARTCHAR  4E30
ENCODING  20016
SWIDTH  1000 0
DWIDTH  10 0
BBX  10 11 0 -2
BITMAP
00000000200000000000
00000000F00000000000
E0F0F0F0FFF0F0F0F000
00000000F00000000000
00000000F00000000000
80F0F0F0FFF0F0F0F000
00000000F00000000000
F0F0F0F0FFF0F0F0F040
00000000F00000000000
00000000F00000000000
00000000100000000000
ENDCHAR
STARTCHAR  4E32
ENCODING  20018
SWIDTH  1000 0
DWIDTH  10 0
BBX  9 11 1 -2
BITMAP
000000004000000000
E0E0E0E0FFE0E0E0E0
F0000000F0000000E0
F0000000F0000000E0
E0F0F0F0FFF0F080E0
00000000F000000000
FFE0E0E0FFE0E0E0F0
F0000000F0000000F0
F0F0F0F0FFF0F0A0E0
00000000F000000000
000000003000000000
ENDCHAR
STARTCHAR  4E34
ENCODING  20020
SWIDTH  1000 0
DWIDTH  10 0
BBX  10 11 1 -2
BITMAP
00001000200000000000
A000F000FF0000000000
E000F000E0E0E0E0E030
E000F0000020E0000000
E000F000000060100000
E000F000E0E0E0E0E000
E000F000F0008000F000
E000F000F000F000F000
E000F000F0008000F000
0000F000E0E0E0E0E000
00000000000000000000
ENDCHAR
STARTCHAR  4E36
ENCODING  20022
SWIDTH  1000 0
DWIDTH  10 0
BBX  4 4 1 2
BITMAP
10800000
00E06000
0060E000
0000C060
ENDCHAR
STARTCHAR  4E38
ENCODING  20024
SWIDTH  1000 0
DWIDTH  10 0
BBX  10 10 0 -1
BITMAP
00000040100000000000
000000E0000000000000
80F0F0FFF0F0F0E00000
00006080000000F00000
1000A040000000F00000
60E0F010000000F00000
0040F0E0600000F00000
0060A030C01000F00000
00A06000000000F00000
00C02000000000F0F0C0
ENDCHAR
STARTCHAR  4E39
ENCODING  20025
SWIDTH  1000 0
DWIDTH  10 0
BBX  10 9 0 -1
BITMAP
00E0F0F0F0F0F0F00000
00E00000200000F00000
00E00010E00000F00000
00E00000E01000F00000
C0FFE0E0E0E0E0F0E060
00E00000000000F00000
00E00000000000F00000
00E00000000000F00000
00E0000000E0F0F00000
ENDCHAR
STARTCHAR  4E3A
ENCODING  20026
SWIDTH  1000 0
DWIDTH  10 0
BBX  10 11 -1 -2
BITMAP
00000000202000000000
0040C000A04000000000
00008030E00000000000
00F0F0F0F0F0F0F0F0F0
000000A06000000000F0
000000F010C0300000F0
000040C00040E00000F0
0000A0600000A06000F0
0000E0100000000000F0
0040C0000060F0F0F0F0
00001000000000000000
ENDCHAR
STARTCHAR  4E3B
ENCODING  20027
SWIDTH  1000 0
DWIDTH  10 0
BBX  11 10 0 -1
BITMAP
0000000000200000000000
0000000000FF0000000000
00E0E0E0E0E0E0E0E0E000
0000000000F00000000000
0000000000F00000000000
00F0F0F0F0FFF0F0F0C000
0000000000F00000000000
0000000000F00000000000
0000000000300000000000
10E0E0E0E0E0E0E0E0E010
ENDCHAR
STARTCHAR  4E3D
ENCODING  20029
SWIDTH  1000 0
DWIDTH  10 0
BBX  10 9 0 -1
BITMAP
F0F0F0F0F0F0F0F0F020
00000000000000000000
F0E0E0FF00FFE0E0F000
F000F0F000E0E000F000
F000F0F000E0E000F000
F000F0F000E0E000F000
F000F0F000E0E000F000
F00000F000E00000F000
E000C0F000E000E0E000
ENDCHAR
STARTCHAR  4E3E
ENCODING  20030
SWIDTH  1000 0
DWIDTH  10 0
BBX  11 10 0 -2
BITMAP
0040E00060800000E02000
0000C02010C00040A00000
20F0F0F0F0F0F0F0F0C000
000080A0004000C0600000
0040E01000F00020E02000
10E030F0F0FFF0F060A000
0000000000F00000000000
00F0F0F0F0FFF0F0F0A000
0000000000F00000000000
0000000000200000000000
ENDCHAR
STARTCHAR  4E3F
ENCODING  20031
SWIDTH  1000 0
DWIDTH  10 0
BBX  5 11 2 -2
BITMAP
0000003010
000000F010
000030C000
0000808000
0000C04000
0010F00000
0040C00000
0080600000
00E0300000
20E0000000
1010000000
ENDCHAR
STARTCHAR  4E43
ENCODING  20035
SWIDTH  1000 0
DWIDTH  10 0
BBX  9 10 0 -2
BITMAP
A0F0F0F0F0F0F0F0F0
00008010000020E060
0010E0000000C08000
0040A0000060FFF0F0
0080600000000000F0
00C0300000000000F0
10E0000000000000F0
40A0000000000000F0
8060000040F0F0F0F0
100000000000000000
ENDCHAR
STARTCHAR  4E45
ENCODING  20037
SWIDTH  1000 0
DWIDTH  10 0
BBX  11 9 -1 -1
BITMAP
000020E0F0F0F0F0F00000
0020E06000000000F00000
00A06000000000A0A00000
000000000000A0C0000000
0000000000A0E000000000
0000000080C0E060000000
00000080C01030F0300000
000080C010000040E02000
0060C0100000000060C010
ENDCHAR
STARTCHAR  4E47
ENCODING  20039
SWIDTH  1000 0
DWIDTH  10 0
BBX  10 9 0 -1
BITMAP
00F0F0F0F0F0F0F0F0A0
00000000600000000000
00000000F00000000000
00000000F00000000000
30F0F0F0FFF0F0F0F0E0
00000000F00000000000
00000000F00000000000
00000000F00000000000
00000000E0F0F0F0F0F0
ENDCHAR
STARTCHAR  4E48
ENCODING  20040
SWIDTH  1000 0
DWIDTH  10 0
BBX  10 10 0 -1
BITMAP
00000000202000000000
00000040E02000000000
000010E0400040100000
0000C08000A0A0000000
0080C00060E010000000
40E01030E02000000000
402010E0400010F02000
0000C080000000808000
0080A00000000020F010
00F0F0F0F0F0F0F0F040
ENDCHAR
STARTCHAR  4E49
ENCODING  20041
SWIDTH  1000 0
DWIDTH  10 0
BBX  10 10 0 -2
BITMAP
00C00000F00000C00000
00F00000F00000F00000
00F00000F00000F00000
00F00000E00000F00000
00E0A010001080E00000
001080E080E080100000
000040E0E0E040000000
30C0C0400030C0C03000
E060000000000040E010
00000000000000000000
ENDCHAR
STARTCHAR  4E4B
ENCODING  20043
SWIDTH  1000 0
DWIDTH  10 0
BBX  9 10 1 -1
BITMAP
000000004000000000
00000000E000000000
F0F0F0F0FFF0F0F080
00000000000080C010
0000000010A0A00000
00000010C080000000
000030E06000000000
0040E0400000000000
60E020000000000000
E0F0F0F0F0F0F0F0C0
ENDCHAR
STARTCHAR  4E4C
ENCODING  20044
SWIDTH  1000 0
DWIDTH  10 0
BBX  9 10 0 -1
BITMAP
000000008000000000
00F0F0F0FFF0F0F0E0
00E0000000000000F0
00E0000000000000F0
00E000000080F0F0E0
00FFF0F0F0F0F0F0E0
0000000000000000F0
F0F0F0F0F0F0F010F0
0000000000000000F0
000000C0E0E0E0E0E0
ENDCHAR
STARTCHAR  4E4D
ENCODING  20045
SWIDTH  1000 0
DWIDTH  10 0
BBX  10 11 0 -2
BITMAP
00002010000000000000
0000C030000000000000
0020FFF0F0F0F0F0F080
00608000F00000000000
00C04000F00000000000
10E00000F0F0F0F0F040
00100000F00000000000
00000000F0F0F0F0F040
00000000F00000000000
00000000F00000000000
00000000100000000000
ENDCHAR
STARTCHAR  4E4E
ENCODING  20046
SWIDTH  1000 0
DWIDTH  10 0
BBX  11 9 0 -1
BITMAP
00F0F0F0F0F0F0F0F0E000
0040A00000F00000A04000
0010E00000F00000E00000
0000E02000F00030C00000
0000100000F00010100000
20E0E0E0E0FFE0E0E0E010
0000000000F00000000000
0000000000F00000000000
000040F0F0F00000000000
ENDCHAR
STARTCHAR  4E4F
ENCODING  20047
SWIDTH  1000 0
DWIDTH  10 0
BBX  10 9 0 -1
BITMAP
F0F0F0F0F0F0F0F0F020
00000000800000000000
00000000F00000000000
40F0F0F0F0F0F0F0F000
000000000020A0F08000
0000001080F0A0100000
000060F0A02000000000
40E0C040000000000000
E0F0F0F0F0F0F0F0F020
ENDCHAR
STARTCHAR  4E50
ENCODING  20048
SWIDTH  1000 0
DWIDTH  10 0
BBX  10 9 0 -1
BITMAP
00F0F0F0F0F0F0F0F040
00F00000006000000000
00F0000000F000000000
00F0000000F000000000
00F0F0F0F0FFF0F0F080
0000300000F000201000
0060C00000F000808000
00E0400000F00010E010
40A00060F0E000008040
ENDCHAR
STARTCHAR  4E52
ENCODING  20050
SWIDTH  1000 0
DWIDTH  10 0
BBX  10 9 0 -1
BITMAP
00E0E0E0E0E0E0E08000
00F00000000000000000
00F060F0F0F0F0F0F000
00F000000000E0000000
00F000000000E0000000
E0FFE0E0E0E0FFE0E060
00008020000000000000
0080A000000000000000
30A00000000000000000
ENDCHAR
STARTCHAR  4E53
ENCODING  20051
SWIDTH  1000 0
DWIDTH  10 0
BBX  10 9 0 -1
BITMAP
00E0E0E0E0E0E0E0A000
00F00000000000000000
00F0A0F0F0F0F0F0F000
00F000000000E0000000
00F000000000E0000000
E0FFE0E0E0E0FFE0E060
00000000001080100000
00000000000080A00000
00000000000000A06000
ENDCHAR
STARTCHAR  4E54
ENCODING  20052
SWIDTH  1000 0
DWIDTH  10 0
BBX  10 9 0 -1
BITMAP
60F0F0F0F0F0F0F0F000
00000000F00000000000
F0F0F0F0FFF0F0F0F000
0020C0800080E0300000
40E04000000040E04000
C020C0000000C020C000
0020C0000000F0000000
0040A0000000F0000000
008060000000F0000000
ENDCHAR
STARTCHAR  4E56
ENCODING  20054
SWIDTH  1000 0
DWIDTH  10 0
BBX  10 9 0 -1
BITMAP
A0F0F0F0F0F0F0F0F000
00000000E00000000000
E0E0E0E0FFE0E0E0E030
00000000F00000000000
C0E0FF00F000F0E0E010
0000F000F000F0000000
C0E0FF00F000F0E0E010
0000F000F00010202000
00000000F00000000000
ENDCHAR
STARTCHAR  4E58
ENCODING  20056
SWIDTH  1000 0
DWIDTH  10 0
BBX  10 10 0 -2
BITMAP
00F0F0F0F0F0F0F0F030
0000000000F000000000
00F0F0FFF0FFF0FFF0E0
00A0A0F000F000F0A080
006060F000F000F04030
00C080F000F000FFC0A0
0000006040F040402020
0040A0E040F040E0A030
10C0400000F0000040C0
00000000002000000000
ENDCHAR
STARTCHAR  4E59
ENCODING  20057
SWIDTH  1000 0
DWIDTH  10 0
BBX  10 9 0 -1
BITMAP
C0FFFFFFFFFFFFFFFF00
00000000000030E06000
000000000030E0600000
0000000040E040000000
00000060E03000000000
000060E0200000000000
0080E020000000000000
80E01000000000000000
FFFFFFFFFFFFFFFFFF20
ENDCHAR
STARTCHAR  4E5C
ENCODING  20060
SWIDTH  1000 0
DWIDTH  10 0
BBX  11 10 -1 -1
BITMAP
0000000000000000000000
0000F00000000000002000
0000F000004080C0E0F000
0040F0C0F0C0804010F000
20A0F0300000000000F000
0000F0000000000000F000
0000F0000000000000F000
0000F00000000000006000
0000F00000000000000000
0000E0F0F0F0F0F0F0F020
ENDCHAR
STARTCHAR  4E5D
ENCODING  20061
SWIDTH  1000 0
DWIDTH  10 0
BBX  10 11 0 -2
BITMAP
00006030000000000000
0000E020000000000000
E0FFFFFFFFFFFF000000
0060A0000000FF000000
00A060000000FF000000
00E020000000FF000000
10E000000000FF000000
60A000000000FF000000
A06000000000FF000000
E02000000000F0FFFF40
10000000000000000000
ENDCHAR
STARTCHAR  4E5E
ENCODING  20062
SWIDTH  1000 0
DWIDTH  10 0
BBX  9 9 1 -1
BITMAP
E00000000000000000
F0FFFFFFFFFFFFFFFF
000000000000000000
F0F0F0F0F0F0FFF000
000000000060E06000
00000030C0A0100000
000080E04000000000
40E080000000000000
C0FFFFFFFFFFFFFFF0
ENDCHAR
STARTCHAR  4E5F
ENCODING  20063
SWIDTH  1000 0
DWIDTH  10 0
BBX  10 10 0 -1
BITMAP
00000000003000000000
00A0000000F000001000
00F0000010F080C0FF00
30F0A0E0E0F06020F000
A0F0401000F00000F000
00F0000000F00000F000
00F0000000F00000F000
00F0000000F000004000
00F00000000000000000
00E0E0E0E0E0E0E0E060
ENDCHAR
STARTCHAR  4E60
ENCODING  20064
SWIDTH  1000 0
DWIDTH  10 0
BBX  9 9 0 -1
BITMAP
C0F0F0F0F0F0F0F0F0
3010000000000000F0
A0E0C08030000000F0
00004080E0E08000F0
0000000000104000F0
000000002080A000F0
000040A0E0801000F0
60E0C06000000000F0
80300010F0F0F0F0F0
ENDCHAR
STARTCHAR  4E61
ENCODING  20065
SWIDTH  1000 0
DWIDTH  10 0
BBX  10 10 0 -1
BITMAP
00000000404000000000
00000080E01000103000
000080E0200020E06000
0060E0200040C0200000
00E0E0E0FF8000000000
000040C0400000108030
0060FFF0E0E0E0F0A000
000000000020E0A00000
0000000010E0A0000000
80E0E0E0E0A000000000
ENDCHAR
STARTCHAR  4E66
ENCODING  20070
SWIDTH  1000 0
DWIDTH  10 0
BBX  11 10 0 -1
BITMAP
0000000080000000000000
00000000F0000000C0C000
60F0F0F0FFF0F0F040F000
00000000F00000F0008010
00000000F00000F0000000
60F0F0F0FFF0F0F0F0E000
00000000F000000000F000
00000000F000000000F000
00000000F00020F0F0F000
00000000F0000000000000
ENDCHAR
STARTCHAR  4E69
ENCODING  20073
SWIDTH  1000 0
DWIDTH  10 0
BBX  10 9 1 -1
BITMAP
0000F0000000F0000000
0000FFF0F040F0000000
0000F0000000F0000000
0000A0000000F0000000
FFF0F0F0F000F0000000
F0000000F000F0000000
F0000000F000F0000000
F0000000F000F0000000
F0F0F080E000F0F0F080
ENDCHAR
STARTCHAR  4E70
ENCODING  20080
SWIDTH  1000 0
DWIDTH  10 0
BBX  11 9 0 -1
BITMAP
00F0F0F0F0F0F0F0F0E000
000000100000003010F000
00604060C01010F010F000
0040F010806060A0008000
0000A0A00000C040000000
20F0F0F0F0F0FFF0F0E000
000000A0C01030A0100000
0000A0A000000080C01000
00A0A0000000000080A000
ENDCHAR
STARTCHAR  4E71
ENCODING  20081
SWIDTH  1000 0
DWIDTH  10 0
BBX  11 10 0 -1
BITMAP
0000000000000010000000
00F0F0F0F0C000F0000000
000000F0000000F0000000
30E0E0FFE0E000F0000000
001010F0101000F0000000
00000040000000F0000000
00F0E0E0E0F000F0000000
00F0000000F000F0000000
00F0000000F000F0000000
00E0F0F0A0E000F0F0F060
ENDCHAR
STARTCHAR  4E73
ENCODING  20083
SWIDTH  1000 0
DWIDTH  10 0
BBX  10 10 0 -1
BITMAP
00000000000010000000
E0E0E0E0E000E0000000
C0808060C000E0000000
E060A0A06000E0000000
201020200000E0000000
F0F0F0F00000E0000000
000060800000E0000000
E0F0FFF0F000E0000000
0000F0000000E0000000
60F0F0000000E0E0E080
ENDCHAR
STARTCHAR  4E7E
ENCODING  20094
SWIDTH  1000 0
DWIDTH  10 0
BBX  10 10 0 -2
BITMAP
0000A0000000C0000000
40E0FFE0E010E0E0E040
00F0FFF0E00000000000
00E00000F0E0F0F0FF10
00E0E0A0F0000040A000
00FFF0C0F00020E03000
000080000000C0C00000
40F0FFF0F0A0FF300000
0000E00000E0E0E0E030
00001000000000000000
ENDCHAR
STARTCHAR  4E86
ENCODING  20102
SWIDTH  1000 0
DWIDTH  10 0
BBX  9 9 1 -1
BITMAP
F0F0F0F0F0F0F0F0E0
000000000010A0E040
0000000060E0801000
00000000F020000000
00000000F000000000
00000000F000000000
00000000F000000000
00000000F000000000
0040F0F0F000000000
ENDCHAR
STARTCHAR  4E88
ENCODING  20104
SWIDTH  1000 0
DWIDTH  10 0
BBX  10 9 0 -1
BITMAP
00F0F0F0F0F0F0F0F000
0000201000000040A000
00008080000000E03000
000020E0000060C00000
10F0F0F0F0F0F0F0F0F0
0000000000F0000000F0
0000000000F000000030
0000000000F000000000
0000A0F0F0E000000000
ENDCHAR
STARTCHAR  4E89
ENCODING  20105
SWIDTH  1000 0
DWIDTH  10 0
BBX  10 9 0 -1
BITMAP
0000A0F0F0F0F0600000
0060C0000040E0000000
10E0E0F0F0FFF0F0FF00
0000000000F00000E000
00F0F0F0F0FFF0F0FFF0
0000000000F00000E000
0030F0F0F0FFF0F0E000
0000000000F000000000
0000A0F0F0E000000000
ENDCHAR
STARTCHAR  4E8B
ENCODING  20107
SWIDTH  1000 0
DWIDTH  10 0
BBX  11 10 -1 -1
BITMAP
0000000000300000000000
00F0F0F0F0FFF0F0F0F010
0000000000E00000000000
0000FFE0E0FFE0E0FF0000
0000E0E0E0FFE0E0FF0000
0000E0E0E0FFE0E0E0C000
00E0E0E0E0FFE0E0E0FF10
0000000000E0000000F000
0000E0E0E0FFE0E0C0C000
000000C0E0F00000000000
ENDCHAR
STARTCHAR  4E8C
ENCODING  20108
SWIDTH  1000 0
DWIDTH  10 0
BBX  10 8 0 0
BITMAP
A0FFFFFFFFFFFFFFFF00
00000000000000000000
00000000000000000000
00000000000000000000
00000000000000000000
00000000000000000000
00000000000000000000
FFFFFFFFFFFFFFFFFF40
ENDCHAR
STARTCHAR  4E8D
ENCODING  20109
SWIDTH  1000 0
DWIDTH  10 0
BBX  10 9 0 -1
BITMAP
00F0F0F0F0F0F0F0E000
00000000000000000000
00000000000000000000
F0F0F0F0F0F0F0F0F030
00000000000080000000
000000000000FF000000
000000000000FF000000
000000000000FF000000
000000A0F0F0F0000000
ENDCHAR
STARTCHAR  4E8E
ENCODING  20110
SWIDTH  1000 0
DWIDTH  10 0
BBX  10 9 0 -1
BITMAP
C0F0F0F0F0F0F0F0F000
00000000800000000000
00000000F00000000000
00000000F00000000000
E0E0E0E0FFE0E0E0E060
00000000F00000000000
00000000F00000000000
00000000F00000000000
00A0F0F0F00000000000
ENDCHAR
STARTCHAR  4E8F
ENCODING  20111
SWIDTH  1000 0
DWIDTH  10 0
BBX  10 9 0 -1
BITMAP
00E0E0E0E0E0E0E08000
00000000000000000000
00000000000000000000
E0E0FFE0E0E0E0E0E030
0000E000000000000000
0000F0F0F0F0F0FF0000
00000000000000E00000
00000000000000E00000
000080E0E0E0E0E00000
ENDCHAR
STARTCHAR  4E91
ENCODING  20113
SWIDTH  1000 0
DWIDTH  10 0
BBX  10 9 0 -1
BITMAP
A0F0F0F0F0F0F0F0F000
00000000000000000000
00000000000000000000
F0F0F0F0F0F0F0F0F060
00000000000000000000
00808000000000A02000
00E02000000000A06000
40C0000000000040C000
A0F0F0F0F0F0F0F0F010
ENDCHAR
STARTCHAR  4E92
ENCODING  20114
SWIDTH  1000 0
DWIDTH  10 0
BBX  10 9 0 -1
BITMAP
E0F0F0F0F0F0F0F0F020
00806000000000000000
00C0A0F0F0F0F0F01000
00E01000000000F00000
00E00000000020E00000
30FFF0F0F0F080C00000
00000000000060A00000
00000000000080800000
F0F0F0F0F0F0F0F0F030
ENDCHAR
STARTCHAR  4E93
ENCODING  20115
SWIDTH  1000 0
DWIDTH  10 0
BBX  10 10 0 -2
BITMAP
60F0F0F0F0F0F0F0F000
00000000000000000000
00000000000000000000
00000000000000000000
F0F0F0F0F0F0F0F0F060
00806000000000F00000
00C04000000000F00000
00E01000000000F00000
10E00000000000F00000
00000000000000000000
ENDCHAR
STARTCHAR  4E94
ENCODING  20116
SWIDTH  1000 0
DWIDTH  10 0
BBX  10 9 0 -1
BITMAP
A0E0E0E0E0E0E0E0E000
0000F010000000000000
0010F000000000000000
A0F0FFF0F0F0F0F00000
0040C000000000F00000
0060A000000000F00000
00808000000000F00000
00808000000000F00000
E0E0E0E0E0E0E0E0E020
ENDCHAR
STARTCHAR  4E95
ENCODING  20117
SWIDTH  1000 0
DWIDTH  10 0
BBX  10 11 0 -2
BITMAP
00001000000000100000
0000E020000000F00000
00F0FFF0F0F0F0FFF0C0
0000E010000000F00000
0000F000000000F00000
0000F000000000F00000
40F0FFF0F0F0F0F0F0E0
0000F000000000F00000
0000F000000000F00000
0010E000000000F00000
00000000000000000000
ENDCHAR
STARTCHAR  4E98
ENCODING  20120
SWIDTH  1000 0
DWIDTH  10 0
BBX  11 9 -1 -1
BITMAP
00F0F0F0F0F0F0F0F0F000
0000000000000000000000
0000FFE0E0E0E0E0FF0000
0000F00000000000F00000
0000F0F0F0F0F0F0F00000
0000F00000000000F00000
0000FFF0F0F0F0F0FF0000
0000000000000000000000
20F0F0F0F0F0F0F0F0F020
ENDCHAR
STARTCHAR  4E9A
ENCODING  20122
SWIDTH  1000 0
DWIDTH  10 0
BBX  11 9 0 -1
BITMAP
00F0F0F0F0F0F0F0F0E000
00000000E000E000000000
00E00000E000E00000E000
00E00000E000E00000E000
00E00000E000E00000E000
00E01000E000E00010E000
00801000E000E000108000
0000000020002000000000
10E0E0E0E0E0E0E0E0E000
ENDCHAR
STARTCHAR  4E9B
ENCODING  20123
SWIDTH  1000 0
DWIDTH  10 0
BBX  10 10 0 -1
BITMAP
00000060006000000000
00A000E000F000000000
00F000FFC0F0A0F0F000
00F000E000F000000000
00F000E000F000000000
F0FFF0FFC0F0F0F0F000
00000000000000000000
00F0F0F0F0F0F0F01000
00000000000000000000
F0F0F0F0F0F0F0F0F010
ENDCHAR
STARTCHAR  4E9F
ENCODING  20127
SWIDTH  1000 0
DWIDTH  10 0
BBX  10 9 0 -1
BITMAP
10F0F0F0F0F0F0E00000
0000000060E080100000
F0F0FF00F080E0E0C000
F000E000F0404000E000
F000E000F060C060E000
F000E000F010E0FF6000
F0E0F060FF806020C000
00000000000000000000
E0E0E0E0E0E0E0E0E020
ENDCHAR
STARTCHAR  4EA0
ENCODING  20128
SWIDTH  1000 0
DWIDTH  10 0
BBX  10 3 0 5
BITMAP
00000000F00000000000
00000000E00000000000
F0F0F0F0F0F0F0F0F060
ENDCHAR
STARTCHAR  4EA1
ENCODING  20129
SWIDTH  1000 0
DWIDTH  10 0
BBX  10 10 0 -1
BITMAP
00000000200000000000
00000000FF0000000000
F0F0F0F0F0F0F0F0F060
00300000000000000000
00F00000000000000000
00F00000000000000000
00F00000000000000000
00F00000000000000000
00F00000000000000000
00E0F0F0F0F0F0F0F000
ENDCHAR
STARTCHAR  4EA2
ENCODING  20130
SWIDTH  1000 0
DWIDTH  10 0
BBX  10 10 0 -1
BITMAP
00000000001000000000
0000000000F000000000
30F0F0F0F0F0F0F0F0F0
00000000000000000000
0000F0F0F0F0F0FF0000
0000F000000000F00000
0000F000000000F00000
0000F000000000F00000
0000F000000000F00000
30F0F000000000E0F0E0
ENDCHAR
STARTCHAR  4EA4
ENCODING  20132
SWIDTH  1000 0
DWIDTH  10 0
BBX  11 10 -1 -1
BITMAP
0000000000A00000000000
00E0E0E0E0FFE0E0E0E030
0000004060004040000000
0060E0C0300030C0E06000
00C060000000000060A030
0000C0C0300030A0E00000
00000040E0E0F060000000
000040C0E060C0C0400000
00C0C04000000040C0E010
0040000000000000003010
ENDCHAR
STARTCHAR  4EA5
ENCODING  20133
SWIDTH  1000 0
DWIDTH  10 0
BBX  10 9 0 -1
BITMAP
00000000C00000000000
E0E0F0F0E0E0E0E0E020
0060C010000010606000
30FFE0E0E0E0E0802000
001060E0C06000208010
40E0A0300040C0C06000
20101080E0F0C0100000
30A0E080101080E08000
80600000000000108000
ENDCHAR
STARTCHAR  4EA6
ENCODING  20134
SWIDTH  1000 0
DWIDTH  10 0
BBX  11 9 -1 -1
BITMAP
0000000000E00000000000
00E0E0E0E0E0E0E0E0E010
00003010C000C000301000
0020C030C000F000C04000
0060A060A000F000A08000
008060806000F00060A000
00C030A04000F00040E000
00E010C03000F00010F000
008000E010E0E000008010
ENDCHAR
STARTCHAR  4EA7
ENCODING  20135
SWIDTH  1000 0
DWIDTH  10 0
BBX  10 11 0 -2
BITMAP
00000000800000000000
F0F0F0F0FFF0F0F0F020
00E02000000040A00000
00A080000000A0600000
00000000000000000000
F0F0F0F0F0F0F0F0F040
F0000000000000000000
F0000000000000000000
F0000000000000000000
F0000000000000000000
40000000000000000000
ENDCHAR
STARTCHAR  4EA8
ENCODING  20136
SWIDTH  1000 0
DWIDTH  10 0
BBX  10 10 0 -1
BITMAP
00000000800000000000
E0E0E0E0FFE0E0E0E010
00000000000000000000
00FFE0E0E0E0E0FF0000
00F00000000000E00000
00F0F0F0F0F0F0F00000
F0F0F0F0F0F0F0E03000
0000000000C0A0300000
0000000000E000000000
000010F0F0E000000000
ENDCHAR
STARTCHAR  4EA9
ENCODING  20137
SWIDTH  1000 0
DWIDTH  10 0
BBX  10 10 0 -1
BITMAP
00000000C00000000000
E0E0E0E0FFE0E0E0E060
00000000000000000000
00F0F0F0F0F0F0F0E000
00F0000000000000F000
00F00000F0000000F000
00F0F0F0FFF0F060F000
00F00000F0000000F000
00F00000E0000000F000
00F0F0F0F0F0F0A0E000
ENDCHAR
STARTCHAR  4EAB
ENCODING  20139
SWIDTH  1000 0
DWIDTH  10 0
BBX  10 10 0 -1
BITMAP
00000000800000000000
E0E0E0E0FFE0E0E0E010
00000000000000000000
00FFF0F0F0F0F0FF0000
00FFF0F0F0F0F0FF0000
00000000000000000000
20F0F0F0F0F0FFE03000
F0F0F0F0F0F0FFF0F010
0000000000F000000000
000000E0F0E000000000
ENDCHAR
STARTCHAR  4EAC
ENCODING  20140
SWIDTH  1000 0
DWIDTH  10 0
BBX  10 10 0 -1
BITMAP
00000000A00000000000
F0F0F0F0FFF0F0F0F040
00000000000000000000
00E0E0E0E0E0E0E0E000
00F0000000000000E000
00F0000000000000E000
00F0F0F0FFF0F0A0E000
00303000F00000602000
10E02000F0000060A000
A08000F0FF0000008020
ENDCHAR
STARTCHAR  4EAD
ENCODING  20141
SWIDTH  1000 0
DWIDTH  10 0
BBX  10 10 0 -1
BITMAP
00000000600000000000
F0F0F0F0FFF0F0F0F020
00000000000000000000
00FFE0E0E0E0E0FF0000
00FFF0F0F0F0E0F00000
E0F0F0F0F0F0F0F0F000
E000000000000000E000
0030F0F0F0F0F0F00000
00000000F00000000000
0020E0E0F00000000000
ENDCHAR
STARTCHAR  4EAE
ENCODING  20142
SWIDTH  1000 0
DWIDTH  10 0
BBX  10 10 0 -1
BITMAP
00000000600000000000
F0F0F0F0FFF0F0F0F010
00000000000000000000
00FFE0E0E0E0E0FF0000
00F0E0E0E0E0E0F00000
00000000000000000000
E0F0F0F0F0F0F0F0F000
C000F0F0F0F0F000C000
0000E0000000E0000000
E0E0E0000000E0E0E000
ENDCHAR
STARTCHAR  4EB2
ENCODING  20146
SWIDTH  1000 0
DWIDTH  10 0
BBX  10 10 0 -1
BITMAP
00000000008000000000
00F0F0F0F0FFF0F0F0C0
00006000000000006000
0000E03000000040A000
20F0F0F0F0F0F0F0F0E0
0000000000F000000000
00F0F0F0F0FFF0F0F0C0
0000802000F000208000
0040E00000F00000E030
00A04000F0F000006080
ENDCHAR
STARTCHAR  4EB3
ENCODING  20147
SWIDTH  1000 0
DWIDTH  10 0
BBX  10 10 0 -1
BITMAP
00000000600000000000
E0E0E0E0FFE0E0E0E030
00C0E0E0E0E0E0E00000
00F00000000000F00000
00C0E0E0E0E0C0E00000
E0E0E0E0E0E0E0E0FF00
F030E0E0E0E0E0E0F000
00001010E01010100000
E0E0E0E0FFE0E0E0E000
00000000F0F0F0F0F000
ENDCHAR
STARTCHAR  4EB5
ENCODING  20149
SWIDTH  1000 0
DWIDTH  10 0
BBX  11 10 -1 -1
BITMAP
0000000000800000000000
00E0E0E0E0FFE0E0E0E000
0000402000001040000000
00E0F0F0E0E0E0F0E00000
0000A0404020E030E00000
00E0F0F0A0E0FF30E00000
00E0F04000A06040E0F010
0000306000602060106000
0010E03000F000A0E08000
00A0600000FFE010C08000
ENDCHAR
STARTCHAR  4EBA
ENCODING  20154
SWIDTH  1000 0
DWIDTH  10 0
BBX  11 11 -1 -2
BITMAP
0000000000400000000000
0000000000F00000000000
0000000000F00000000000
0000000000F00000000000
0000000000F00000000000
00000000A0E0A000000000
00000060E010C060000000
000030E0200020E0400000
0010E04000000040E02000
00C080000000000060C000
0000000000000000000000
ENDCHAR
STARTCHAR  4EBB
ENCODING  20155
SWIDTH  1000 0
DWIDTH  10 0
BBX  3 10 0 -1
BITMAP
000000
00E030
20E000
808000
A06000
00F000
00F000
00F000
00F000
00F000
ENDCHAR
STARTCHAR  4EBF
ENCODING  20159
SWIDTH  1000 0
DWIDTH  10 0
BBX  10 10 0 -1
BITMAP
00001000000000000000
008060E0F0F0F0F0E000
00E0100000000080A000
60A00000000040E01000
806000000010E0300000
00F0000000A060000000
00F0000040A000000000
00F00010E01000000000
00F000A0400000000000
00F000F0F0F0F0F0F060
ENDCHAR
STARTCHAR  4EC0
ENCODING  20160
SWIDTH  1000 0
DWIDTH  10 0
BBX  11 11 -1 -2
BITMAP
0000001000000010000000
000080A0000000F0000000
0010F020000000F0000000
0080A000000000F0000000
00A06000F0F0F0FFF0F0A0
0000F000000000F0000000
0000F000000000F0000000
0000F000000000F0000000
0000F000000000F0000000
0000F000000000F0000000
0000000000000000000000
ENDCHAR
STARTCHAR  4EC1
ENCODING  20161
SWIDTH  1000 0
DWIDTH  10 0
BBX  11 10 -1 -1
BITMAP
0000000000000000000000
0000E03000000000000000
0030C000E0F0F0F0F0F000
00A0600000000000000000
00C0400000000000000000
0000F00000000000000000
0000F00000000000000000
0000F00000000000000000
0000F00000000000000000
0000F040F0F0F0F0F0F030
ENDCHAR
STARTCHAR  4EC2
ENCODING  20162
SWIDTH  1000 0
DWIDTH  10 0
BBX  9 11 0 -2
BITMAP
002030002030000000
00A040008080000000
10E040F0FFF0F0F0F0
60800000E0300000F0
A0600000F0000000F0
00F00020E0000000F0
00F00040C0000000F0
00F0008080000000F0
00F000A060000000F0
00F000C04000E0F0F0
000000100000000000
ENDCHAR
STARTCHAR  4EC3
ENCODING  20163
SWIDTH  1000 0
DWIDTH  10 0
BBX  9 10 0 -1
BITMAP
001000000000000000
00E020E0F0F0F0F0F0
30E000000000A00000
808000000000FF0000
A06000000000FF0000
00F000000000FF0000
00F000000000FF0000
00F000000000FF0000
00F000000000FF0000
00F00000E0F0F00000
ENDCHAR
STARTCHAR  4EC4
ENCODING  20164
SWIDTH  1000 0
DWIDTH  10 0
BBX  10 9 1 -1
BITMAP
F0F0F0F0F0F0F0F0E000
E0000000008000000000
E000000000E000000000
E000000010F000000000
E0000000A0E080000000
E0000060C010E0100000
E00030E0100060A00000
E010E040000000C04000
E0A0800000000030C000
ENDCHAR
STARTCHAR  4EC5
ENCODING  20165
SWIDTH  1000 0
DWIDTH  10 0
BBX  10 11 0 -2
BITMAP
00000000000000000000
00E040E0F0F0F0F0E000
20E0006000000000F000
808000F000000000F000
A06000F000000000F000
00F000C080000080E000
00F0000080E0C0A01000
00F0000060E0E0800000
00F00080E02010A0E030
00F000A0100000004080
00000000000000000000
ENDCHAR
STARTCHAR  4EC6
ENCODING  20166
SWIDTH  1000 0
DWIDTH  10 0
BBX  11 10 0 -1
BITMAP
0000000000001000000000
0000E0400000F000000000
0060C0000000F020300000
00E030000000F040C00000
408030000000F000E00000
0000E0000000F000C04000
0000E0000000F000608000
0000E0000000F00020C000
0000E0000000F000006000
0000E0000000F000000000
ENDCHAR
STARTCHAR  4EC7
ENCODING  20167
SWIDTH  1000 0
DWIDTH  10 0
BBX  10 11 0 -2
BITMAP
00201000102000000000
00E03000806000000000
20E020F0F0F0F0E00000
80800000E01000F00000
A0600000E00000F00000
00E00020C00000F00000
00E00040A00000F00000
00E00080800000F00000
00E000A0400000F00000
00E000E0200000E0E080
00000000000000000000
ENDCHAR
STARTCHAR  4EC9
ENCODING  20169
SWIDTH  1000 0
DWIDTH  10 0
BBX  11 11 -1 -2
BITMAP
0000000000000000000000
0000A040E0E0E0E0E00000
0020E000E0000000F00000
00A06000E0000000F00000
10C03000E0000000F00000
0000F000E0000000F00000
0000F000E0000000F00000
0000F000E0000000F00000
0000F000E0000000F00000
0000F000E0000000F0F040
0000000000000000000000
ENDCHAR
STARTCHAR  4ECA
ENCODING  20170
SWIDTH  1000 0
DWIDTH  10 0
BBX  11 11 -1 -2
BITMAP
0000000000601000000000
00000030E0C0E040000000
000080E0400040E0A01000
20E0A01000F0001080E020
2040000000E00000004030
0000000000000000000000
0000F0F0F0F0F0F0FFC000
0000000000000030F04000
00000000000030E0400000
000000000020E060000000
0000000000606000000000
ENDCHAR
STARTCHAR  4ECB
ENCODING  20171
SWIDTH  1000 0
DWIDTH  10 0
BBX  10 11 0 -2
BITMAP
00000000001000000000
00000020C0F060000000
000060E06020C0A01000
10C0C02000000080E060
606020100000003030A0
0000A060000000F00000
0000A040000000F00000
0000E020000000F00000
0000E000000000F00000
0000E000000000F00000
00001000000000100000
ENDCHAR
STARTCHAR  4ECD
ENCODING  20173
SWIDTH  1000 0
DWIDTH  10 0
BBX  9 10 0 -1
BITMAP
000000000000000000
008080A0F0F0F0F0E0
00E01000800000C080
60A00000E00030E000
80600010C000A0F0F0
00F00030A0000000F0
00F0004080000000F0
00F0006080000000F0
00F0008060000000F0
00F000A04000A0F0F0
ENDCHAR
STARTCHAR  4ECE
ENCODING  20174
SWIDTH  1000 0
DWIDTH  10 0
BBX  10 10 0 -1
BITMAP
00002000000000200000
0000E000000000F00000
0000E000000000F00000
0000F000000000F00000
0030FF40000030FF3000
0080E080000080E08000
00E030E00000E030E000
20E000C03020E000E030
80800080808080008080
A0200030C0A0400020C0
ENDCHAR
STARTCHAR  4ED1
ENCODING  20177
SWIDTH  1000 0
DWIDTH  10 0
BBX  10 10 0 -1
BITMAP
00000000001000000000
00000030C0F080100000
001080E06010A0E06000
30E0801000000030C0A0
20208000000000000040
0000F000104080C0E020
0000F080E0A060300000
0000F010000000000000
0000F000000000000000
0000F0F0F0F0F0F0F030
ENDCHAR
STARTCHAR  4ED3
ENCODING  20179
SWIDTH  1000 0
DWIDTH  10 0
BBX  11 10 -1 -1
BITMAP
0000000000400000000000
00000040E0E0E040000000
0020A0E0400040C0C03000
20E060000000000060E040
1010E0F0F0F0F0F0E01010
0000F00000000000F00000
0000F030F0F0F0F0F00000
0000F00000000000000000
0000F00000000000000000
0000E0F0F0F0F0F0F0C000
ENDCHAR
STARTCHAR  4ED4
ENCODING  20180
SWIDTH  1000 0
DWIDTH  10 0
BBX  10 10 0 -1
BITMAP
00000000000000000000
00808040F0F0F0F0E000
00E01000000010E06000
60A000000000A0800000
806000000000F0000000
00E000F0F0F0FFF0F080
00E000000000F0000000
00E000000000F0000000
00E000000000F0000000
00E00000C0F0F0000000
ENDCHAR
STARTCHAR  4ED5
ENCODING  20181
SWIDTH  1000 0
DWIDTH  10 0
BBX  10 9 0 -1
BITMAP
00E020000000F0000000
20E000000000F0000000
808000F0F0F0FFF0F080
A06000000000F0000000
00E000000000F0000000
00E000000000F0000000
00E000000000F0000000
00E00000000080000000
00E000E0F0F0F0F0F080
ENDCHAR
STARTCHAR  4ED6
ENCODING  20182
SWIDTH  1000 0
DWIDTH  10 0
BBX  10 9 0 -1
BITMAP
00A000A00000E0002000
20C000F00010F0C0FF00
806030F0E0E0F030F000
A060A0F02000E000F000
00E000F00000E000F000
00E000F00000E000F000
00E000F00000E000A000
00E000F0000000000000
00E000E0E0E0E0E0E010
ENDCHAR
STARTCHAR  4ED7
ENCODING  20183
SWIDTH  1000 0
DWIDTH  10 0
BBX  10 11 0 -2
BITMAP
00000000000000001000
00E0400000000000F000
20E020E0E0E0E0E0FFA0
8080008000000000F000
A06000E000000000F000
00E000E000000000F000
00E000A0C04030C0C000
00E0000060FFFF800000
00E00060E08060E0A020
00E000C02000000060A0
00000000000000000000
ENDCHAR
STARTCHAR  4ED8
ENCODING  20184
SWIDTH  1000 0
DWIDTH  10 0
BBX  11 10 0 -1
BITMAP
0000000000000000100000
0000C04000000000E00000
0030E030F0F0F0F0FFF010
00A0600020100000E00000
10C0300080600000E00000
0000F00040A00000E00000
0000F00000E00000E00000
0000F00000C03000E00000
0000F00000201000E00000
0000F0000000E0F0F00000
ENDCHAR
STARTCHAR  4ED9
ENCODING  20185
SWIDTH  1000 0
DWIDTH  10 0
BBX  9 10 0 -1
BITMAP
001000000000100000
00E020100000F00010
30E000F00000F000F0
808000F00000F000F0
A06000F00000F000F0
00F000F00000F000F0
00F000F00000F000F0
00F000F00000F000F0
00F000F000006000F0
00F000E0E0E0E0E0F0
ENDCHAR
STARTCHAR  4EDD
ENCODING  20189
SWIDTH  1000 0
DWIDTH  10 0
BBX  11 9 0 -1
BITMAP
0000000060C06000000000
000040E0A040A0E0400000
10C0C03000000040C0C000
1040000000000000004000
00F0F0F0F0F0F0F0F02000
0000000000F00000000000
0000000000F00000000000
0000000000600000000000
00F0F0F0F0F0F0F0F0E000
ENDCHAR
STARTCHAR  4EDE
ENCODING  20190
SWIDTH  1000 0
DWIDTH  10 0
BBX  9 11 0 -2
BITMAP
000000000000000000
00E010E0F0F0F0F0F0
30C0000000A00000E0
808000E010E00000E0
A06010E030C00000E0
00F040A060800000E0
00F0608080600000E0
00F00000C0300000E0
00F00000E0000000E0
00F00010E00080F0F0
000000001000000000
ENDCHAR
STARTCHAR  4EDF
ENCODING  20191
SWIDTH  1000 0
DWIDTH  10 0
BBX  10 10 0 -1
BITMAP
00000000000000000000
00A0806080A0A0C0E060
00E01060604080302000
60A000000000F0000000
806000000000F0000000
00F000F0F0F0FFF0F080
00F000000000F0000000
00F000000000F0000000
00F000000000F0000000
00F000000000F0000000
ENDCHAR
STARTCHAR  4EE1
ENCODING  20193
SWIDTH  1000 0
DWIDTH  10 0
BBX  10 9 0 -1
BITMAP
008030C0000000000000
00E000E0F0F0F0F0F020
40A00000000000000000
A06000A0F0F0F0F0FF00
00F00000000020E04000
00F000000040E0300000
00F0000060E020000000
00F00080E02000000000
00F000E0E0E0E0E0E020
ENDCHAR
STARTCHAR  4EE3
ENCODING  20195
SWIDTH  1000 0
DWIDTH  10 0
BBX  11 10 -1 -1
BITMAP
0000101000001010000000
0000A060000080A000E000
0020E000000030E000F000
00808000000000F0200000
10E01030F0F0F0FFF0F030
0000E00000000060A00000
0000F00000000030E00000
0000F00000000000E02000
0000F00000000000A06000
0000E0000000000060A000
ENDCHAR
STARTCHAR  4EE4
ENCODING  20196
SWIDTH  1000 0
DWIDTH  10 0
BBX  11 10 -1 -1
BITMAP
0000000000600000000000
00000020C0E0A010000000
000040E0600080E0200000
0060E04000E00060E04000
20C0200000F0000030E030
1000000000000000001020
0000F0F0F0F0F0F0F0E000
0000000000000010E04000
00000000000000A0800000
00000060F0F0F0E0100000
ENDCHAR
STARTCHAR  4EE5
ENCODING  20197
SWIDTH  1000 0
DWIDTH  10 0
BBX  10 10 1 -1
BITMAP
00001000000040000000
E000A0400000E0000000
E00080800000E0000000
E00060A00000E0000000
E00030C00000E0000000
E00010F00060FF300000
E000008010E080A00000
E000000060A000E03000
FFE0E040E0300060A000
0000006080000000C010
ENDCHAR
STARTCHAR  4EE8
ENCODING  20200
SWIDTH  1000 0
DWIDTH  10 0
BBX  10 10 0 -1
BITMAP
00000000000000000000
00E030F0F0F0F0F0F030
20E00000000000000000
80800000000000000000
A0600000000000000000
00E000E0F0F0F0F0F020
00E00000000000000000
00E00000000000000000
00E00000000000000000
00E000F0F0F0F0F0F0C0
ENDCHAR
STARTCHAR  4EEA
ENCODING  20202
SWIDTH  1000 0
DWIDTH  10 0
BBX  10 10 0 -1
BITMAP
00000000000000000000
00C030A00000E000A000
10E000E00000E000E000
608000E00000E000E000
A06000E010006000F000
00E00080E02000A0A000
00E0000060E0A0C00000
00E0000000A0FF400000
00E00000A0C040E02000
00E000A0A0000040E020
ENDCHAR
STARTCHAR  4EEB
ENCODING  20203
SWIDTH  1000 0
DWIDTH  10 0
BBX  10 9 0 -1
BITMAP
0060600030E000000000
00E01000C04000000000
40A00030C000A0200000
806000C04060A0000000
00F030A000E020600000
00F00000808000C04000
00F00010E0100060A000
00F000A060000010E000
00F000E0E0E0E0E0E020
ENDCHAR
STARTCHAR  4EEC
ENCODING  20204
SWIDTH  1000 0
DWIDTH  10 0
BBX  9 10 0 -1
BITMAP
001000000000000000
00E02040A0A0F0F0F0
30E00040E0200000F0
808000E010000000F0
A06000E000000000F0
00F000E000000000F0
00F000E000000000F0
00F000E000000000F0
00F000E000000000F0
00F000E0000060F0F0
ENDCHAR
STARTCHAR  4EF0
ENCODING  20208
SWIDTH  1000 0
DWIDTH  10 0
BBX  9 10 0 -1
BITMAP
001000000000000000
00E020E0E080E0E0E0
30E000F00000F000E0
808000F00000F000E0
A06000F00000F000E0
00F000F00000F000E0
00F000F00000F000E0
00F000F00000F000E0
00F000F0F080F0E0F0
00E000000000F00000
ENDCHAR
STARTCHAR  4EF2
ENCODING  20210
SWIDTH  1000 0
DWIDTH  10 0
BBX  9 11 0 -2
BITMAP
000000000000200000
00A040000000F00000
10E000E0F0F0FFF0F0
608000F00000F000F0
A06000F00000F000F0
00F000F00000F000F0
00F000F00000F000F0
00F000F0F0F0FFE0FF
00F000000000F00000
00F000000000F00000
000000000000100000
ENDCHAR
STARTCHAR  4EF3
ENCODING  20211
SWIDTH  1000 0
DWIDTH  10 0
BBX  9 10 0 -1
BITMAP
000000000000000000
00E020F00000E00000
30E000F00000E00000
808000F0E080E0E0E0
A06000F00000E00000
00F000F00000E00000
00F000F00000E00000
00F000F00000E00000
00F000F00000E00000
00F000F0F080E0F0F0
ENDCHAR
STARTCHAR  4EF5
ENCODING  20213
SWIDTH  1000 0
DWIDTH  10 0
BBX  10 9 0 -1
BITMAP
00C030E0000000000000
20E000E0F0F0F0F0F020
808000000000A0000000
A06000000000F0000000
00F000000000F0000000
00F000F0F0F0FFF0F0A0
00F000000000F0000000
00F000000000F0000000
00F000000000F0000000
ENDCHAR
STARTCHAR  4EF6
ENCODING  20214
SWIDTH  1000 0
DWIDTH  10 0
BBX  10 10 0 -1
BITMAP
00000000000010000000
00C040800000F0000000
10E000F00000F0000000
808000E0F0F0FFF0F030
A06000000000F0000000
00F000000000F0000000
00F010F0F0F0FFF0F040
00F000000000F0000000
00F000000000F0000000
00F000000000F0000000
ENDCHAR
STARTCHAR  4EF7
ENCODING  20215
SWIDTH  1000 0
DWIDTH  10 0
BBX  10 10 0 -1
BITMAP
00000000000000000000
0060E00000A0E0000000
00E0400060C080A00000
40C00040F02000C06000
A06010E060000020E020
00F00000A00000A00000
00F00000E00000F00000
00F00000E00000F00000
00F00010E00000F00000
00F00020C00000F00000
ENDCHAR
STARTCHAR  4EFB
ENCODING  20219
SWIDTH  1000 0
DWIDTH  10 0
BBX  10 10 0 -1
BITMAP
00000000000000000000
00E020A0E0E0E0E0E060
30E000202010E0000000
808000000000E0000000
A06000000000E0000000
00F000F0F0F0FFF0F080
00F000000000E0000000
00F000000000E0000000
00F00000000000000000
00F000E0E0E0E0E0E060
ENDCHAR
STARTCHAR  4EFD
ENCODING  20221
SWIDTH  1000 0
DWIDTH  10 0
BBX  10 9 0 -1
BITMAP
00602000800020800000
00E01040C00000E02000
40C000A0400000808000
808010E000000020E000
C0A060A0FFF0F0FFA040
00F00010E00000F00000
00F00060800000F00000
00F00080400000F00000
00F000C01020F0F00000
ENDCHAR
STARTCHAR  4EFF
ENCODING  20223
SWIDTH  1000 0
DWIDTH  10 0
BBX  10 11 0 -2
BITMAP
00000000000000000000
00C060000000E0000000
10E020F0FFF0F0F0F040
80A00000E02000000000
A0600000FF0000000000
00F00030FFF0F0F0F000
00F00040C0000000F000
00F00080A0000000F000
00F000A060000000F000
00F000C0400060F0E000
00000010000000000000
ENDCHAR
STARTCHAR  4F01
ENCODING  20225
SWIDTH  1000 0
DWIDTH  10 0
BBX  11 10 0 -1
BITMAP
0000000000200000000000
00000030C0E0A010000000
000080E0400080E0600000
10E0801000800020A0E010
1030800000E00000003010
0000F00000E0F0F0F03000
0000F00000E00000000000
0000F00000E00000000000
0000F00000E00000000000
00E0E0E0E0E0E0E0E0E000
ENDCHAR
STARTCHAR  4F09
ENCODING  20233
SWIDTH  1000 0
DWIDTH  10 0
BBX  10 9 0 -1
BITMAP
008030000000C0000000
10E000F0F0F0F0F0F040
60A00000000000000000
A0800000FFF0F0FF0000
00F00000F00000F00000
00F00000F00000F00000
00F00000F00000F00000
00F00000F00000F00000
00F010E0E00000E0E060
ENDCHAR
STARTCHAR  4F0A
ENCODING  20234
SWIDTH  1000 0
DWIDTH  10 0
BBX  10 10 0 -1
BITMAP
00000000000000000000
00E040E0E0E0E0E0E000
20E0000000400000E000
6080000020C00000E000
C06000F0F0F0F0F0FFE0
00E0000080800000E000
00E000E0F0F0E0A0E000
00E00000C02000000000
00E00000E00000000000
00E00010E00000000000
ENDCHAR
STARTCHAR  4F0D
ENCODING  20237
SWIDTH  1000 0
DWIDTH  10 0
BBX  10 10 0 -1
BITMAP
00100000000000000000
00E040E0E0E0E0E0E040
30E00000C02000000000
80800000E01000000000
A06000E0FFF0F0F0E000
00F00010E0000000E000
00F00020E0000000E000
00F00040C0000000E000
00F00060A0000000E000
00F000E0E0E0E0C0E060
ENDCHAR
STARTCHAR  4F0E
ENCODING  20238
SWIDTH  1000 0
DWIDTH  10 0
BBX  10 10 0 -2
BITMAP
00E0200000E000000000
40E000E0E0FFE0E0E080
8080000000E000000000
A06010F0F0F0F0F0F000
00F0004000000000F000
00F000C0A01060E0A000
00F00000A0FFF0300000
00F00060E04080E0A020
00F000A0100000108080
00000000000000000000
ENDCHAR
STARTCHAR  4F0F
ENCODING  20239
SWIDTH  1000 0
DWIDTH  10 0
BBX  10 10 0 -1
BITMAP
00000000001000000000
00E0000000E00000F000
30C0000000E000002000
8080A0E0E0FFE0E0E000
A060000000E000000000
00F0000040FF60000000
00F00000C060E0100000
00F00060A00030800000
00F000E0200000603000
00F08080000000006000
ENDCHAR
STARTCHAR  4F10
ENCODING  20240
SWIDTH  1000 0
DWIDTH  10 0
BBX  10 10 0 -1
BITMAP
00000000000010000000
000080800010F01000E0
0020E0100000A0600080
00A08000002080E080C0
10C04030F0E0C0F08040
0000E000000000A06000
0000E00000000030E0C0
0000E000001060C0FF60
0000E00080E0A0308060
0000E0006010000030C0
ENDCHAR
STARTCHAR  4F11
ENCODING  20241
SWIDTH  1000 0
DWIDTH  10 0
BBX  10 11 0 -2
BITMAP
00100000000010000000
00E030000000F0000000
20E000F0F0F0FFF0F080
808000002000F0001000
A0600010E000F010E000
00E00040A000F000E000
00E000808000F000C020
00E000A04000F0008060
00E000E02000F0006080
00E010E00000F00030A0
00000000000000000000
ENDCHAR
STARTCHAR  4F17
ENCODING  20247
SWIDTH  1000 0
DWIDTH  10 0
BBX  10 10 0 -1
BITMAP
00000000101000000000
00001080E0E080100000
0060E0A0101080E06000
A0A0300000000030A0A0
1000E000000000F00010
0000F010000010F00000
0040FF60000060FF4000
00C060E00000E060C000
20E000C04040C000E020
80600040A0A040006080
ENDCHAR
STARTCHAR  4F18
ENCODING  20248
SWIDTH  1000 0
DWIDTH  10 0
BBX  10 9 0 -1
BITMAP
00800000A0600000E000
10A00000E04000008000
6060F0F0FFF0F0F0F000
A0600030E00080000000
00E00060C000F0000000
00E000A08000F0000000
00E000C06000F0000000
00E000F03000F0000000
00E020F00000E0E0E000
ENDCHAR
STARTCHAR  4F19
ENCODING  20249
SWIDTH  1000 0
DWIDTH  10 0
BBX  10 11 0 -2
BITMAP
00000000000000000000
00E030C02000F0006060
30E000C04000F000A060
808000A06000F000A040
A06000A08000F000C030
00F000808000F000C020
00F000000080F0600000
00F0000040E030E02000
00F00030E0200060C000
00F010E040000000A080
00100000000000000000
ENDCHAR
STARTCHAR  4F1A
ENCODING  20250
SWIDTH  1000 0
DWIDTH  10 0
BBX  10 10 0 -1
BITMAP
00000000201000000000
000010A0E0E060000000
1080E0801020C0C02000
E0A0100000000060E010
2010F0F0F0F0F0F01000
00000000000000000000
F0F0F0F0F0F0F0F0F020
0000A010000000400000
0060A000000000C04000
00E0F0F0F0F0F0F08000
ENDCHAR
STARTCHAR  4F1B
ENCODING  20251
SWIDTH  1000 0
DWIDTH  10 0
BBX  10 10 0 -1
BITMAP
00100000000000000000
00E030E0E0E0E0E0E080
30E000F060C00000E040
808000F000C04060A000
A06000F00020E0E02000
00F000F00000C0C00000
00F000F00080A0C06000
00F000F040E01010E030
00F000F0000000000000
00F000E0E0E0E0E0E080
ENDCHAR
STARTCHAR  4F1E
ENCODING  20254
SWIDTH  1000 0
DWIDTH  10 0
BBX  11 11 -1 -2
BITMAP
0000000000400000000000
00000040E0E0E040000000
0030C0E0400040C0C03000
10E0800000F0000080E020
0010E01000F00000E01000
0000A04000F00030C00000
0000608000F00080800000
00F0F0F0F0FFF0F0F0F000
0000000000F00000000000
0000000000F00000000000
0000000000200000000000
ENDCHAR
STARTCHAR  4F1F
ENCODING  20255
SWIDTH  1000 0
DWIDTH  10 0
BBX  10 10 0 -1
BITMAP
00000000001000000000
00E0200000F000000000
20E000E0E0FFE0E0E080
6080000000F000000000
C06010E0E0FFE0E0E010
00F0000000F000000000
00F030F0F0FFF0F0FF00
00F0000000F00000F000
00F0000000F020F0FF00
00F0000000F000000000
ENDCHAR
STARTCHAR  4F20
ENCODING  20256
SWIDTH  1000 0
DWIDTH  10 0
BBX  10 10 0 -1
BITMAP
00000000000000000000
00A04000608000000000
10E000C0F0F0F0F0F000
60A00000C02000000000
A06030F0FFF0F0F0F040
00F00020C00000000000
00F00060F0F0F0F08000
00F00000000000806000
00F00000000000C03000
00F00040E0E0E0E00000
ENDCHAR
STARTCHAR  4F22
ENCODING  20258
SWIDTH  1000 0
DWIDTH  10 0
BBX  10 10 0 -1
BITMAP
00000000000000000000
00C040F0F0F0F0F0F060
10E0008000000000F000
608000F000000000F000
A06000F000000000F000
00F000E0F0F0F080FF60
00F00010C0100000F000
00F00060C0000000F000
00F000A040000000F000
00F000C0000060F0E000
ENDCHAR
STARTCHAR  4F24
ENCODING  20260
SWIDTH  1000 0
DWIDTH  10 0
BBX  10 10 0 -1
BITMAP
00000000100000000000
00806000F00000000000
00E01000FFF0F0F0F0E0
60A00000006000000000
806000C0E0F0E0E0E000
00F0000020A00000F000
00F0000040800000F000
00F0000060600000F000
00F0000080400000F000
00F00000A03080E0E000
ENDCHAR
STARTCHAR  4F25
ENCODING  20261
SWIDTH  1000 0
DWIDTH  10 0
BBX  10 9 0 -1
BITMAP
00803000C00000406000
00E00000E00000A02000
60A00000E00020C00000
C0800000E00040400000
00F0A0F0FFF0F0F0F000
00F00000E00040600000
00F00000E00000E00000
00F00000E00000806000
00F00000F0F08010C000
ENDCHAR
STARTCHAR  4F26
ENCODING  20262
SWIDTH  1000 0
DWIDTH  10 0
BBX  10 10 0 -1
BITMAP
00001000000000000000
0060C00010C0C0200000
00E04020E06060E06000
40C000E040000020C080
80600080000000000030
00F000E0000010408040
00F000E060E0E0A06020
00F000E0201000000000
00F000E0000000000000
00F000E0F0F0F0F0F080
ENDCHAR
STARTCHAR  4F27
ENCODING  20263
SWIDTH  1000 0
DWIDTH  10 0
BBX  10 10 -1 -1
BITMAP
00000000000000000000
0000A030000080E02000
0020E00020C0C060E010
00806040F080000060C0
00C04080400000000080
0000F000E0F0F0F0F0F0
0000F000E000000000F0
0000F000E00060F0F0E0
0000F000E00000000000
0000F000E0E0E0E0E080
ENDCHAR
STARTCHAR  4F2A
ENCODING  20266
SWIDTH  1000 0
DWIDTH  10 0
BBX  9 10 0 -2
BITMAP
00E020E000E0200000
20C000A040E0000000
808080F0F0FFF0F0F0
A0600000A0600000F0
00F00000E060A000F0
00F00020E010E000F0
00F00060A000A040F0
00F000A060000000F0
00F000E01020E0E0E0
000000100000000000
ENDCHAR
STARTCHAR  4F2B
ENCODING  20267
SWIDTH  1000 0
DWIDTH  10 0
BBX  10 9 0 -1
BITMAP
00A080000000E0000000
10F010E0F0F0F0F0F000
60A000F000000000F000
A06000F000000000F000
00F00020000000002000
00F00000000000000000
00F00000000000000000
00F00000000000000000
00F000F0F0F0F0F0F080
ENDCHAR
STARTCHAR  4F2F
ENCODING  20271
SWIDTH  1000 0
DWIDTH  10 0
BBX  9 9 0 -1
BITMAP
00A040000020C00000
10F000F0F0F0F0F0FF
60A000F000000000E0
808000F000000000E0
00E000F060F0F0F0E0
00E000F000000000E0
00E000F000000000E0
00E000F000000000E0
00E000E0F0F0F0F0E0
ENDCHAR
STARTCHAR  4F30
ENCODING  20272
SWIDTH  1000 0
DWIDTH  10 0
BBX  9 10 0 -1
BITMAP
001000000000100000
00E010000000F00000
30C0A0F0F0F0FFF0F0
806000000000F00000
A04000000000F00000
00F000E0F0F0FFF0E0
00F000E000000000E0
00F000E000000000E0
00F000E000000000E0
00F000E0E0E0E0A0E0
ENDCHAR
STARTCHAR  4F32
ENCODING  20274
SWIDTH  1000 0
DWIDTH  10 0
BBX  10 10 0 -1
BITMAP
00100000000000000000
00E020F0F0F0F0F0F000
30E000E000000000F000
808000E000000000F000
A06000FFE0E0E0E0E000
00F000E000E000001020
00F000E000F060C0E060
00F000E000F060300000
00F000E000F000000000
00F000E000E0E0E0E080
ENDCHAR
STARTCHAR  4F34
ENCODING  20276
SWIDTH  1000 0
DWIDTH  10 0
BBX  10 11 -1 -2
BITMAP
00001000000010000000
0000E040A000F00060A0
0040A010E000F000A060
00A06000C020F000E020
00E020000000F0000000
0000F060E0E0FFE0E0C0
0000F0000000F0000000
0000F080F0F0FFF0F0F0
0000F0000000F0000000
0000F0000000F0000000
00001000000010000000
ENDCHAR
STARTCHAR  4F36
ENCODING  20278
SWIDTH  1000 0
DWIDTH  10 0
BBX  10 10 0 -1
BITMAP
00000000001000000000
00A0400040F080000000
10E00010E030E0400000
60A000A060C030E02000
A06060C000F00080C000
00E01000000000001000
00E000E0F0F0F0FF6000
00E00000000010F01000
00E00000000060C00000
00E00000E0F0F0600000
ENDCHAR
STARTCHAR  4F38
ENCODING  20280
SWIDTH  1000 0
DWIDTH  10 0
BBX  9 11 0 -2
BITMAP
001000000000100000
00E020000000E00000
20E000F0E0E0FFE0FF
608000E00000E000F0
C06000E00000E000F0
00F000E0A0F0FFF0F0
00F000E00000E000F0
00F000E00000E000F0
00F000E0F0F0FFF0E0
00F000000000E00000
000000000000000000
ENDCHAR
STARTCHAR  4F3A
ENCODING  20282
SWIDTH  1000 0
DWIDTH  10 0
BBX  9 10 0 -1
BITMAP
001000000000000000
00E040F0F0F0F0F0F0
30E0000000000000F0
808000F0F0F0F0E0F0
A060000000000000F0
00F000FFF0F0FF00F0
00F000E00000E000F0
00F000FFF0F0F000F0
00F0000000000000F0
00F000000030F0F0F0
ENDCHAR
STARTCHAR  4F3C
ENCODING  20284
SWIDTH  1000 0
DWIDTH  10 0
BBX  10 11 0 -2
BITMAP
00100000000000100000
00E030E000E000F00000
20E000E000E000F00000
808000E000E000F00000
A06000E000E000F00000
00E000E000E000F00000
00E000E000E040FF4000
00E000E00030A080A000
00E000E00000E000E010
00E000F0F060A000A060
00000000000000000000
ENDCHAR
STARTCHAR  4F3D
ENCODING  20285
SWIDTH  1000 0
DWIDTH  10 0
BBX  9 9 0 -1
BITMAP
00C010804000000000
30E080FFF0F000FFFF
808000E020F000F0F0
A06000E010F000F0F0
00E000F000F000F0F0
00E010E000F000F0F0
00E020C000F000F0F0
00E040A000F000F0F0
00E060A0A0E000E0F0
ENDCHAR
STARTCHAR  4F43
ENCODING  20291
SWIDTH  1000 0
DWIDTH  10 0
BBX  9 10 0 -1
BITMAP
000000000000000000
00E020E0E0E0E0E0E0
30E000F00030A000E0
808000F00030C000E0
A06000F00030C000E0
00F000F080F0FFF0E0
00F000F00030C000E0
00F000F00030C000E0
00F000F000000000E0
00F000E0E0E0E0E0E0
ENDCHAR
STARTCHAR  4F46
ENCODING  20294
SWIDTH  1000 0
DWIDTH  10 0
BBX  10 10 0 -1
BITMAP
00000000000000000000
00E030E0F0F0F0F0F000
30E000E000000000F000
808000E000000000F000
A06000E020F0F0F0F000
00F000E000000000F000
00F000E000000000F000
00F000E0F0F0F0F0E000
00F00000000000000000
00F000E0E0E0E0E0E080
ENDCHAR
STARTCHAR  4F4D
ENCODING  20301
SWIDTH  1000 0
DWIDTH  10 0
BBX  10 10 0 -1
BITMAP
00000000000010000000
00A060000000F0000000
10E020F0F0F0F0F0F060
60A000A060000000E000
A060008080000000E000
00E00060A0000020C000
00E00030E0000040A000
00E00010F00000608000
00E00000000000000000
00E020E0E0E0E0E0E060
ENDCHAR
STARTCHAR  4F4E
ENCODING  20302
SWIDTH  1000 0
DWIDTH  10 0
BBX  10 10 0 -1
BITMAP
00100000000000000000
00F010E0F0F0F0F0F010
40C000F0000000400000
808000F0000000E00000
A06000F0000000E02000
00F000FFF0F0F0F0F040
00F000F0000000808000
00F000F000408040A000
00F000F00020C010E000
00F000E0F020E000E000
ENDCHAR
STARTCHAR  4F4F
ENCODING  20303
SWIDTH  1000 0
DWIDTH  10 0
BBX  10 10 0 -1
BITMAP
00100000000010000000
00E020000000F0000000
30E000F0F0F0FFF0F040
808000000000F0000000
A06000000000F0000000
00F000E0F0F0FFF0F040
00F000000000F0000000
00F000000000F0000000
00F00000000020000000
00F010F0F0F0F0F0F060
ENDCHAR
STARTCHAR  4F50
ENCODING  20304
SWIDTH  1000 0
DWIDTH  10 0
BBX  10 11 0 -2
BITMAP
00101000401000000000
00C06020FF2000000000
20F010F0FFF0F0F0F0A0
80A00060A00000000000
A0600080800000000000
00F000A080E0E0E0E040
00F000C0200000800000
00F000E0000000F00000
00F000C0000000F00000
00E02080E0F0F0F0F000
00000000000000000000
ENDCHAR
STARTCHAR  4F51
ENCODING  20305
SWIDTH  1000 0
DWIDTH  10 0
BBX  10 10 0 -1
BITMAP
00201000101000000000
00E03000A06000000000
30E000F0FFF0F0F0F0A0
80800020C00000000000
A0600060800000000000
00F000A0FFF0F0F0FF00
00F000E0F0000000E000
00F00060F0000000E000
00F00000F0000000E000
00F00000E0E0E0C0E000
ENDCHAR
STARTCHAR  4F53
ENCODING  20307
SWIDTH  1000 0
DWIDTH  10 0
BBX  10 10 0 -1
BITMAP
00000000001000000000
00E0000000F000000000
30C0A0E0E0FFE0E0E000
8080003020F000401000
A06000C030F000806000
00F000E000F000608000
00F010E000F00030A000
00F040A000F00010C000
00F08080F0FFF0C0E000
00F0A04000F00000A010
ENDCHAR
STARTCHAR  4F55
ENCODING  20309
SWIDTH  1000 0
DWIDTH  10 0
BBX  10 10 0 -1
BITMAP
00100000000000000000
00E020E0E0E0E0E0E060
30E00000000000008000
808000E0F0F0E000E000
A06000E00000E000E000
00F000E00000E000E000
00F000E00000E000E000
00F000E0F080E000E000
00F0000000000000E000
00F0000000A0F0F0F000
ENDCHAR
STARTCHAR  4F57
ENCODING  20311
SWIDTH  1000 0
DWIDTH  10 0
BBX  10 9 0 -1
BITMAP
008020000000A0000000
20E000FFF0F0F0F0FF00
608000E000000000F000
A0600060800000006000
00F00000E00000000000
00F00000E0F0F0F0F020
00F00000E00000000000
00F00000E00000000000
00F00000E0E0E0E0E020
ENDCHAR
STARTCHAR  4F58
ENCODING  20312
SWIDTH  1000 0
DWIDTH  10 0
BBX  10 10 0 -1
BITMAP
00000000000000000000
00000060E0A020000000
0040E0A02060E0A02000
80C0300000001060E060
3010E0E0E0E0E0E01030
00000000000000000000
A0E0E0E0FFE0E0E0E000
00204000F00020800000
00C04000F00000C06000
60A000F0FF000020C010
ENDCHAR
STARTCHAR  4F59
ENCODING  20313
SWIDTH  1000 0
DWIDTH  10 0
BBX  10 9 0 -1
BITMAP
0000001080E060000000
001080E0A040C0C03000
40E0A02000000060E080
3020F0F0F0F0F0F06040
0000000000E000000000
00F0F0F0F0FFF0F0F0C0
0000601000E000402000
0040C00000E00030E000
00A02040F0E00000A060
ENDCHAR
STARTCHAR  4F5A
ENCODING  20314
SWIDTH  1000 0
DWIDTH  10 0
BBX  10 10 0 -1
BITMAP
00000040000010000000
00C060F00000E0000000
10F000F0F0F0FFF0F060
60A000000000E0000000
A06000000000E0000000
00F000F0F0F0FFF0F080
00F000000080FF400000
00F0000030E040E01000
00F00010E03000808000
00F000A060000010E030
ENDCHAR
STARTCHAR  4F5B
ENCODING  20315
SWIDTH  1000 0
DWIDTH  10 0
BBX  9 9 0 -1
BITMAP
10F0100000E0E00000
40C020F0F0FFFFF0F0
8080000000F0F000F0
A06000F0F0FFFFF0FF
00F000E000F0F00000
00F000FFF0FFFFF0F0
00F000008080F000E0
00F00000C040F000E0
00F00010F000F00020
ENDCHAR
STARTCHAR  4F5C
ENCODING  20316
SWIDTH  1000 0
DWIDTH  10 0
BBX  11 10 -1 -1
BITMAP
0000000000000000000000
0000E01000E02000000000
0040A00020FFE0E0E0E030
00A060008060F000000000
00C03000E020F000000000
0000E020E000F080E0E000
0000E0001000F000000000
0000E0000000F080F0F000
0000E0000000F000000000
0000E0000000F000000000
ENDCHAR
STARTCHAR  4F5D
ENCODING  20317
SWIDTH  1000 0
DWIDTH  10 0
BBX  9 9 0 -1
BITMAP
00C010C00000000000
20E000E0F0F0F0F0FF
6080000000000000E0
C06000E0F0F0FF00E0
10F000E00000E000E0
00F000E00000E000E0
00F000E0F0C0FF00E0
00F0000000000000E0
00F0000020F0F0F0F0
ENDCHAR
STARTCHAR  4F5E
ENCODING  20318
SWIDTH  1000 0
DWIDTH  10 0
BBX  10 11 0 -2
BITMAP
00000000000000000000
00E030F0F0F0F0F0F010
30E00000000000000000
808000F0F0F0F0F0F0A0
80600040000000000000
00F000F0F0F0F0F0F0A0
00F000F000000000F000
00F000E0C06060C0E000
00F00040F0F0F0F08010
00F000C080101040A080
00000000000000000000
ENDCHAR
STARTCHAR  4F5F
ENCODING  20319
SWIDTH  1000 0
DWIDTH  10 0
BBX  10 10 0 -1
BITMAP
00303060000000000000
00C030F0F0F0F0F0F000
10E0008000000000E000
608000E0A03020A0F000
A0600010A0FFFFC01000
00E020A0E08060C0E060
00E06080806030102040
00E0000080A0C0E0E000
00E000A0806040200000
00E000406080A0E0E000
ENDCHAR
STARTCHAR  4F60
ENCODING  20320
SWIDTH  1000 0
DWIDTH  10 0
BBX  10 10 0 -1
BITMAP
00000000000000000000
00C040E0F0F0F0F0F000
10E000F000000000F000
608000F000008000F000
A06000600000F0006000
00E00020C000F0602000
00E00060A000F0606000
00E000A06000F020A000
00E000F01000F000E000
00E030A000E0E000A020
ENDCHAR
STARTCHAR  4F63
ENCODING  20323
SWIDTH  1000 0
DWIDTH  10 0
BBX  9 10 0 -1
BITMAP
000000000000000000
00E040F0F0F0F0F0F0
20E000F000600000E0
808000F000F00000E0
A06000F0F0FFF0F0E0
00F000F000F00000E0
00F000F0F0FFF0F0E0
00F000F000F00000E0
00F000F000F00000E0
00F000E000F000C0F0
ENDCHAR
STARTCHAR  4F64
ENCODING  20324
SWIDTH  1000 0
DWIDTH  10 0
BBX  10 10 0 -1
BITMAP
00000000000000000000
00E040F0F0F0F0F0F0C0
30E000F0000000000000
808000F0F0F0F0F0E000
A06000F000E01000F000
00E000F000C03000F000
00E000F000A06000F000
00E000F000808000F000
00E000F000000000F000
00E000E0E0E0E010E0C0
ENDCHAR
STARTCHAR  4F65
ENCODING  20325
SWIDTH  1000 0
DWIDTH  10 0
BBX  11 10 0 -1
BITMAP
0000000010200000000000
00000040E0E08010000000
0010A0E0301080E0600000
10E0800000000020A0E010
1030F0F0F0F0F0F0304010
00803000C0300010F02000
0060800080600060A00000
0020C00040A000C0400000
0000000000000000000000
00E0E0E0E0E0E0E0E0E000
ENDCHAR
STARTCHAR  4F67
ENCODING  20327
SWIDTH  1000 0
DWIDTH  10 0
BBX  10 11 0 -2
BITMAP
00203000004000000000
00C0800000E000000000
10F0200000F0F0F0F030
60C0000000E000000000
808000F0F0FFF0F0F0E0
00E00000004000000000
00E0000000E080400000
00E0000000E040C0E060
00E0000000E000003080
00E0000000E000000000
00000000000000000000
ENDCHAR
STARTCHAR  4F69
ENCODING  20329
SWIDTH  1000 0
DWIDTH  10 0
BBX  10 10 0 -1
BITMAP
00100000000000000000
00E040F0F0F0F0F0E000
30E000F000000000F000
808000F0F0F0F0C0F000
A06000F000F00000F000
00E000F0FFFFE0F0F000
00E000F0F0F000F0F000
00E000F0F0F000F0F000
00E000F0F0F000F0F000
00E000E060C00060E060
ENDCHAR
STARTCHAR  4F6C
ENCODING  20332
SWIDTH  1000 0
DWIDTH  10 0
BBX  10 10 0 -1
BITMAP
00304000006000000000
00E0800000F000000020
20FF30F0F0FFF04080A0
80A0000000F030C06000
A06000F0F0FFFFF0F0C0
00F0000080C010000000
00F00060F01000000000
00F000C0F0C0F0F0F000
00F00010F00000000000
00F00000F0F0F0F0F0A0
ENDCHAR
STARTCHAR  4F6F
ENCODING  20335
SWIDTH  1000 0
DWIDTH  10 0
BBX  10 11 0 -2
BITMAP
00201010400000102000
00A02000F02000804000
10C020F0FFF0F0F0F020
80600000000060000000
A04000000000F0000000
00F010F0F0F0FFF0F000
00F000000000F0000000
00F080F0F0F0FFF0F000
00F000000000F0000000
00F000000000F0000000
00000000000010000000
ENDCHAR
STARTCHAR  4F70
ENCODING  20336
SWIDTH  1000 0
DWIDTH  10 0
BBX  10 10 -1 -1
BITMAP
00002000000000000000
0020E080F0F0F0F0F0F0
0060A0000000C0300000
00A06000F0F0FFF0F0E0
00F01000F000000000F0
0000F000F000000000F0
0000F000F0F0F0F060F0
0000F000F000000000F0
0000F000F000000000F0
0000E000E0E0E0E0A0E0
ENDCHAR
STARTCHAR  4F73
ENCODING  20339
SWIDTH  1000 0
DWIDTH  10 0
BBX  10 9 0 -1
BITMAP
00E030000000F0000000
30E000E0F0F0FFF0F000
808000000000E0000000
A06000E0E0E0E0E0E080
00F00000000000000000
00F000000000F0000000
00F000E0F0F0FFF0F000
00F000000000F0000000
00F000E0E0E0E0E0E080
ENDCHAR
STARTCHAR  4F74
ENCODING  20340
SWIDTH  1000 0
DWIDTH  10 0
BBX  10 10 0 -1
BITMAP
00000000000000000000
00E060F0F0F0F0F0F040
20F000F000000000F000
80A000F010F0F0F0F000
A06000F000000000F000
00E000F000000000F000
00E000F010F0F0F0F000
00E000F000000000F000
00E000F0F0F0F0E0FF40
00E0000000000000F000
ENDCHAR
STARTCHAR  4F76
ENCODING  20342
SWIDTH  1000 0
DWIDTH  10 0
BBX  10 9 0 -1
BITMAP
00C040000000E0000000
20F000F0F0F0FFF0F0A0
80A000000000F0000000
A06020F0F0F0FFF0F030
00E00000000000000000
00E000E0E0E0E0E0E000
00E000E000000000F000
00E000E000000000F000
00E000E0F0F0F0C0E000
ENDCHAR
STARTCHAR  4F7B
ENCODING  20347
SWIDTH  1000 0
DWIDTH  10 0
BBX  10 10 0 -1
BITMAP
00000000000000000000
00E08030F000E0004000
20C06060F000E020E000
608030A0F000E0608000
C06000C0F000E0A04000
00F00000F000E0C04000
00F000C0F000E0608000
00F030A0F000E020E000
00F06060F000E0002000
00F08030F000E0E0E010
ENDCHAR
STARTCHAR  4F7C
ENCODING  20348
SWIDTH  1000 0
DWIDTH  10 0
BBX  10 9 0 -1
BITMAP
00604000000080000000
10E020E0E0E0E0E0E030
60A00000A06000A02000
A0600060E0000040A000
00F010E040000010C020
00F00010C0A020E04000
00F0000000C0FF600000
00F0000080E080E01000
00F010A0C0100060E010
ENDCHAR
STARTCHAR  4F7E
ENCODING  20350
SWIDTH  1000 0
DWIDTH  10 0
BBX  10 9 0 -1
BITMAP
00E02030E00020E00000
20E000A0600000808000
808020E000000010E010
A06080FFE0E0E0E0FF80
00E000F000000000E000
00E000F0C0F0F000E000
00E000F0C0F0F000E000
00E000F000000000E000
00E000E00000A0F0E000
ENDCHAR
STARTCHAR  4F7F
ENCODING  20351
SWIDTH  1000 0
DWIDTH  10 0
BBX  10 11 0 -2
BITMAP
00000000000010000000
00A060000000F0000000
10F010F0F0F0FFF0F080
60A000F0F0F0FFF0F000
A06000E00000F000F000
00F000E00000F000F000
00F000F0F0F0F0E0E000
00F000C060E030000000
00F00030F0C0E0803000
00F000A060001060A080
00000000000000000000
ENDCHAR
STARTCHAR  4F83
ENCODING  20355
SWIDTH  1000 0
DWIDTH  10 0
BBX  10 11 0 -2
BITMAP
00000000000000000000
00E020E0F0F0F0F0F000
10E000F000000000E000
60A000F000000000E000
808000F0F0F0F0C0FF00
00E00020204000004000
00E0008040F00000F000
00E000C020F00000F000
00E000E000F00000F000
00E010E000F00000F0E0
00000010000000000000
ENDCHAR
STARTCHAR  4F84
ENCODING  20356
SWIDTH  1000 0
DWIDTH  10 0
BBX  10 10 0 -1
BITMAP
00000000000000000000
00A040C0E0E0E0E0E040
10E00000C03000204000
60A00040E0000010E000
A06000A0F0F0F0F0FF20
00F00000000000000000
00F000102020E0202000
00F000C0E0E0FFE0E030
00F000000000E0000000
00F000E0E0E0E0E0E060
ENDCHAR
STARTCHAR  4F88
ENCODING  20360
SWIDTH  1000 0
DWIDTH  10 0
BBX  10 9 0 -1
BITMAP
00C06030E0F0F0F0F020
10F010E060000020C000
60A0106020E0E0806000
C04030F0F0F0F0E00000
00C00000000000000000
00E00040F0F0F0F0FF40
00E0008040E0E020E000
00E00000000000806000
00E010F0F0F0F0E01000
ENDCHAR
STARTCHAR  4F89
ENCODING  20361
SWIDTH  1000 0
DWIDTH  10 0
BBX  10 10 0 -1
BITMAP
00301000004000000000
00E0100000E000000000
30C030F0F0FFF0F0F030
80801080C060C0C06010
A0606080F0E0E0FF8040
00F00000000000000000
00F020F0FFF0F0F0F010
00F00000FFF0F0F0E000
00F0000000000000F000
00F0000000F0F0F0E000
ENDCHAR
STARTCHAR  4F8B
ENCODING  20363
SWIDTH  1000 0
DWIDTH  10 0
BBX  9 10 0 -1
BITMAP
000000000000000010
00E0A0F0F0F00000E0
30C000E0600000E0E0
808010FFF0E000E0E0
A06030FF10A000E0E0
00F060E000A000E0E0
00F080C080C000E0E0
00F0808000A000E0E0
00F0000010A00010E0
00F060F0F08000E0F0
ENDCHAR
STARTCHAR  4F8D
ENCODING  20365
SWIDTH  1000 0
DWIDTH  10 0
BBX  10 9 0 -1
BITMAP
00C030000000E0000000
20E010F0F0F0FFF0F040
608000000000E0000000
C06000F0F0F0F0F0F0C0
00E0000000000000F000
00E020E0E0E0E0E0FF40
00E0004060000000F000
00E00030E0000000F000
00E00000A010A0F0E000
ENDCHAR
STARTCHAR  4F8F
ENCODING  20367
SWIDTH  1000 0
DWIDTH  10 0
BBX  10 10 0 -1
BITMAP
00000010000010000000
00E030F00000F0000000
30E000F0E0E0FFE0E030
808000000000F0000000
A06000000000F0000000
00F000F0F0F0FFF0F0A0
00F00020A000F0404000
00F000608000F020E000
00F000C03000F000E030
00F000A00000F0008080
ENDCHAR
STARTCHAR  4F91
ENCODING  20369
SWIDTH  1000 0
DWIDTH  10 0
BBX  10 10 0 -1
BITMAP
00000000000000000000
00E03000601000000000
20E000E0FFE0E0E0E0A0
80800040C00000000000
A06000E0FFF0F0F0FF00
00F060E0FFF0F0F0F000
00F00000F0000000F000
00F00000FFF0F0F0F000
00F00000F0000000F000
00F00000E00060F0F000
ENDCHAR
STARTCHAR  4F94
ENCODING  20372
SWIDTH  1000 0
DWIDTH  10 0
BBX  10 9 0 -1
BITMAP
00A04000806000201000
10E01010E0100040C000
60A00080F0F0F0F0E020
A06000004000E0000000
00F00060A000F0000000
00F000E0F0F0FFF0F060
00F000000000F0000000
00F000F0F0F0FFF0F080
00F000000000F0000000
ENDCHAR
STARTCHAR  4F97
ENCODING  20375
SWIDTH  1000 0
DWIDTH  10 0
BBX  9 10 0 -1
BITMAP
001000000000000000
00E030E0E0E0E0E0E0
30E000F000000000E0
808000F0F0F0F040E0
A06000F000000000E0
00F000F0E0F0F020E0
00F000F0E0208020E0
00F000F0E0F0C020E0
00F000F000000000E0
00F000E0000060F0F0
ENDCHAR
STARTCHAR  4F9B
ENCODING  20379
SWIDTH  1000 0
DWIDTH  10 0
BBX  10 11 0 -2
BITMAP
00000000100000100000
00C04000F00000F00000
20E000E0FFE0E0FFE020
80800000F00000F00000
C0400000F00000F00000
00E00000600000600000
00E020F0F0F0F0F0F040
00E00000801010800000
00E00060A00000A04000
00E010E020000030E000
00100000000000000000
ENDCHAR
STARTCHAR  4F9D
ENCODING  20381
SWIDTH  1000 0
DWIDTH  10 0
BBX  10 10 0 -1
BITMAP
00000000000000000000
00A060000000F0000000
10F010F0F0F0F0F0F080
60A00000E01030100000
A0600010E08040800000
00F0006080F000E0C080
00F000A040F000A06000
00F000E010F00040A000
00F030C000F00010F010
00F0608000E0E000A060
ENDCHAR
STARTCHAR  4FA0
ENCODING  20384
SWIDTH  1000 0
DWIDTH  10 0
BBX  10 11 0 -2
BITMAP
00100000000020000000
00E080F0F0F0FFF0F000
30C000300000E0002000
808000F02000E000A000
A06000C06000E010A000
00E000302000E0102000
00E0A0E0E0F0FFE0E010
00E0000020E0C0800000
00E00030E06000C03000
00E030E040000020C000
00000000000000000000
ENDCHAR
STARTCHAR  4FA3
ENCODING  20387
SWIDTH  1000 0
DWIDTH  10 0
BBX  9 10 0 -1
BITMAP
000010000000000000
00A060E0F0F0F0F0F0
10E000F000000000F0
60A000F000000000F0
A06000E0F0F0F0C0F0
00F000000000000000
00F000FFF0F0F0F0FF
00F000F000000000F0
00F000F000000000F0
00F000F0F0F0F0F0F0
ENDCHAR
STARTCHAR  4FA5
ENCODING  20389
SWIDTH  1000 0
DWIDTH  10 0
BBX  10 10 0 -1
BITMAP
00000000101000000000
0080A01060E080A0C060
00F020C0A0A0E0606040
60A0003060A0FFE08030
806000E0804020E0F080
00F00000000000000000
00F000F0F0F0F0F0F0A0
00F00000C02000C00000
00F00030C00000E00000
00F000A0600000F0F0A0
ENDCHAR
STARTCHAR  4FA6
ENCODING  20390
SWIDTH  1000 0
DWIDTH  10 0
BBX  10 11 0 -2
BITMAP
00202000000060000000
00A040000000F0000000
10E000000000FFE0E060
60A000E0F0F0FFF0F000
806000F000002000E000
00F000F00000F000E000
00F000F00000F000E000
00F000601080FF606000
00F00060E08020C0A010
00F010C0200000008040
00000000000000000000
ENDCHAR
STARTCHAR  4FA7
ENCODING  20391
SWIDTH  1000 0
DWIDTH  10 0
BBX  9 10 0 -1
BITMAP
001000000000000010
00E040E0E0E010E0F0
20F000F040E010E0F0
60C000F0F0E010E0F0
808000F0F0E010E0F0
00E000F0F0E010E0F0
00E000F0F0E010E0F0
00E00080F06010E0F0
00E00080C0600000F0
00E000C020C000E0F0
ENDCHAR
STARTCHAR  4FA8
ENCODING  20392
SWIDTH  1000 0
DWIDTH  10 0
BBX  10 10 0 -1
BITMAP
00000000000000000000
00E040F0F0F0F0F0F000
30E0000000E000000000
8080000000E000000000
A06000E0FFF0FFFFF0A0
00F000A0800030C0C040
00F000A0800000E060A0
00F00040800000E00000
00F00060600000E00000
00F00080300000E00000
ENDCHAR
STARTCHAR  4FA9
ENCODING  20393
SWIDTH  1000 0
DWIDTH  10 0
BBX  10 10 0 -1
BITMAP
00000000000000000000
006080000080E0400000
00E02030E0A020C08000
40A020E0400000008060
80601010E0E0E0E0E010
00F00000000000000000
00F000E0E0E0E0E0E040
00F00000604000102000
00F00020F0100010E000
00F00080E0E0E0E0E020
ENDCHAR
STARTCHAR  4FAA
ENCODING  20394
SWIDTH  1000 0
DWIDTH  10 0
BBX  10 9 0 -1
BITMAP
008030000000A0000000
10F020F0F0F0F0F0F040
60A00040A0300040A000
8060000060F0F0A02000
00F010A0E06030A0C030
00F02060A02000A03030
00F00000E01000E00000
00F00000F00000E00000
00F00010E00000E00000
ENDCHAR
STARTCHAR  4FAC
ENCODING  20396
SWIDTH  1000 0
DWIDTH  10 0
BBX  10 9 0 -1
BITMAP
00A0400000C000000000
20F010FFF0F0F0F0FF00
60A000E060600000F000
A0600080A04080408000
00E00000C0F040C0E010
00E00010C0F000F06000
00E0004080F000806000
00E0008060F00030C000
00E000A020E0E000C020
ENDCHAR
STARTCHAR  4FAE
ENCODING  20398
SWIDTH  1000 0
DWIDTH  10 0
BBX  9 10 0 -1
BITMAP
004000800000000000
00C000F0F0F0F0F0E0
40A000000000000000
806000E0F0F0F0F0E0
A06000E000F08000E0
00F000E000000000E0
00F0E0FFE0E0E0E0FF
00F000E000E08000E0
00F000E000000000E0
00F000E0E0E0E0C0E0
ENDCHAR
STARTCHAR  4FAF
ENCODING  20399
SWIDTH  1000 0
DWIDTH  10 0
BBX  10 11 0 -2
BITMAP
00000000000000000000
00E00040F0F0F0F0E000
30C0000000000000F000
8080A0F0F0F0F0F0F000
A0600080000000000000
00E000F0F0F0F0F0C000
00E0000000C000000000
00E0A0F0F0FFF0F0F000
00E00060C080E0A02000
00E0808010000060C000
00000000000000000000
ENDCHAR
STARTCHAR  4FB5
ENCODING  20405
SWIDTH  1000 0
DWIDTH  10 0
BBX  10 10 0 -2
BITMAP
00E040E0E0E0E0E0E000
20E000C0E0E0E0A0F000
808000E0E0E0E0C0FF00
A0600000000000000000
00F000FFE0E0E0E0FF00
00F000FFE0E0E0E0FF00
00F000A080302080F000
00F00060E0FFFFF08020
00F000E0A0402060A080
00000000000000000000
ENDCHAR
STARTCHAR  4FBF
ENCODING  20415
SWIDTH  1000 0
DWIDTH  10 0
BBX  10 10 0 -1
BITMAP
00000000000000000000
00E060E0E0E0E0E0E0A0
20F000000000F0000000
808000FFF0F0FFF0FF00
C04000F0C0F0FFF0F000
00F000F00000F000F000
00F000E0E0F0F0E0E000
00F000C080E040000000
00F00040F0E0E0A04010
00E000A0A0001060A0A0
ENDCHAR
STARTCHAR  4FC3
ENCODING  20419
SWIDTH  1000 0
DWIDTH  10 0
BBX  10 10 0 -1
BITMAP
00000000000000000000
00A060E0E0E0E0E0E000
00E010F000000000E000
40C000F000000000E000
A06000F0F0F0F0A0E000
00C00010200040000000
00F000808000F0000000
00F000C04000FFE0E040
00F010F0C060F0000000
00F040A020A0E0E0E060
ENDCHAR
STARTCHAR  4FC4
ENCODING  20420
SWIDTH  1000 0
DWIDTH  10 0
BBX  9 10 0 -1
BITMAP
001000000000101000
00E000FFFFFF4080E0
30C00000E00030A0C0
8080C0E0FFE0E0F0E0
A0600000E00000E000
00E00000E01010C000
00E04080FFE020A060
00E08060F00080F0C0
00E00000E000408060
00E000F0E000006080
ENDCHAR
STARTCHAR  4FC5
ENCODING  20421
SWIDTH  1000 0
DWIDTH  10 0
BBX  10 10 0 -1
BITMAP
00201000000030002000
00E030000000F000F000
30E000F0F0F0FFF0FFA0
808000401000F0002030
A06000808000F000C030
00F00000E030F060A000
00F000006030F0403000
00F00010F010F040C000
00F00060A000F000E020
00F000C040C0E0008080
ENDCHAR
STARTCHAR  4FCA
ENCODING  20426
SWIDTH  1000 0
DWIDTH  10 0
BBX  10 11 0 -2
BITMAP
00302000602000100000
00C02040C00000E04000
10E010E0F0F0F0F0F020
60A00010606060601000
808080E0803040A0C060
00E000F0F0F0F0F0F000
00E0008020000020F000
00E00080E0C0A0E08000
00E00040C0E0C0E08020
00E000E0600000208080
00000000000000000000
ENDCHAR
STARTCHAR  4FCE
ENCODING  20430
SWIDTH  1000 0
DWIDTH  10 0
BBX  10 10 0 -1
BITMAP
00001000000000000000
0000F00000F0F0F0F000
0020F01000F00000E000
0080F08000F00000E000
10E030F020F0A0E0FF00
2040804030F00000E000
0010F00000F0C0F0FF00
0060FF6000F00000E000
00E060E000F00000E000
40A000C0A0F0F0F0FFE0
ENDCHAR
STARTCHAR  4FCF
ENCODING  20431
SWIDTH  1000 0
DWIDTH  10 0
BBX  10 9 0 -1
BITMAP
00E020A030606000C000
20E00080806060308000
808000E0F0F0F0F0F000
A06000F000000000F000
00F000F080F0F0F0F000
00F000F000000000F000
00F000F080F0F0F0F000
00F000F000000000F000
00F000E0000080F0F000
ENDCHAR
STARTCHAR  4FD0
ENCODING  20432
SWIDTH  1000 0
DWIDTH  10 0
BBX  9 10 0 -1
BITMAP
001000000000000010
00E0A0F0F0F00010E0
40A00000A00000F0E0
80600000F00000F0E0
C060C0F0FFF020F0E0
00F00080F08000F0E0
00F000E0F0E000F0E0
00F000E0F0E000F0E0
00F000E0F0E00000E0
00F000E0F0E000E0F0
ENDCHAR
STARTCHAR  4FD1
ENCODING  20433
SWIDTH  1000 0
DWIDTH  10 0
BBX  10 10 0 -1
BITMAP
00000000000000000000
00A080F0F0F0F0F0F040
10F01010E0400080A000
60A000F0F0F0F0FFF000
A06000F00000E000F000
00F000F0C0F0FFF0F000
00F000F00000E000F000
00F000F0C0F0FFF0F000
00F000F00000E000F000
00F000F00000F0E0F000
ENDCHAR
STARTCHAR  4FD7
ENCODING  20439
SWIDTH  1000 0
DWIDTH  10 0
BBX  10 10 0 -1
BITMAP
00000000000000000000
00E010108060A0400000
30C040E0801030E0A000
8080603020C080008000
A0600060E060A0C03000
00F0A0A010000040E030
00F010E0F0F0F0F0E010
00F000F000000000E000
00F000F000000000E000
00F000E0F0F0F080E000
ENDCHAR
STARTCHAR  4FD8
ENCODING  20440
SWIDTH  1000 0
DWIDTH  10 0
BBX  10 10 0 -1
BITMAP
00001000000000000000
00A080C0E0E0E0E0E080
00F020A010E01000E030
60C0006060A06060C000
80800000000000000000
00E000A0E0E0E0F0E000
00E00000000020E03000
00E000E0E0E0FFE0E0A0
00E000000000F0000000
00E00000A0F0F0000000
ENDCHAR
STARTCHAR  4FDA
ENCODING  20442
SWIDTH  1000 0
DWIDTH  10 0
BBX  10 10 0 -1
BITMAP
00100000000000000000
00E040F0F0F0F0F0F000
20F000E00000E000E000
80A000E0C0E0FFE0E000
A06000E00000E000E000
00E000F0F0F0FFF0F000
00E000000000E0000000
00E020E0E0E0FFE0E040
00E00000000040000000
00E000F0F0F0F0F0F0E0
ENDCHAR
STARTCHAR  4FDC
ENCODING  20444
SWIDTH  1000 0
DWIDTH  10 0
BBX  9 10 0 -1
BITMAP
002000000000400000
00A000F0F0F0FFF0F0
20A000E00000E000E0
606000E0C0E0FFE0E0
A06000FFE0E0FFE0F0
00F000000000000000
00F0E0FFE0E0E0E0E0
00F000E0F0F0F0F0E0
00F0000000000010E0
00F000000000C0E0C0
ENDCHAR
STARTCHAR  4FDD
ENCODING  20445
SWIDTH  1000 0
DWIDTH  10 0
BBX  9 10 0 -1
BITMAP
002000000000000000
00C000F0F0F0F0F0E0
20A000E000000000F0
808000E000000000F0
C04000E0E0E0E0C0E0
00F0000000E0000000
00F0E0F0F0FFF0F0F0
00F0003040F0008020
00F000E020F0006080
00F040A000F00000A0
ENDCHAR
STARTCHAR  4FDE
ENCODING  20446
SWIDTH  1000 0
DWIDTH  10 0
BBX  10 10 0 -1
BITMAP
00000000301000000000
000020A0E0E0A0300000
1080E060001060E0C060
308040F0F0F0F0F040A0
00F0F0F0F0000000E000
00F06060E000F000F000
00F06080E000F000F000
00F0C0F0E000F000F000
00F00000E0008000F000
00E030F0F00060F0F000
ENDCHAR
STARTCHAR  4FDF
ENCODING  20447
SWIDTH  1000 0
DWIDTH  10 0
BBX  10 11 0 -2
BITMAP
00402000602000000000
00F01030E01000806000
30E000C0F0F0F0F0E000
808000A0000000000000
A06000FFF0F0F0F0F030
00F000000000F0000000
00F000E0E0E0FFE0E0A0
00F0000010E0E0A00000
00F00000C08000E08000
00F000A080000020F040
00100000000000000000
ENDCHAR
STARTCHAR  4FE1
ENCODING  20449
SWIDTH  1000 0
DWIDTH  10 0
BBX  10 9 0 -1
BITMAP
00A030000000C0000000
20E000E0E0E0E0E0E0A0
608000F0F0F0F0F0F020
A0600000000000000000
00F000F0F0F0F0F0F020
00F00000000000000000
00F000F0F0F0F0F0FF00
00F000F000000000F000
00F000E0E0E0E0E0E000
ENDCHAR
STARTCHAR  4FE3
ENCODING  20451
SWIDTH  1000 0
DWIDTH  10 0
BBX  10 10 0 -1
BITMAP
00100000000000000000
00E020E0F0F0F0F0F000
30E000E000000000F000
808000E0F0F0F0C0FF00
A0600000000000000000
00F000F0F0F0FFF0F020
00F010F0F0F0FFF0F080
00F0000030C0F0A01000
00F00080E0600080E020
00F000A0100000004060
ENDCHAR
STARTCHAR  4FE6
ENCODING  20454
SWIDTH  1000 0
DWIDTH  10 0
BBX  10 9 0 -1
BITMAP
00A0400030C020000000
10F040E0FFF0E0E0E0A0
60C020F0FFF0F0F0F030
80800020FF1000000000
00F000F0F0F0F0F0F0C0
00F0008060000000E000
00F000C0C0E0E0E0FF00
00F000C0A0400000E000
00F0208080A040E0E000
ENDCHAR
STARTCHAR  4FE8
ENCODING  20456
SWIDTH  1000 0
DWIDTH  10 0
BBX  10 10 0 -1
BITMAP
00000000000000000000
00C040F0F0F0F0F0F060
20E000E010F000F06060
608000C030F000F08040
A060001000F000F01000
00F000FFF0F0F0F0F080
00F000F0000000000000
00F000F0000000000000
00F000F0000000000000
00E000F0000000000000
ENDCHAR
STARTCHAR  4FE9
ENCODING  20457
SWIDTH  1000 0
DWIDTH  10 0
BBX  9 10 0 -1
BITMAP
001000000000000000
00E0A0F0F0F0F0F0F0
30C00000A000A00000
808000E0FFE0FFE0E0
A06000F0F000F000F0
00F000F0F010F010F0
00F000F0F080FF40F0
00F000F0C0F0C0A0F0
00F000F030602040F0
00F000E0000000E0F0
ENDCHAR
STARTCHAR  4FEA
ENCODING  20458
SWIDTH  1000 0
DWIDTH  10 0
BBX  10 10 0 -1
BITMAP
00000000000000000000
00E0F0F0F0F0F0F0F010
40A00000000000000000
8060E0E0E0E0FFE0FF00
A060E000E0E0E0E0E000
00F0E000E0E0E0E0E000
00F0E000E0E0E0E0E000
00F0E000E0E0E0E0E000
00F0E00000E0E000E000
00F0E00080E0E040F000
ENDCHAR
STARTCHAR  4FED
ENCODING  20461
SWIDTH  1000 0
DWIDTH  10 0
BBX  10 10 0 -1
BITMAP
00000000000000000000
0080C00020C0E0400000
00E04080E04030C0C030
40E010A0100000004080
808000E0F0F0F0F0F000
00E00060006010006020
00E000E000A04010F010
00E000C020806060A000
00E00040203040403000
00E000E0E0E0E0E0E0A0
ENDCHAR
STARTCHAR  4FEE
ENCODING  20462
SWIDTH  1000 0
DWIDTH  10 0
BBX  10 11 0 -2
BITMAP
00400000600000000000
00C00000F0F0F0F0F000
30A0400010000000F000
8060E000C0A060C0C000
A060E01060E0C0E08010
00F0E040A04060C0E020
00F0E00080E0A0804000
00F0E00060A0E0F0E000
00F0E000806060608000
00F00030C0C0A0806000
00000000000000000000
ENDCHAR
STARTCHAR  4FEF
ENCODING  20463
SWIDTH  1000 0
DWIDTH  10 0
BBX  10 9 0 -1
BITMAP
00A030000000A0000000
10F010FFF0F0F0F0F060
60C000E000A00000E000
608000E040A0F0F0FF60
00E000E0A0606000F000
00E000E000E0F000F000
00E000E000E0F000F000
00E000E000E04000F000
00E000E000E010F0F000
ENDCHAR
STARTCHAR  4FF1
ENCODING  20465
SWIDTH  1000 0
DWIDTH  10 0
BBX  10 10 0 -1
BITMAP
00102000000000000000
00A080F0F0F0F0F0E000
10F020E000000000F000
60C000E0E0E0E060F000
808000E0E0E0E060F000
00E000E000000000F000
00E000E0E0E0E060F000
00E030FFE0E0E0E0FFC0
00E00030806060804000
00E010E080202080C060
ENDCHAR
STARTCHAR  4FF3
ENCODING  20467
SWIDTH  1000 0
DWIDTH  10 0
BBX  10 10 0 -1
BITMAP
00000000100000100000
00C01000F00000F00000
10C0A0F0FF0000FFF0A0
60800000F00000F00000
A0600000F00000F00000
00F080F0FF0000FFF080
00F00000F00000F00000
00F0A0E0FF0000FFE0A0
00F00000F00000F00000
00F00000F00000F00000
ENDCHAR
STARTCHAR  4FF8
ENCODING  20472
SWIDTH  1000 0
DWIDTH  10 0
BBX  10 11 0 -2
BITMAP
00300000008000000000
00A030E0E0FFE0E0E020
20A0000000F000000000
806020E0E0FFE0E0E010
A060E0F0F0FFF0F0F000
00F010E010400060A000
00F0A0A0E0FFE0A0C000
00F0000000F000000000
00F030F0F0FFF0F0F020
00F0000000F000000000
00000000001000000000
ENDCHAR
STARTCHAR  4FFA
ENCODING  20474
SWIDTH  1000 0
DWIDTH  10 0
BBX  11 10 -1 -1
BITMAP
0000401000006010000000
0010E0000000E020000000
0060A080E0F0FFFFE0E010
00A06030A0A0A0A0A06010
00C01040F0E0FFE0E0E010
0000F000E000E02000E000
0000F000E0F0FFF040E000
0000F000FFE0FFE0A0E000
0000F0000000E020000000
0000F0000000C0F0F0F000
ENDCHAR
STARTCHAR  4FFE
ENCODING  20478
SWIDTH  1000 0
DWIDTH  10 0
BBX  10 11 0 -2
BITMAP
00401000000060000000
00F020E0F0F0FFF0F000
30E000E00000C000E000
60A000E080C0FFC0F000
808000E04060F060E000
00E000E000000000E000
00E000E0F0F0FFE0E000
00E00040E080F0404030
00E000A0A0A0F0A0A080
00E000000000F0000000
00000000000000000000
ENDCHAR
STARTCHAR  500C
ENCODING  20492
SWIDTH  1000 0
DWIDTH  10 0
BBX  9 10 0 -1
BITMAP
006010000060000000
10F010F0F0FFF0F0F0
40C000E000000000E0
808000000000000000
A06000F0F0F0F0F0E0
00F000F0F0F0F080E0
00F000F00000000000
00F000F0F0F0F0F0E0
00F000F000000000F0
00F000E0F0F0F0A0E0
ENDCHAR
STARTCHAR  500D
ENCODING  20493
SWIDTH  1000 0
DWIDTH  10 0
BBX  10 11 0 -2
BITMAP
00602000000060000000
00F020F0F0F0FFF0F030
30E00000000000000000
808000A060000060A000
80800030600000603000
00F000F0F0F0F0F0F080
00F000E0F0F0F0F0E000
00F000E000000000F000
00F000E000000000F000
00F000E0F0F0F0A0E000
00000000000000000000
ENDCHAR
STARTCHAR  500F
ENCODING  20495
SWIDTH  1000 0
DWIDTH  10 0
BBX  10 11 0 -2
BITMAP
00300000400000000000
00C00000F0F0F0F0F000
30A0F00080200020F000
8060F00080F0C0FFA000
A040F00080E0A0E0C020
00E0F0106010C000E020
00E0F020F0F0FFF0FF40
00E0F0000060FF800000
00E0A00040E030E04000
00E00030E0300030E020
00100000000000000000
ENDCHAR
STARTCHAR  5012
ENCODING  20498
SWIDTH  1000 0
DWIDTH  10 0
BBX  9 10 0 -1
BITMAP
001000000000000000
00E0C0F0F0F02000E0
30C020E0104000E0E0
608060C000C000E0E0
8080C0F0E0FF40E0E0
00E00000200000E0E0
00E02030F03000E0E0
00E080A0F0A000E0E0
00E00000F0000040E0
00E0C0E0E0E010E0F0
ENDCHAR
STARTCHAR  5014
ENCODING  20500
SWIDTH  1000 0
DWIDTH  10 0
BBX  9 11 0 -2
BITMAP
000000000000000000
00C040E0E0E0E0E0E0
10E000F000000000E0
60A000FFF0F0F0F0FF
806000F00080A00080
00F000F000E0E000E0
00F000F000F0FFF0F0
00F000F00080E00080
00F000F000E0E000E0
00F000F000E0E0E0E0
000000000000000000
ENDCHAR
STARTCHAR  5018
ENCODING  20504
SWIDTH  1000 0
DWIDTH  10 0
BBX  10 10 0 -1
BITMAP
00602060000080004000
00F010A06000F010A000
40C000208000F0202000
808000E0E0E0FFE0E000
A06000F000000000F000
00F000F000E0E0C0F000
00F000F000E000E0F000
00F000F000FFC0E0F000
00F000F000000000F000
00F000E0000000F0F000
ENDCHAR
STARTCHAR  5019
ENCODING  20505
SWIDTH  1000 0
DWIDTH  10 0
BBX  10 11 0 -2
BITMAP
00000000000000000000
00C00000C0F0F0F0E000
20C0000000000000F000
6080F000F0F0F0F0F0A0
8060F000800000000000
00E0F000E0F0F0F0F080
00E0F000F0F0FFF0F0A0
00E0F00000A0FFE02000
00E0800080C020A0E040
00E00000A000000040A0
00000000000000000000
ENDCHAR
STARTCHAR  501A
ENCODING  20506
SWIDTH  1000 0
DWIDTH  10 0
BBX  9 10 0 -1
BITMAP
000000000010000000
00A0200000F0000000
10C0A0E0F0FFF0E0C0
60801080E080A0A020
A060806010000030A0
00F0C0E0E0E0E0E0F0
00F000E0E0E0E000F0
00F000E00000E000F0
00F000E0E0E0E000F0
00F0000000E0E0E0E0
ENDCHAR
STARTCHAR  501C
ENCODING  20508
SWIDTH  1000 0
DWIDTH  10 0
BBX  9 10 0 -1
BITMAP
001000000000000000
00E020F0F0F0F0F0F0
30E000F00000F000E0
808000F080E0FFE0E0
A06000F0A0E0FFE0FF
00F000F000000000E0
00F000F0F0E0E0FFE0
00F000F0F00000F0E0
00F000F0E0E0E0E0E0
00F000E0000010F0F0
ENDCHAR
STARTCHAR  501F
ENCODING  20511
SWIDTH  1000 0
DWIDTH  10 0
BBX  10 9 0 -1
BITMAP
00C06010F01010F01000
20F010E0FFF0F0FFF080
80A00000C00000C00000
A06000E0E0E0E0E0E080
00F00000000000000000
00F000F0F0F0F0F0FF00
00F000F040F0F0F0F000
00F000F000000000F000
00F000E0E0E0E0E0E000
ENDCHAR
STARTCHAR  5021
ENCODING  20513
SWIDTH  1000 0
DWIDTH  10 0
BBX  9 10 0 -1
BITMAP
000000000000000000
00E030E0F0F0F0F0F0
30E000F060F0F0F0F0
808000F000000000F0
A06000F0F0F0F0F0F0
00E000000000000000
00E000FFF0F0F0F0FF
00E000F080E0E0E0FF
00E000F000000000F0
00E000F0F0F0F0F0F0
ENDCHAR
STARTCHAR  5025
ENCODING  20517
SWIDTH  1000 0
DWIDTH  10 0
BBX  10 10 0 -1
BITMAP
00602000000080000000
00F010F0F0F0FFF0F000
40C000F000200010F000
80800010A06000C02000
A0600080A0000040A000
00F00020000000002000
00F010F0F0F0F0F0F000
00F000000010A0000000
00F00000001080000000
00F030F0F0F0F0F0F030
ENDCHAR
STARTCHAR  5026
ENCODING  20518
SWIDTH  1000 0
DWIDTH  10 0
BBX  10 10 0 -1
BITMAP
00000000001010000000
00A0A030C0608080A000
10F030F0F0F0F0F0F040
60A0000000C020000000
A06000F0FFF0F0FFF0E0
00F00060C00000C08000
00F010E0FFF0F0FFF080
00F00000E0A0E0FF0000
00F00000E00000000000
00F00000F0F0F0F0F040
ENDCHAR
STARTCHAR  5028
ENCODING  20520
SWIDTH  1000 0
DWIDTH  10 0
BBX  10 10 0 -1
BITMAP
00000000000000000000
00A060F0F0F0F0F0F000
00F010F000000000F000
40C000FFF0F0F0E0FF00
808000F0000060000000
00E000F0E0E0FFE0E040
00E000F00000E0000000
00E000F0E0F0F0F0FF00
00E000F0E0000000F000
00E000E0E0F0F0E0E000
ENDCHAR
STARTCHAR  5029
ENCODING  20521
SWIDTH  1000 0
DWIDTH  10 0
BBX  10 10 0 -1
BITMAP
00000000000000000000
00C0A0E0E0F0F0E0C000
20C0000000A060000000
808030E0E0F0E0E0E010
A060C0E0E0E0E0E0E000
00F000E0E0E0E0E0E000
00F000F0E0E0E060F000
00F000F000000000F000
00F000F0E0E0E060F000
00F000E0000080E0E000
ENDCHAR
STARTCHAR  502A
ENCODING  20522
SWIDTH  1000 0
DWIDTH  10 0
BBX  10 10 0 -1
BITMAP
00000000000000000000
00C030F0F0F0A0F0F000
20E000F000000000E000
608000F080F0A0E0E000
A06000F000000000E000
00F000FFF0F0F0F0F000
00F00000402020400000
00F00000E01040A00000
00F00060A00040A00000
00F000C0400040F0F040
ENDCHAR
STARTCHAR  502C
ENCODING  20524
SWIDTH  1000 0
DWIDTH  10 0
BBX  10 11 0 -2
BITMAP
00001000001010000000
0080C000006080000000
00E040000060F0F0F0A0
60C000E0F0F0F0F0F000
806000F000000000F000
00F000F060F0F0F0F000
00F000F0F0F0F0F0F000
00F000000030C0000000
00F000F0F0F0FFF0F0A0
00E000000030C0000000
00000000000000000000
ENDCHAR
STARTCHAR  502D
ENCODING  20525
SWIDTH  1000 0
DWIDTH  10 0
BBX  10 11 0 -2
BITMAP
00000000000000000000
00C000F0F0F0F0F0F020
30A000000000F0000000
806000E0E0E0FFE0E0A0
A0600080A060F0A0A040
00F000A0200080003040
00F0E0FFF0F0F0F0F000
00F000F0602000408000
00F00060F0FFF0FF8000
00F000E0C0603060C0A0
00000010000000000000
ENDCHAR
STARTCHAR  502E
ENCODING  20526
SWIDTH  1000 0
DWIDTH  10 0
BBX  10 10 0 -1
BITMAP
00000000000000000000
00A010F0F0F0F0F0F000
10C000E00000A000E000
608000E0C0E0FFE0E000
A06000FFF0F0FFF0F000
00F000000000E0000000
00F0C0F0F0F0FFF0F000
00F000408000E0303000
00F000E06000E010A000
00F060E00000E000A000
ENDCHAR
STARTCHAR  503A
ENCODING  20538
SWIDTH  1000 0
DWIDTH  10 0
BBX  10 11 0 -2
BITMAP
00100000000020000000
00E030E0E0E0FFE0E0A0
30E000000000E0000000
808010E0E0E0FFE0E030
A06010E0E0E0E0E0E0A0
00F000F0F0F0F0F0F000
00F000E00000A000E000
00F000E00040F030E000
00F00040C0E080E0A020
00F000E06000001080A0
00000000000000000000
ENDCHAR
STARTCHAR  503C
ENCODING  20540
SWIDTH  1000 0
DWIDTH  10 0
BBX  9 10 0 -1
BITMAP
000000000010000000
00E0FFE0E0FFE0E0E0
20E0000000E0200000
808000F0E0E0E0E0F0
A06000F0E0E0E040E0
00F000F000000000E0
00F000F0F0F0F040E0
00F000F0F0F0F040E0
00F000F000000000E0
00F020F0F0F0F0F0E0
ENDCHAR
STARTCHAR  503E
ENCODING  20542
SWIDTH  1000 0
DWIDTH  10 0
BBX  10 10 0 -1
BITMAP
00000000000000000000
00E040E000F0F0F0F080
20F000F0000000E00000
80A000FFE0FFE0E0FF00
A06000F000F000E0F000
00E000F000F000E0F000
00E000F000F000E0F000
00E000F000C010F0E000
00E000F00000A0F08000
00E000F0F0808020E040
ENDCHAR
STARTCHAR  5043
ENCODING  20547
SWIDTH  1000 0
DWIDTH  10 0
BBX  10 10 0 -1
BITMAP
00100000000000000000
00E040F0E0E0E0E0E040
30E000F0C0E0E0E0E000
808000F0F080E0C0F000
A06000F0F0E0E0C0F000
00F000F0401000000000
00F000FFF0E0E0E0E040
00F000F080F0A0C0C000
00F000FFC0804060A030
00F000E0E0E0E0E0E040
ENDCHAR
STARTCHAR  5047
ENCODING  20551
SWIDTH  1000 0
DWIDTH  10 0
BBX  10 10 0 -1
BITMAP
00101000000000000000
00C060F0F0E0E0F0F000
10F010E000F00000F000
60C000E000F00000F000
808000FFE0E0E0E0E000
00F000E00000E0F0FF00
00F000E0F0C0A000F000
00F000E00000E040F000
00F000E0F0C040FF6000
00F000E00000A0A0C010
ENDCHAR
STARTCHAR  5048
ENCODING  20552
SWIDTH  1000 0
DWIDTH  10 0
BBX  9 10 0 -1
BITMAP
000000000000000000
00C040F0F0F0F0F0F0
10E000F0A0F0F0F0F0
60A000F000000000F0
A08000F0E0E0E0E0E0
00F000FFF0F0F0F0F0
00F0006000206000F0
00F000F020E0E040F0
00F000F040301040F0
00F000E0E0E0E0FFE0
ENDCHAR
STARTCHAR  504C
ENCODING  20556
SWIDTH  1000 0
DWIDTH  10 0
BBX  10 9 0 -1
BITMAP
00E03040F04040F04020
20E000C0F0C0C0F0C060
80800010F00000800000
A06030F0FFF0F0F0F080
00F000C0200000000000
00F020E0E0F0F0F0F000
00F04060E0000000E000
00F00000E0000000E000
00F00000E0F0F0E0E000
ENDCHAR
STARTCHAR  504E
ENCODING  20558
SWIDTH  1000 0
DWIDTH  10 0
BBX  10 10 0 -1
BITMAP
00100000000000000000
00E000E0E0E0E0E0E000
30A000F060A0A040F000
806000F080C0C060F000
A06000FFF0F0F0A0FF00
00F00000000000000000
00F0E0FFE0F0F0E0E000
00F000E01030E060A000
00F000E0100030F06000
00F000C0E0E00040A000
ENDCHAR
STARTCHAR  504F
ENCODING  20559
SWIDTH  1000 0
DWIDTH  10 0
BBX  9 10 0 -1
BITMAP
004000000030200000
00E0E0F0F0F0F0F0E0
30A0F00000000000E0
8060F0F0F0F0F0F0F0
A040F0000000000000
00F0F000FFE0E0E0FF
00F0F000F0606080F0
00F0F000F0E0C0E0FF
00F0F000F0C0C0E0FF
00F0F000F08080A0F0
ENDCHAR
STARTCHAR  5055
ENCODING  20565
SWIDTH  1000 0
DWIDTH  10 0
BBX  9 10 0 -1
BITMAP
000000000000000000
00E020F00000F00000
20E000F0F0C0F0E0F0
808000F00000F00000
A06000F0F0C0E0F0F0
00F000000060000000
00F000F0E0E0E0E0C0
00F000F0F0F0F0A0C0
00F000F000000010C0
00F000E0E0E0E0C0A0
ENDCHAR
STARTCHAR  505A
ENCODING  20570
SWIDTH  1000 0
DWIDTH  10 0
BBX  10 11 0 -2
BITMAP
00100000000010000000
00E04020E000E0000000
20E040F0FFF0E0E0FF60
80800020E000C000F000
A0600020E000E000F000
00E020F0FFC0E030F000
00E020E020E060F08000
00E020E020E010FF3000
00E020E020E060E0A000
00E020F0C0C0C010E040
00000000000000000000
ENDCHAR
STARTCHAR  505C
ENCODING  20572
SWIDTH  1000 0
DWIDTH  10 0
BBX  10 10 0 -1
BITMAP
00100000000060000000
00E040F0F0F0FFF0F080
30E00000000000000000
808000E0E0E0E0E0E000
A06000E0F0F0F0A0E000
00E000F0F0F0F0F0F0E0
00E000E00000000000E0
00E00030F0F0F0F04000
00E000000000F0000000
00E00000A0E0E0000000
ENDCHAR
STARTCHAR  5065
ENCODING  20581
SWIDTH  1000 0
DWIDTH  10 0
BBX  10 9 0 -1
BITMAP
00E0E0E040E0FFE0E000
30C000F00000E020F000
608000FFE0E0FFE0FF20
808000F040E0FFE0F000
00F000F00000E0200000
00F000F080E0FFE0E000
00F000F0E0E0FFE0E020
00F000F0000080100000
00F0E0E0E0E0E0E0E010
ENDCHAR
STARTCHAR  506C
ENCODING  20588
SWIDTH  1000 0
DWIDTH  10 0
BBX  10 9 0 -1
BITMAP
008020A0000000000000
10E000F0FFE0FFE0FF00
608020C0E0406000F000
A06010C0C0E0E020F000
00F000E0208000E0FF00
00F00040004030003000
00F000E000F0E000E020
00F000E000F08000E020
00F000E000F0F010E020
ENDCHAR
STARTCHAR  5076
ENCODING  20598
SWIDTH  1000 0
DWIDTH  10 0
BBX  9 10 0 -1
BITMAP
001000000000000000
00E030F0F0F0F0F0F0
30E000E000800000F0
808000E0F0FFF0A0F0
A06000FFF0FFF0C0FF
00F0000000E0000000
00F000FFE0FFE0E0FF
00F000F000E000A0E0
00F000FFF0F0F0F0E0
00F000E000000000F0
ENDCHAR
STARTCHAR  5077
ENCODING  20599
SWIDTH  1000 0
DWIDTH  10 0
BBX  10 10 0 -1
BITMAP
00000000000000000000
00E0101080F0A0300000
30C060E0802060E0C020
80806030F0F0F0A06030
A06000F0F0F00000F000
00F000F010F000F0F000
00F000F0E0F000F0F000
00F000F020F000F0F000
00F000F0C0F00080F000
00F000C000C000C0F000
ENDCHAR
STARTCHAR  507B
ENCODING  20603
SWIDTH  1000 0
DWIDTH  10 0
BBX  10 10 0 -2
BITMAP
00C000C020F000A06000
20A0004060F010A00000
8060E0F0F0FFF0F0F000
A06000C040F000C04000
00F030A000A000206000
00F0C0FFE0E0E0E0E000
00F000F0400020606000
00F000A0FFF0FFE04000
00F0C0C060204080E000
00000000000000000000
ENDCHAR
STARTCHAR  507E
ENCODING  20606
SWIDTH  1000 0
DWIDTH  10 0
BBX  10 11 0 -2
BITMAP
00000000000020000000
00C06080A0A0F0A0A000
10F010A03030F030A000
40C000FFF0F0F0F0FFE0
808000A000000000A000
00E000E0F0F0F0F0F000
00E000F00000A000F000
00E000E00020F010E000
00E00040A0E0A0E06000
00E020C060000020A040
00000000000000000000
ENDCHAR
STARTCHAR  507F
ENCODING  20607
SWIDTH  1000 0
DWIDTH  10 0
BBX  10 10 0 -1
BITMAP
00402000000040000000
00F02030E000F0604000
30E000F0F0F0FFF0F000
60A000E000000000E000
80800000000000000000
00E000A0F0F0F0F0F000
00E000F0F0F0F0F0F0C0
00E00000601000100000
00E00020F01000606000
00E00080F0F0F0F0C000
ENDCHAR
STARTCHAR  5080
ENCODING  20608
SWIDTH  1000 0
DWIDTH  10 0
BBX  10 10 0 -1
BITMAP
00401000006000000000
00F010F0F0FFF0F0E000
40C000E000600000F000
808000E0A0FFA080F000
A06000E040F04030F000
00F000FFF0F0F0C0F000
00F00000E00030100000
00F00030A000F0A08020
00F000806000F0A0E040
00F000E01000F0F0F080
ENDCHAR
STARTCHAR  5085
ENCODING  20613
SWIDTH  1000 0
DWIDTH  10 0
BBX  9 9 0 -1
BITMAP
00E0000000F00000E0
30C0E0F0F0FFF0F0F0
808000FFE0FFE0E0FF
806000F0E0FFE0C0F0
00F000F0E0FFE0C0F0
00F000C000C00000C0
00F0E0F0F0F0F0F0FF
00F010A060300000F0
00F0006080C040F0E0
ENDCHAR
STARTCHAR  5088
ENCODING  20616
SWIDTH  1000 0
DWIDTH  10 0
BBX  9 10 0 -1
BITMAP
001000000000000000
00E0A0E0E0E0E0E0E0
30C000F0F0FFFFF0F0
808000E000E0F000F0
A06000E000606000F0
00F000E0E0E0E0E0F0
00F0A0F0F0FFF0F0F0
00F00020A0F010A020
00F000C080E000A080
00F060E010E00020C0
ENDCHAR
STARTCHAR  508D
ENCODING  20621
SWIDTH  1000 0
DWIDTH  10 0
BBX  10 11 0 -2
BITMAP
00603000008000000000
10F060F0F0FFF0F0F020
40E00010100000101000
A0800040800000A04000
C04000FFF0F0F0F0FF00
00F00080008000008000
00F060E0F0E0E0E0E030
00F00020F0F0F0F0E000
00F0008040000000F000
00F000C03000E0F0E000
00100000000000000000
ENDCHAR
STARTCHAR  50A3
ENCODING  20643
SWIDTH  1000 0
DWIDTH  10 0
BBX  10 10 0 -1
BITMAP
00400000006000000000
00E040F0F0FFF0F0F040
30C0000000E000000000
608020E0E0FFE0E0E010
8080E0F0F0FFF0F0F000
00F010E0102000808000
00F0A0E080F030E0C000
00F02020A0FFC0401000
00F020E0C0F080F0C010
00F02040A0F000006010
ENDCHAR
STARTCHAR  50A5
ENCODING  20645
SWIDTH  1000 0
DWIDTH  10 0
BBX  10 10 0 -1
BITMAP
00100000001000000000
00C000E020F000608000
20A0E0FFF0FFE0FFE000
8060E00000000000F000
A06010E0E0E0E0E0F000
00E000E000000000F000
00E000E0E0E0E080E000
00E00020800000C00000
00E000A0400000F00000
00E020C0000000F0F020
ENDCHAR
STARTCHAR  50A7
ENCODING  20647
SWIDTH  1000 0
DWIDTH  10 0
BBX  10 11 0 -2
BITMAP
00402000000060000000
00F030F0F0F0FFF0F000
30F000C000000000C000
60A000E0F0F0F0F08000
808000F0000000000000
00E000F040F0F0FFF030
00E000F0000000F00000
00E000E0E0E0E0E0E0E0
00E00010806000A04000
00E000E060100040A080
00000000000000000000
ENDCHAR
STARTCHAR  50A8
ENCODING  20648
SWIDTH  1000 0
DWIDTH  10 0
BBX  10 10 0 -1
BITMAP
00100010001020000000
00E030E01080C0400020
20E010E020C0E08060C0
60A000000040A080A010
8080C0F000F0FFF0F0E0
00E000F080F0F0F0F000
00E000F020E01000F000
00E000F000E0A0E0F000
00E000F000E01000F000
00E000E080C0E0E0E000
ENDCHAR
STARTCHAR  50A9
ENCODING  20649
SWIDTH  1000 0
DWIDTH  10 0
BBX  10 9 0 -1
BITMAP
00C0E0E0E010F010E000
20A04000F040FFF0F0A0
8060F000F060F000E000
A060E000F000FFF0FFA0
00F0C080E000F000E000
00F080FF8000F000E000
00F030FF4000FFF0FFA0
00F080F0A000F000E000
00F0C020F020E0C0E080
ENDCHAR
STARTCHAR  50AC
ENCODING  20652
SWIDTH  1000 0
DWIDTH  10 0
BBX  10 10 0 -1
BITMAP
00100000000010000000
00E020E00000E000E000
20E000FFF0F0F0F0F000
60A000C00000C0000000
808030FFF0F0F0F0F060
00E080F00000E0000000
00E010F0F0F0FFF0F010
00E000F0F0F0FFF0F010
00E000F00000E0000000
00E000E0F0C0E0F0F060
ENDCHAR
STARTCHAR  50B2
ENCODING  20658
SWIDTH  1000 0
DWIDTH  10 0
BBX  10 9 0 -1
BITMAP
00A020308000A0000000
10F080F0FFE0E0F0FF60
60A060F0FFE0A000F000
80A00040C000E000F000
00F080FFF0F0E000F000
00F000F0E0C0A0C0C000
00F010E010E020FF4000
00F030C010E060F0A000
00F040A080C0C030C030
ENDCHAR
STARTCHAR  50BA
ENCODING  20666
SWIDTH  1000 0
DWIDTH  10 0
BBX  10 10 0 -1
BITMAP
00000000000000000000
00E060E0E0C0E0E0E0A0
10FFE000E0E0F0008080
60C02010A0E0E0A06010
808000E0A0201060C0E0
00E00030F0F0F0F0F020
00E00000000000000000
00E000F0F0F0FFF0F0E0
00E00040A010F0808030
00E0008030E0E0106080
ENDCHAR
STARTCHAR  50BB
ENCODING  20667
SWIDTH  1000 0
DWIDTH  10 0
BBX  10 11 0 -2
BITMAP
00301000004000000000
00E020E0E0FFE0E0E000
30E000F0C08080A0F000
808000F0C0A0A0A0F000
A06000FFE0E0E0C0FF00
00F000408080A0804010
00F060FFA03040A0F0C0
00F010C0E0E0E0E0E010
00F000A0C0A0A0C08000
00F000C0A06060A0C080
00000000000000000000
ENDCHAR
STARTCHAR  50CF
ENCODING  20687
SWIDTH  1000 0
DWIDTH  10 0
BBX  10 10 0 -1
BITMAP
00100000000000000000
00E04060F0F0F0800000
30E020F0E0E0E0E0E000
808000A060308020E000
A06000A0F0E0FFE0F000
00F00080E0A0A0006010
00F000A080C0F0C0A010
00F000E0A060F0A03000
00F00080E080F060A000
00F0008010E0E010E000
ENDCHAR
STARTCHAR  50D6
ENCODING  20694
SWIDTH  1000 0
DWIDTH  10 0
BBX  10 10 0 -1
BITMAP
00600000008000000000
00E0A0E0E0FFE0E0E000
30A030E0E0FFE0E0E020
80600000000000000000
C06000FFE0E0E0E0FF00
00F000FFF0E0E0FFF000
00F0A0E0F0E0E0FFE000
00F00000000000000000
00F000FFE0E0E0E0FF00
00F000E0E0E0E0E0E000
ENDCHAR
STARTCHAR  50DA
ENCODING  20698
SWIDTH  1000 0
DWIDTH  10 0
BBX  9 10 0 -1
BITMAP
002010000020200000
00C0A0F0F0F0F0F0C0
10C0606080F0E060A0
608080FFC03030C0F0
A060E0FFE0E0E0E0FF
00F000F0E0E0E010E0
00F000F000000000E0
00F000E0E0F0F080C0
00F02060C08080A040
00F0606020E08030A0
ENDCHAR
STARTCHAR  50E6
ENCODING  20710
SWIDTH  1000 0
DWIDTH  10 0
BBX  10 10 0 -2
BITMAP
10E04060F06000E08060
40C060A0A0A000E04040
60A0F0F0F0FFFFF0F0C0
8080F00000E0C0206000
00F0F0F0E0E0E010E000
00F03010E030E010E000
00F0E010E0E0E000E000
00F0E010E0E0E000E000
00F0A010E0C0E000F0C0
00100000000000000000
ENDCHAR
STARTCHAR  50E7
ENCODING  20711
SWIDTH  1000 0
DWIDTH  10 0
BBX  9 10 0 -1
BITMAP
006020106000004010
00F010F0FFF0F0FFF0
40E000F020808020E0
808000F0E08080E0E0
A06000F02080A080E0
00F000F0F0F0F0F0E0
00F000FFF0F0F0F0FF
00F000F080F0F0F0E0
00F000F000000000E0
00F000E0F0F0F0F0E0
ENDCHAR
STARTCHAR  50EC
ENCODING  20716
SWIDTH  1000 0
DWIDTH  10 0
BBX  10 11 0 -2
BITMAP
00000000000010000000
00C040E02000C0000000
00E020FFF0F0F0F0F040
40C060FF0000E0000000
808010E0F0F0FFF0F020
00E000E0F0F0FFF0F020
00E000E00000E0000000
00E000E0F0E0FFF0F040
00E00080406060308000
00E030C010E06080C030
00200000000000000000
ENDCHAR
STARTCHAR  50ED
ENCODING  20717
SWIDTH  1000 0
DWIDTH  10 0
BBX  10 10 0 -1
BITMAP
00000000000000000000
00E080E0E0E0E0E0E040
30E03040F01080608000
808040FFFFFFFFFFFF40
A06000E0802060A06000
00F040A0A0E0C040E040
00F000E0F0F0F0F0FF20
00F000E0A0F0F0F0C020
00F000E000000000C020
00F000C0F0F0F0F0C020
ENDCHAR
STARTCHAR  50EE
ENCODING  20718
SWIDTH  1000 0
DWIDTH  10 0
BBX  9 10 0 -1
BITMAP
002000000040200000
00C080E0E0F0E0E0E0
30A000302000006020
8060E0E0E0E0E0E0E0
A06000F0F0F0F0F0E0
00F000E0E0F0E080E0
00F000FFE0F0E0A0F0
00F0000000A0400000
00F040E0E0F0E0E0A0
00F0E0E0E0E0E0E0E0
ENDCHAR
STARTCHAR  50F3
ENCODING  20723
SWIDTH  1000 0
DWIDTH  10 0
BBX  10 11 0 -2
BITMAP
00100000000000000000
00E040F0F0F0F0F0F0C0
30E000F0F0FFFFF0F000
808000F000E0E000F000
A06000FFF0F0F0F0FF00
00F0001010A000001000
00F00080C0F000A06000
00F040E0E0FFE0E0E020
00F00040A0F000C04000
00F000E040F00040E010
00100000000000000000
ENDCHAR
STARTCHAR  50F5
ENCODING  20725
SWIDTH  1000 0
DWIDTH  10 0
BBX  10 10 0 -1
BITMAP
00101000000000000000
00E040E0E0E0E0E0E0C0
20F010E0E0E0E0E0E000
60C000E0A0A0F080E000
808000E0E0E0E0A0E000
00E000C0C0C0C0C0C0C0
00E000F0E0E0E0E0F000
00E000E0A0A0F080E000
00E000E0E0E0E0A0E000
00E000E0E0E0E0E0E0C0
ENDCHAR
STARTCHAR  50FB
ENCODING  20731
SWIDTH  1000 0
DWIDTH  10 0
BBX  10 10 0 -1
BITMAP
00600000000000801000
00C0E0E0E0E0E0FFF020
30A0F00000F010001000
8060F06060F0C020E000
C060F0606060A040E000
00F0F000F0E0F0F0F030
00F0F000E0E000801000
00F0F000E0E0C0F0C010
00F0F000E0E020E03000
00F0E000C0C000E01000
ENDCHAR
STARTCHAR  5106
ENCODING  20742
SWIDTH  1000 0
DWIDTH  10 0
BBX  11 9 0 -1
BITMAP
00E030F030F000F0303000
20C0E0FFE0FF00C0FFC000
60808020002000A0F00000
8080E0E0E0F000F0F00000
00E0C0E0E0E000F0F00000
00E0E000E0E000C0C00000
00E0E000E0E00060600000
00E0C0E0E0E000A0E01000
00E00000F0F040E0A0A000
ENDCHAR
STARTCHAR  5107
ENCODING  20743
SWIDTH  1000 0
DWIDTH  10 0
BBX  9 9 0 -1
BITMAP
00C000E0E0E0E0E0E0
20A000F000A0A000F0
806000E0E0E0E0E0E0
A060E0F0F0F0F0F0F0
00F000E0E0E0E0E0E0
00F000F000000000F0
00F000F0FFFFFFFFF0
00F010E080F020E0C0
00F080C000E0A03080
ENDCHAR
STARTCHAR  510B
ENCODING  20747
SWIDTH  1000 0
DWIDTH  10 0
BBX  10 9 0 -1
BITMAP
00F040C0E0E0E0C00000
30E060FFE0E0F0F0E020
80A040F060A060A06010
A06000FFA0606060A020
00E000FFC0C0C0C0C020
00E000E0E0E0E0E0E000
00E000E0C0C0C0C0C000
00E000E0FFE0E0E0FF00
00E000E0E0E0E0C0E000
ENDCHAR
STARTCHAR  5112
ENCODING  20754
SWIDTH  1000 0
DWIDTH  10 0
BBX  10 9 0 -1
BITMAP
00E020E0E0E0E0E0E010
20C010E0E0FFE0E0E010
808010F0C0FF40C0E010
A06010F0C0FF40C0E010
00F0A0E0E0E0E0E0E000
00F0000000F000000000
00F000FFE0E0E0E0FF00
00F000F000E0E000F000
00F000E000C0C040E000
ENDCHAR
STARTCHAR  5121
ENCODING  20769
SWIDTH  1000 0
DWIDTH  10 0
BBX  9 10 0 -1
BITMAP
001000000000000000
00E000E0E0E0E0E0E0
30A000E060E06040F0
806000E080F08060F0
A06000FFE0E0E0E0F0
00F0C0F0F0C0E0F0F0
00F0E010A0E0E080E0
00F0E020FFF0E0F0FF
00F0E010A0E0E080E0
00F0C0E0E0C0E0E0E0
ENDCHAR
STARTCHAR  513F
ENCODING  20799
SWIDTH  1000 0
DWIDTH  10 0
BBX  11 9 -1 -1
BITMAP
000000FF000000F0000000
000000FF000000FF000000
000000FF000000FF000000
000000FF000000FF000000
000000FF000000FF000000
000000FF000000FF000000
000000FF000000FF000000
000000FF000000FF000000
10FFFFFF000000F0FFFF30
ENDCHAR
STARTCHAR  5140
ENCODING  20800
SWIDTH  1000 0
DWIDTH  10 0
BBX  10 10 0 -2
BITMAP
F0F0F0F0F0F0F0F0F030
00004000000040000000
0010E0000000F0000000
0040A0000000F0000000
008060000000F0000000
00E030000000F0000000
10F000000000F0000000
40C000000000F0000000
808000000000E0E0E020
00000000000000000000
ENDCHAR
STARTCHAR  5141
ENCODING  20801
SWIDTH  1000 0
DWIDTH  10 0
BBX  10 10 0 -1
BITMAP
00001010000000000000
0000E020000080400000
0060A000000040C00000
00E03000000000E04000
40E0E0E0E0E0E0E0A000
00108000000080000000
0060A0000000F0000000
00C040000000F0000000
20E000000000F0101000
808000000000E0E0E060
ENDCHAR
STARTCHAR  5143
ENCODING  20803
SWIDTH  1000 0
DWIDTH  10 0
BBX  10 10 0 -2
BITMAP
A0F0F0F0F0F0F0F0F000
00000000000000000000
00000000000000000000
F0F0F0F0F0F0F0F0F060
00104000000040000000
008080000000F0000000
00E030000000F0000000
20E000000000F0101000
808000000000E0E0E040
00000000000000000000
ENDCHAR
STARTCHAR  5144
ENCODING  20804
SWIDTH  1000 0
DWIDTH  10 0
BBX  10 10 0 -2
BITMAP
00E0F0F0F0F0F0F0E000
00E0000000000000E000
00E0000000000000E000
00E0000000000000E000
00E0F0F0F0F0F0A0E000
000060300000A0000000
0020E0000000F0000000
00A060000000F0000000
20E000000000F0F0F080
00100000000000000000
ENDCHAR
STARTCHAR  5145
ENCODING  20805
SWIDTH  1000 0
DWIDTH  10 0
BBX  10 9 0 -1
BITMAP
00000000E00000000000
F0F0F0F0F0F0F0F0F030
0040E000000020800000
00C06000000000C02000
20E0E0E0E0E0E0E08000
0000A0000000A0000000
0040C0000000F0000000
00A040000000F0101000
10E000000000E0E0E020
ENDCHAR
STARTCHAR  5146
ENCODING  20806
SWIDTH  1000 0
DWIDTH  10 0
BBX  10 10 0 -1
BITMAP
00000010000010000000
60A000E00000F000A040
10E000E00000F000E010
00C040E00000F040A000
004060E00000F0604000
006080E00000F0608000
00C040E00000F020E000
10E000E00000F000C030
60A000E00000F0002020
603000E00000F0F0F0A0
ENDCHAR
STARTCHAR  5148
ENCODING  20808
SWIDTH  1000 0
DWIDTH  10 0
BBX  10 10 0 -1
BITMAP
00000000200000000000
F0000000F00000000000
F0F0F0F0FFF0F0F08000
00000000F00000000000
00000000800000000000
F0F0F0F0F0F0F0F0F020
004080000000A0000000
00E040000000F0000000
40C000000000F0000000
A03000000000E0E0E000
ENDCHAR
STARTCHAR  5149
ENCODING  20809
SWIDTH  1000 0
DWIDTH  10 0
BBX  10 10 0 -1
BITMAP
30200000A00000104000
40C00000F00000808000
00C04000F00010E01000
00306000F00040600000
E0E0E0E0FFE0E0E0E040
00001000000010000000
0030C0000000F0000000
00A040000000F0000000
20E000000000F0000000
806000000000E0F0F030
ENDCHAR
STARTCHAR  514B
ENCODING  20811
SWIDTH  1000 0
DWIDTH  10 0
BBX  10 9 0 -1
BITMAP
00000000C00000000000
E0E0E0E0FFE0E0E0E000
00000000A00000000000
00FFF0F0F0F0F0FF0000
00F00000000000F00000
00F0F0F0F0F0F0FF0000
0010800000A000000000
00A0600000F000000000
40E0000000E0F0F0F000
ENDCHAR
STARTCHAR  514D
ENCODING  20813
SWIDTH  1000 0
DWIDTH  10 0
BBX  10 9 0 -1
BITMAP
0030F0F0F0F0F0300000
00C060000010C0000000
40FFF0F0F0F0F0F0FF00
30F0000000600000E000
00F0000000E00000E000
00F0F0F0FFF0F0E0E000
000010C060A000000000
0020E06000F010101000
20E0400000E0E0E0E0A0
ENDCHAR
STARTCHAR  5151
ENCODING  20817
SWIDTH  1000 0
DWIDTH  10 0
BBX  10 10 0 -1
BITMAP
00102000000000201000
0010E010000040F02000
00E0F0F0F0F0F0F0E000
00F0000000000000E000
00F0000000000000E000
00F0000000000000E000
00E0F0F0F0F0F080E000
0020E0100000F0000000
00A060000000F0000000
30E000000000F0F0F060
ENDCHAR
STARTCHAR  5154
ENCODING  20820
SWIDTH  1000 0
DWIDTH  10 0
BBX  9 9 0 -1
BITMAP
0030F0F0F0F0F06000
00E030000080E01000
80FFF0F0F0F0F0F0F0
30F0000080000000F0
00F00000F0000000F0
00E0F0FFE0E0E0A0E0
0000A060F00020F010
0080A000F000006020
40E01000E0E0E0E0C0
ENDCHAR
STARTCHAR  5155
ENCODING  20821
SWIDTH  1000 0
DWIDTH  10 0
BBX  10 10 1 -2
BITMAP
F0F0F00000F0F0F00000
E000F00000E000F00000
E000F0E080E000F00000
E0000000000000F00000
FFE0E0E0E0E0E0FF0000
00400000000060000000
00C000000000F0000000
408000000000F0000000
A03000000000F0F0F030
10000000000000000000
ENDCHAR
STARTCHAR  5156
ENCODING  20822
SWIDTH  1000 0
DWIDTH  10 0
BBX  11 10 -1 -1
BITMAP
0000000000800000000000
00E0F0F0F0FFF0F0F0F000
0000001060206010000000
0030A0F0A010A0F0A03000
10E080804000106080E010
000060C0000000A0800000
0010E0F0F0F0F0F0E01000
000040A0000000E0000000
0000C040000000F0000000
0040C000000000F0F0F010
ENDCHAR
STARTCHAR  515A
ENCODING  20826
SWIDTH  1000 0
DWIDTH  10 0
BBX  10 11 1 -2
BITMAP
00000000200000000000
10C00000F00000C00000
00400000F00000400000
FFF0F0F0F0F0F0F0E000
F0E0F0F0F0F0F0E0E000
40F00000000000F04000
00F0F0F0F0C080F00000
00106000000040000000
00A080000000F0000000
40A000000000F0F0F000
00000000000000000000
ENDCHAR
STARTCHAR  515C
ENCODING  20828
SWIDTH  1000 0
DWIDTH  10 0
BBX  9 10 1 -1
BITMAP
000000008000000000
F0F030F0FFF040F0E0
E00000F000E00000F0
E00000F0E0E00000F0
E00000F000E00000F0
E00000F000E00000F0
E0E040F0E0F040E0E0
0040F03000F0000000
00E0600000F0000000
60C0000000E0F0F0C0
ENDCHAR
STARTCHAR  5162
ENCODING  20834
SWIDTH  1000 0
DWIDTH  10 0
BBX  10 10 0 -1
BITMAP
00002000000000200000
3060F060606060F06030
3080F080808080F08030
00003000000000300000
00FFE0E0F0E0E0E0FF00
00F00000F0E00000E000
00E0E0C0E0E0E0C0E000
008020E00060C0E00000
00C000E000A060F00000
10C000E0F0E010E0F060
ENDCHAR
STARTCHAR  5165
ENCODING  20837
SWIDTH  1000 0
DWIDTH  10 0
BBX  10 9 0 -1
BITMAP
0000F0F0F08000000000
0000000010F010000000
0000000060F080000000
00000020F040F0100000
000000C06000A0800000
000080C0000020F01000
0030F020000000A08000
00E0600000000020F010
60A00000000000008060
ENDCHAR
STARTCHAR  5168
ENCODING  20840
SWIDTH  1000 0
DWIDTH  10 0
BBX  11 10 -1 -1
BITMAP
0000000000300000000000
00000020C0E0C030000000
000080E0600060E0801000
00E0A0100000001080E010
0030E0F0F0FFF0F0F03010
0000000000F00000000000
0000E0E0E0FFE0E0E0A000
0000000000F00000000000
0000000000400000000000
00A0F0F0F0F0F0F0F0F000
ENDCHAR
STARTCHAR  516B
ENCODING  20843
SWIDTH  1000 0
DWIDTH  10 0
BBX  10 10 0 -1
BITMAP
00000010000010000000
000010F01000F0100000
000060C00000A0600000
0000A060000060A00000
0000F010000010F00000
0040C000000000C04000
00A0800000000060A000
00E0200000000020E000
30E0000000000000E040
80800000000000008080
ENDCHAR
STARTCHAR  516C
ENCODING  20844
SWIDTH  1000 0
DWIDTH  10 0
BBX  10 10 0 -1
BITMAP
00000010000010000000
000040E00000C0600000
0000E040000030E00000
0060A000000000A08000
10E0202020000010E020
606000E0400060106060
000060C00000A0600000
0000E030000030E00000
0060A000000000A06000
00E0FFFFFFFFFFFFE000
ENDCHAR
STARTCHAR  516D
ENCODING  20845
SWIDTH  1000 0
DWIDTH  10 0
BBX  11 9 -1 -1
BITMAP
0000000000F00000000000
0000000000E00000000000
00F0F0F0F0F0F0F0F0F040
0000006010000080000000
000030E0000000C0600000
0000A06000000040E00000
0010E01000000000E04000
008080000000000060C000
00C020000000000000C020
ENDCHAR
STARTCHAR  516E
ENCODING  20846
SWIDTH  1000 0
DWIDTH  10 0
BBX  11 10 0 -1
BITMAP
0000002040006010000000
000010E0400060A0000000
0000A080000000C0600000
0060C00000000020E02000
30E0A0F0F0F0F0F040E000
000000F000000000000000
000000FFE0E0E0E0E00000
0000000000000000F00000
0000000000000000F00000
00000060F0F0F0F0E00000
ENDCHAR
STARTCHAR  5170
ENCODING  20848
SWIDTH  1000 0
DWIDTH  10 0
BBX  10 10 0 -1
BITMAP
00204000000000601000
0010E010000030E00000
E0F0FFF0F0F0F0F0F010
00000000000000000000
00000000000000000000
00000000000000000000
30F0F0F0F0F0F0F0F000
00000000000000000000
00000000000000000000
F0F0F0F0F0F0F0F0F030
ENDCHAR
STARTCHAR  5171
ENCODING  20849
SWIDTH  1000 0
DWIDTH  10 0
BBX  10 10 0 -2
BITMAP
0000F0000000F0000000
E0F0FFF0F0F0FFF0F000
0000F0000000F0000000
0000F0000000F0000000
00008000000080000000
F0F0F0F0F0F0F0F0F030
0020A0000000A0200000
00C06000000060E00000
80A00000000000A0A000
30100000000000103000
ENDCHAR
STARTCHAR  5173
ENCODING  20851
SWIDTH  1000 0
DWIDTH  10 0
BBX  11 11 0 -2
BITMAP
0000602000000010600000
0000808000000080A00000
00F0F0FFF0F0F0FFF0E000
0000000000800000000000
0000000000F00000000000
0000000000F00000000000
20F0F0F0FFFFF0F0F0F000
00000040E060E040000000
000060E0200030E0400000
0080E02000000020E06000
0030100000000000103000
ENDCHAR
STARTCHAR  5174
ENCODING  20852
SWIDTH  1000 0
DWIDTH  10 0
BBX  11 10 -1 -1
BITMAP
0020100020100000002010
0080800060A0000010E020
0030E00010E0000060A000
0000E03000C04000E02000
0000604000404020800000
00F0F0F0F0F0F0F0F0F060
0000308000000040600000
0000C06000000010E02000
0040E0000000000080A000
00C040000000000000C020
ENDCHAR
STARTCHAR  5175
ENCODING  20853
SWIDTH  1000 0
DWIDTH  10 0
BBX  11 10 0 -2
BITMAP
0000E0E0E0E0E0E0E02000
0000F00000000000000000
0000F0F0F0F0F0F0F04000
0000F000000000F0000000
0000F000000000F0000000
20F0F0F0F0F0F0F0F0F010
0000004010006010000000
0030C0A0100060E0A02000
00C030000000000060C000
0000000000000000000000
ENDCHAR
STARTCHAR  5176
ENCODING  20854
SWIDTH  1000 0
DWIDTH  10 0
BBX  10 10 0 -2
BITMAP
0000F000000000F00000
00F0FFF0F0F0F0FFF0E0
0000F0E0E0E0E0F00000
0000F000000000F00000
0000F0E0E0E0E0F00000
0000F000000000F00000
60F0F0F0F0F0F0E0F0E0
000040A03020C0603000
00E0A06000004080E0C0
00000000000000000010
ENDCHAR
STARTCHAR  5177
ENCODING  20855
SWIDTH  1000 0
DWIDTH  10 0
BBX  10 9 0 -1
BITMAP
00E0F0F0F0F0F0F00000
00E00000000000E00000
00E080F0F0F0F0E00000
00E080F0F0F0F0E00000
00E00000000000E00000
00E080F0F0F0F0E00000
E0FFF0F0F0F0F0F0F040
20408060006080602000
A0A06030002060A0A000
ENDCHAR
STARTCHAR  5178
ENCODING  20856
SWIDTH  1000 0
DWIDTH  10 0
BBX  10 10 0 -1
BITMAP
00000000400040000000
00000000F000F0000000
00F0F0F0FFF0FFF0FF00
00F00000F000F000E000
00F060F0FFF0FFF0E000
00F00000F000F000E000
60FFF0F0FFF0FFF0F0F0
00000040800080300000
10A0E0C0600060C0E060
20601000000000002060
ENDCHAR
STARTCHAR  5179
ENCODING  20857
SWIDTH  1000 0
DWIDTH  10 0
BBX  10 9 0 -1
BITMAP
0060A0000000A0600000
E0E0E0E0E0E0E0E0E020
008060000000E0100000
10E020400060A0302000
60A0808000C060E02000
A0F0F01010E0FF800000
00A080800010E0604000
20E000E010808030C000
A0F0F0F060E0F0F0E000
ENDCHAR
STARTCHAR  517B
ENCODING  20859
SWIDTH  1000 0
DWIDTH  10 0
BBX  10 10 0 -2
BITMAP
0000A000000080600000
A0F0F0F0FFF0F0F0F000
20F0F0F0FFF0F0F0F000
00000000800000000000
C0F0F0F0F0F0F0F0F020
00A06000000020E03000
80C0A0400000F030E010
1000E0000000F0000000
0020C0000000F0000000
00000000000010000000
ENDCHAR
STARTCHAR  517C
ENCODING  20860
SWIDTH  1000 0
DWIDTH  10 0
BBX  9 10 0 -2
BITMAP
0010C0100030A00000
E0E0E0FFE0FFE0E0E0
A0E0E0FFE0FFE0E000
000000F000E000E000
E0F0F0FFF0FFF0FFF0
A0F0F0FFF0FFF0F000
008020F000E0206000
30E000F000E000E010
604000F000E0008040
000000600060000000
ENDCHAR
STARTCHAR  517D
ENCODING  20861
SWIDTH  1000 0
DWIDTH  10 0
BBX  10 10 0 -1
BITMAP
00008000000060600000
E0F0FFF0F0F0FFF0E000
E0000000F0000000E000
E000E0E0FFE0E0A0E000
E0E0E0E0FFE0E0C0E000
00000000000000000000
F0F0F0F0F0F0F0F0F030
00F0F0F0F0F0F0F0E000
00F0000000000000F000
00E0E0E0E0E0E0C0E000
ENDCHAR
STARTCHAR  5180
ENCODING  20864
SWIDTH  1000 0
DWIDTH  10 0
BBX  10 11 0 -2
BITMAP
00000020002000000000
C0E0E0E000F080E0E000
A0C0A0E000E0E0E0C000
30E0E0E0E0E0E0E0A000
40A0C0C0FFC0C080C000
40F0E0E0FFE0E0C0C000
00003000000040000000
60E0F0E0E0E0FFE0E000
E0E0E0E0E0E0E0E0E010
A0E0E0800060E0E0A000
30100000000000103000
ENDCHAR
STARTCHAR  5181
ENCODING  20865
SWIDTH  1000 0
DWIDTH  10 0
BBX  10 9 0 -1
BITMAP
80F06080E0E0E0E0E000
E0F0F0E0F0000000F000
E000A0F0F0F0F0C0E000
E080A0F0F080FFF0E000
E000E0F0F010E0A06000
E0F0C0E0F080F0F0F000
0000E000F04080C04000
E0F0FFF0F0608080F000
0000E000F040F040C010
ENDCHAR
STARTCHAR  5182
ENCODING  20866
SWIDTH  1000 0
DWIDTH  10 0
BBX  9 10 1 -2
BITMAP
F0F0F0F0F0F0F0F0F0
F000000000000000F0
F000000000000000F0
F000000000000000F0
F000000000000000F0
F000000000000000F0
F000000000000000F0
F000000000000000F0
F00000000060F0F0F0
000000000000000000
ENDCHAR
STARTCHAR  5185
ENCODING  20869
SWIDTH  1000 0
DWIDTH  10 0
BBX  9 10 1 -1
BITMAP
000000004000000000
00000000F000000000
F0F0F0F0FFF0F0F0E0
F0000000F0000000E0
F0000030FF200000E0
F00000C0A0C00000E0
F00060C000C04000E0
F010E0300030E010E0
F020400000003010E0
E00000000000A0F0E0
ENDCHAR
STARTCHAR  5188
ENCODING  20872
SWIDTH  1000 0
DWIDTH  10 0
BBX  9 10 1 -2
BITMAP
F0F0F0F0F0F0F0F0E0
F000000000000000F0
F030E0200020E020F0
F00060E020E04000F0
F0000080F0600000F0
F00000A0E0800000F0
F00080C010C06000F0
F040C0100010C030F0
F00000000000A0F0E0
000000000000000000
ENDCHAR
STARTCHAR  5189
ENCODING  20873
SWIDTH  1000 0
DWIDTH  10 0
BBX  10 9 0 -1
BITMAP
00000000F00000000000
00FFF0F0FFF0F0FF0000
00F00000F00000F00000
00F0E0F0FFF0F0F00000
00F00000F00000F00000
00F00000E00000F00000
F0FFF0F0F0F0F0FFF030
00F00000000000F00000
00F0000000E0E0F00000
ENDCHAR
STARTCHAR  518C
ENCODING  20876
SWIDTH  1000 0
DWIDTH  10 0
BBX  10 9 0 -1
BITMAP
00F0F0F000F0F0F0E000
00F000E000E00000F000
00F000E000E00000F000
00F000E000E00000F000
F0FFF0FFF0FFF0F0FF30
00F000E000E00000F000
00F000E000E00000F000
00F000E000E00000F000
00E080F000E000A0E000
ENDCHAR
STARTCHAR  518D
ENCODING  20877
SWIDTH  1000 0
DWIDTH  10 0
BBX  10 10 0 -2
BITMAP
10F0F0F0F0F0F0F0F0F0
0000000000F000000000
00F0F0F0F0FFF0F0FF00
00F0000000F00000F000
00F060E0E0FFE0E0F000
00F0000000E00000F000
40FFF0F0F0F0F0F0F0F0
00F0000000000000F000
00F00000000080F0F000
00000000000000000000
ENDCHAR
STARTCHAR  5192
ENCODING  20882
SWIDTH  1000 0
DWIDTH  10 0
BBX  9 9 1 -1
BITMAP
F0F0F0F0F0F0F0F0E0
F0A0E0E0E0E0E000F0
F000000000000000F0
C0A0E0E0E0E0E000C0
00FFF0F0F0F0F0F000
00F0E0E0E0E0A0F000
00F00000000000F000
00F0E0E0E0E0A0F000
00F0F0F0F0F0C0E000
ENDCHAR
STARTCHAR  5195
ENCODING  20885
SWIDTH  1000 0
DWIDTH  10 0
BBX  10 10 0 -2
BITMAP
00F0F0F0F0F0F0F0F000
00F0A0E0E0E0E0E0F000
00F0A0E0E0E0E0E0F000
0060E0E0E0E0E0800000
40FF40000030F0200000
60F0F0F0F0FFF0F0E000
00E0E0E0F0FFE0E0E000
0040A0E0808000000000
80A0400000F0F0F0F0C0
00000000000000000000
ENDCHAR
STARTCHAR  5196
ENCODING  20886
SWIDTH  1000 0
DWIDTH  10 0
BBX  9 3 1 5
BITMAP
F0F0F0F0F0F0F0F0E0
F000000000000000F0
E000000000000000E0
ENDCHAR
STARTCHAR  5197
ENCODING  20887
SWIDTH  1000 0
DWIDTH  10 0
BBX  11 9 -1 -1
BITMAP
00E0E0E0E0E0E0E0E0F000
00F000000000000000F000
00F000000000000000F000
00C000F0F0F0F0FF00C000
000000F0000000F0000000
000000F0000000F0000000
000000F0000000F0000000
000000F0000000F0000000
10F0F0E0000000E0F0F020
ENDCHAR
STARTCHAR  5199
ENCODING  20889
SWIDTH  1000 0
DWIDTH  10 0
BBX  9 9 0 -1
BITMAP
E0F0F0F0F0F0F0F0F0
F000800000000000F0
F000FFE0E0E0E0E0FF
0000F0101010101000
0000FFF0F0F0F0F0E0
0000000000000000F0
E0F0F0F0F0F0F000F0
0000000000000000F0
0000000080F0F0F0E0
ENDCHAR
STARTCHAR  519B
ENCODING  20891
SWIDTH  1000 0
DWIDTH  10 0
BBX  10 10 0 -2
BITMAP
E0F0F0F0F0F0F0F0F000
F000100000000000F000
2020F000000000002000
C0F0F0E0E0E0E0E0E000
00E0400000F000000000
20E0F0F0F0FFF0F0F010
0000000000F000000000
F0F0F0F0F0FFF0F0F020
0000000000F000000000
00000000002000000000
ENDCHAR
STARTCHAR  519C
ENCODING  20892
SWIDTH  1000 0
DWIDTH  10 0
BBX  11 10 0 -1
BITMAP
0000000040000000000000
00000030C0000000000000
00FFF0F0F0F0F0F0F0F000
00F000E01020400000F000
006040A00010E020008000
0000A040F00060C080E000
0010E000F00000E0C01000
0060A000F0000030E00000
00C04000F0000000A06000
10A00000E0F0C00010A000
ENDCHAR
STARTCHAR  51A0
ENCODING  20896
SWIDTH  1000 0
DWIDTH  10 0
BBX  10 9 0 -1
BITMAP
E0F0F0F0F0F0F0F0F000
F000000000000000E000
10E0E0E0C00000006000
0000000000F0F0F0FF40
80E0E0E0E0608000F000
000000000020E000F000
20C000E000000000F000
608000F0000060F0E000
803000E0E0E0E0E0E040
ENDCHAR
STARTCHAR  51A2
ENCODING  20898
SWIDTH  1000 0
DWIDTH  10 0
BBX  11 9 0 -1
BITMAP
00F0F0F0F0F0F0F0F0E000
00F000000000000000F000
0040E0F0FFF0E0E0404000
0060C0A0A0C0002060A000
40A0C0C0E0F080F0601000
10A0F0A030F010F0300000
408020A0E0F00060E00000
1080E08000F00000C06000
408010C0F0F0000030C010
ENDCHAR
STARTCHAR  51A4
ENCODING  20900
SWIDTH  1000 0
DWIDTH  10 0
BBX  10 9 0 -1
BITMAP
00F0F0F0F0F0F0F0F0E0
00F000000000000000F0
00E080E0E0E0F0E010E0
0060FFE0E0E0F0F0E000
0080E00000E00000F000
0000FFE0E0FFE0E0FF00
000030E0100000000000
0010E03000F000308000
00C0600000E0F0F0F0F0
ENDCHAR
STARTCHAR  51A5
ENCODING  20901
SWIDTH  1000 0
DWIDTH  10 0
BBX  10 9 0 -1
BITMAP
E0F0F0F0F0F0F0F0E000
A000000000000000A000
00FFE0E0E0E0E0FF0000
00E0A0E0E0E0E0E00000
00E00000000000E00000
00E0E0E0FFE0E0E00000
F0F0F0F0FFF0F0F0F010
104080C0008080602000
A0A06030002060A0E000
ENDCHAR
STARTCHAR  51AB
ENCODING  20907
SWIDTH  1000 0
DWIDTH  10 0
BBX  3 9 0 -1
BITMAP
808000
20C000
00E020
006040
008040
00E020
10E000
40A000
806000
ENDCHAR
STARTCHAR  51AC
ENCODING  20908
SWIDTH  1000 0
DWIDTH  10 0
BBX  10 10 0 -1
BITMAP
00600000000000000000
00E0F0F0F0F0F0F0E000
00A0000000000000F000
00E0C080202080C0E000
000060E0FFFFF0600000
80E0E080302080E0E020
8040C0A0806040303010
000020406080A0C03000
60E0E0A0806040301000
000020406080A0C0E000
ENDCHAR
STARTCHAR  51AF
ENCODING  20911
SWIDTH  1000 0
DWIDTH  10 0
BBX  10 9 0 -1
BITMAP
60A000E0F0F0F0F0F000
10E0006000000000E000
00C030F000000000E000
006060F0000000004000
004060E0E0E0E0E0E0E0
00A040000000000000E0
00E020F0F0F0F0F000E0
20C000000000000000E0
6080000000E0F0F0F0E0
ENDCHAR
STARTCHAR  51B0
ENCODING  20912
SWIDTH  1000 0
DWIDTH  10 0
BBX  11 10 -1 -1
BITMAP
0000000000004000000000
00E010000000F000106000
008060C0F0F0F000A06000
0020800060E0F060C00000
00006000A080F060A00000
0030A000E030F020E00000
00608030E000F000E02000
00A04060A000F000A06000
00E010A04000F00060A000
10A000E010C0F00010F000
ENDCHAR
STARTCHAR  51B1
ENCODING  20913
SWIDTH  1000 0
DWIDTH  10 0
BBX  10 9 0 -1
BITMAP
20E010E0E0E0E0E0E0E0
00E02000E00000000000
00806010E00000000000
0040C030C0C0F0F0FF40
00106040A0000000C020
0060806080000000E010
00A04080E0E0E0A0E000
00E0000000000000E000
30C030E0E0E0E0E0E0E0
ENDCHAR
STARTCHAR  51B2
ENCODING  20914
SWIDTH  1000 0
DWIDTH  10 0
BBX  9 11 0 -2
BITMAP
000000000000400000
A06000000000F00000
40A000E0F0F0FFF0F0
00E010F00000F000F0
004020F00000F000F0
00C030F00000F000F0
00E000F00000F000F0
30C000F0F0F0FFF0FF
608000000000F00000
A03000000000F00000
000000000000300000
ENDCHAR
STARTCHAR  51B3
ENCODING  20915
SWIDTH  1000 0
DWIDTH  10 0
BBX  10 10 0 -1
BITMAP
00000000000010000000
60A000000000E0000000
10E000E0F0F0FFF0F000
00C040000000E000F000
006060000000E000F000
004060000000E000F000
00A060E0E0F0FFE0E0C0
00E0100010C0E0800000
20E00020C04010E06000
608030C030000030F030
ENDCHAR
STARTCHAR  51B5
ENCODING  20917
SWIDTH  1000 0
DWIDTH  10 0
BBX  10 9 0 -1
BITMAP
A04000E0F0F0F0F0F000
40A000E000000000F000
00E010E000000000F000
006020E0F0F0F0C0FF00
00E02000000000000000
10E00010F00000F00000
40A00040A00000F00000
80600080600000F00000
C03000C0100000F0F0C0
ENDCHAR
STARTCHAR  51B6
ENCODING  20918
SWIDTH  1000 0
DWIDTH  10 0
BBX  10 10 0 -1
BITMAP
00000000101000000000
A0300000E03000300000
60800030C00000A06000
10E000A060000040C000
008020E0E0E0E0E0E020
00A02000000000000000
00E000F0E0E0E0E0F000
40A000F000000000F000
806000F000000000F000
C02000E0F0F0F0C0E000
ENDCHAR
STARTCHAR  51B7
ENCODING  20919
SWIDTH  1000 0
DWIDTH  10 0
BBX  10 10 0 -1
BITMAP
00000000000010000000
A04000000080F0400000
60A0000060C020E02000
00E00060E010C060C000
006040C01000F0008040
00E02000000000000000
10E000A0F0F0F0F0FF00
40A0000000000030A000
80600000000000A04000
C020000080E0E0C00000
ENDCHAR
STARTCHAR  51BB
ENCODING  20923
SWIDTH  1000 0
DWIDTH  10 0
BBX  10 10 0 -1
BITMAP
00000000000000000000
20E00000806000000000
00C020E0FFE0E0E0E0C0
00608000E00080000000
00106010E000F0000000
0040C040F0E0FFE0E0A0
008080003000F0003000
00C03010C000F000E020
00E000608000F000A060
30C0008030E0FF0040A0
ENDCHAR
STARTCHAR  51BC
ENCODING  20924
SWIDTH  1000 0
DWIDTH  10 0
BBX  10 11 0 -2
BITMAP
00000000000020000000
608000C00000F0000000
20E000E0E0E0FFE0E080
00E020000000F0000000
00606000000040000000
004040F0F0F0F0F0F0A0
00A04000A03000E00000
00E00010E00000F00000
30C00060A00000F00000
808000C0400000E0F0A0
00000000000000000000
ENDCHAR
STARTCHAR  51BD
ENCODING  20925
SWIDTH  1000 0
DWIDTH  10 0
BBX  9 10 0 -1
BITMAP
000000000000000010
C02080F0F0F01000E0
608040600000F000E0
10E060F0F0C0F000E0
0060804060C0F000E0
00E0A02080A0F000E0
20E0A0A0F080F000E0
60808000A060F000E0
A0400000C0600000E0
E01060F0F04030F0F0
ENDCHAR
STARTCHAR  51C0
ENCODING  20928
SWIDTH  1000 0
DWIDTH  10 0
BBX  10 9 0 -1
BITMAP
60400000E0F0F0F02000
40A00080A00010C00000
00E030F0F0F0FFF0FF00
00A060200000F000F000
004030F0F0F0FFF0FFA0
00C030000000F000F000
00E00080E0E0FFE0E000
40A000000000F0000000
80600000C0E0E0000000
ENDCHAR
STARTCHAR  51C4
ENCODING  20932
SWIDTH  1000 0
DWIDTH  10 0
BBX  10 11 0 -2
BITMAP
00000000000020000000
40A020E0E0E0FFE0E0A0
00E010C0E0E0FFE0E000
00A060000000F000E000
004080E0E0E0FFE0FFA0
004080C0E0E0FFE0F000
008080E0F0E0E0E0E0A0
00E02000F0802040A000
10E00010A0FFFFFFA010
40A000F0C0602040A0A0
00000000000000000000
ENDCHAR
STARTCHAR  51C6
ENCODING  20934
SWIDTH  1000 0
DWIDTH  10 0
BBX  10 10 0 -1
BITMAP
00000000100000100000
10A00000E01000F00000
00C04040FFE0E0E0E0E0
0040C0A0F00000F00000
00006000FFF0F0FFF0C0
0000E010F00000F00000
0030C000F00000F00000
00808000FFE0E0FFE0C0
00C03000F00000F00000
10E00000F0F0C0F0F0E0
ENDCHAR
STARTCHAR  51C7
ENCODING  20935
SWIDTH  1000 0
DWIDTH  10 0
BBX  10 10 0 -1
BITMAP
00000010000000000000
806000F00040A0806000
60A0E0FFE06080608000
20C060F060A04030A000
00E0C0F0C0C06030E000
0080C0F0C0E0C020E010
10E0C0F0C030E0806010
40A0C0F0C040A0806000
6080C0F0C0806040A000
A040C0F0C0A0F0F0C000
ENDCHAR
STARTCHAR  51C9
ENCODING  20937
SWIDTH  1000 0
DWIDTH  10 0
BBX  10 10 0 -1
BITMAP
00000000000010000000
40A000F0F0F0FFF0F0C0
00E00000000000000000
00A040E0F0F0F0F0F000
003060E000000000E000
004060E000000000E000
00A060E0F0F0FFC0E000
00E010606020E0604000
20E000E02020E020E010
6080104000E0C0006040
ENDCHAR
STARTCHAR  51CB
ENCODING  20939
SWIDTH  1000 0
DWIDTH  10 0
BBX  10 9 0 -1
BITMAP
608000F0F0F0F0F0F0E0
10E000F00000200000E0
00C030F060A0F0A000E0
008080F02040C04000E0
003040F0A0F0F0F000E0
00A060F000F0F0E000E0
00E010F000E000E000E0
20C000F000F0F0F000E0
608000E000000000F0E0
ENDCHAR
STARTCHAR  51CC
ENCODING  20940
SWIDTH  1000 0
DWIDTH  10 0
BBX  10 10 0 -2
BITMAP
60A000F0F0F0F0F0F010
10E000000000F0000000
00A040F0F0F0F0F0F0A0
00406060A0C030C08030
006060E0602000308080
00A040E0E0E0E0E0FF00
00E010C080301060F000
20C00040C0FFFFF06000
608000E0A0602060C0A0
00000010000000000000
ENDCHAR
STARTCHAR  51CF
ENCODING  20943
SWIDTH  1000 0
DWIDTH  10 0
BBX  11 11 0 -2
BITMAP
0000000000000010200000
60A0000000000030E0C000
10E000F0E0E0E0E0FFE020
00C040F000000000E01000
006080F0C0E0E000C03000
006080F0C0F0F000A06000
00A040F0E010F00080A010
00E010F0E010F000E0E010
20E000F0E010F00080A000
608000F0C0C0E00020C000
0000000000000000000000
ENDCHAR
STARTCHAR  51D1
ENCODING  20945
SWIDTH  1000 0
DWIDTH  10 0
BBX  11 11 0 -2
BITMAP
0000000000001000000000
10E000E0E0E0FFE0E0C000
00C020000000F000000000
00806080E0E0FFE0E0E000
003060E0E0E0FFE0E0E000
00408040E0A01080FF6000
008080C0A0E0FFE0E0A000
00A03080E0E0FFE0E0E000
00E0001060E0C0E0A03000
10C000608020001060C000
0000000000000000000000
ENDCHAR
STARTCHAR  51DB
ENCODING  20955
SWIDTH  1000 0
DWIDTH  10 0
BBX  10 10 0 -1
BITMAP
00000000000020000000
10E010E0E0E0FFE0E0E0
00C040C0E0E0E0E0E0C0
0060A0E000C0C0C000F0
001060E000FFC0FF00F0
0020C0E0E0E0E0E060F0
006080E0E0E0E0E0E030
00A04000000000000000
00E020E0E0E0FFF0E0E0
20C010C08060E060A0A0
ENDCHAR
STARTCHAR  51DD
ENCODING  20957
SWIDTH  1000 0
DWIDTH  10 0
BBX  10 10 0 -1
BITMAP
00000000000000000000
E010E0408060E0E0E000
A040E06060206080A000
6080E0F0F040A0F02000
2080800000A0F0FFE000
20A0C0F0F04040E0E000
608000A04030A0FFE020
8060F0FFF0A0C0E00000
C03020E0A060F0E00000
E000A060C0A080E0E000
ENDCHAR
STARTCHAR  51E0
ENCODING  20960
SWIDTH  1000 0
DWIDTH  10 0
BBX  10 9 0 -1
BITMAP
0000F0F0F0F0F0F00000
0000F000000000F00000
0000F000000000F00000
0000F000000000F00000
0000F000000000F00000
0000F000000000F00000
0000F000000000F00000
0000F000000000F00000
A0F0F000000000F0F0A0
ENDCHAR
STARTCHAR  51E1
ENCODING  20961
SWIDTH  1000 0
DWIDTH  10 0
BBX  10 9 0 -1
BITMAP
0000F0F0F0F0F0F00000
0000FF00000000FF0000
0000FF00E02000FF0000
0000FF00C04000FF0000
0000FF00808000FF0000
0000FF0060A000FF0000
0000FF0040C000FF0000
0000FF00108000FF0000
60FFF000000000FFFFC0
ENDCHAR
STARTCHAR  51E4
ENCODING  20964
SWIDTH  1000 0
DWIDTH  10 0
BBX  9 9 1 -1
BITMAP
F0F0F0F0F0F0F0F000
E0000000000000F000
E010F0F0F0F0F0F000
E00080000000F0F000
E000F0100010F0F000
E00080E080E060F000
E00040E0E0C020F000
E040E0300060E0F000
E0100000000010E080
ENDCHAR
STARTCHAR  51EB
ENCODING  20971
SWIDTH  1000 0
DWIDTH  10 0
BBX  10 10 0 -1
BITMAP
00000020600000000000
00F0F0F0FFF0F0F0E000
00F0000000000000F000
00F0C0F0F0F000E0E000
00F00000000000000000
00E0E0E0E0E0E0E0FF00
00E0E0E0E0E000E0FF00
00E0000000F000000000
00E0000000F000000000
80E0000000E0F0F0F040
ENDCHAR
STARTCHAR  51ED
ENCODING  20973
SWIDTH  1000 0
DWIDTH  10 0
BBX  10 10 0 -1
BITMAP
00601000000000000000
40E000F0F0F0F0F0F010
A06000000000A0000000
20E020F0F0F0FFF0F030
00F000000000C0000000
00F000E0E0E0E0E0E010
00200000000000000000
0000FFF0F0F0F0F00000
0000F000000000F00000
C0F0E000000000F0F040
ENDCHAR
STARTCHAR  51EF
ENCODING  20975
SWIDTH  1000 0
DWIDTH  10 0
BBX  10 10 0 -2
BITMAP
00E000F0E000F0F0F000
00E000C0F000E010F000
00FFE0E0F000E000F000
000000000000E000F000
80F0F0F0FF00E000F000
00000000E000E000F000
00FFF0F0F000E000F000
00E000000000E000F000
00E0E0E0E010E000E0A0
00000000000010000000
ENDCHAR
STARTCHAR  51F0
ENCODING  20976
SWIDTH  1000 0
DWIDTH  10 0
BBX  10 10 1 -2
BITMAP
F0E0E0E0E0E0E0E0E000
F000000040000000F000
F0E0E0E0E0E0FF00F000
F0E030E0E0E0F000F000
F0C0E0E0E0E0E000F000
F080E0E0E0E0C000F000
F080E0E0FFE0E000F000
F0000010E0000000F000
F0C0E0E0E0E0E000F020
10000000000000000000
ENDCHAR
STARTCHAR  51F3
ENCODING  20979
SWIDTH  1000 0
DWIDTH  10 0
BBX  10 10 0 -1
BITMAP
00000000002000000000
C0F0F0F000F040C0C000
A0C0C0F000F0A0E0C000
80C0A0E0E0E0E0C0C010
30A0E0E0E0E0E0E08010
00C0E0E0E0E0E0C08000
00204000000000401000
C0E0E0E0E0E0E0E0E020
0020E0E0E0E0E0E00000
C0F0A000000000E0F020
ENDCHAR
STARTCHAR  51F5
ENCODING  20981
SWIDTH  1000 0
DWIDTH  10 0
BBX  9 9 1 -1
BITMAP
E000000000000000E0
E000000000000000E0
E000000000000000E0
E000000000000000E0
E000000000000000E0
E000000000000000E0
E000000000000000E0
E000000000000000E0
F0F0F0F0F0F0F0A0C0
ENDCHAR
STARTCHAR  51F6
ENCODING  20982
SWIDTH  1000 0
DWIDTH  10 0
BBX  9 9 1 -1
BITMAP
10E04000000060E000
8030E0100030E02080
F00060C010E04000F0
F00000A0E0800000F0
F0000060FF400000F0
F00030E040E01000F0
F010E0400060C000F0
F040600000006030F0
E0E0E0E0E0E0E0C0F0
ENDCHAR
STARTCHAR  51F8
ENCODING  20984
SWIDTH  1000 0
DWIDTH  10 0
BBX  9 9 1 -1
BITMAP
0000E0F0F0F0E00000
0000F0000000F00000
0000F0000000F00000
FFF0F0000000F0F0E0
E000000000000000E0
E000000000000000E0
E000000000000000E0
E000000000000000E0
F0F0F0F0F0F0F0C0E0
ENDCHAR
STARTCHAR  51F9
ENCODING  20985
SWIDTH  1000 0
DWIDTH  10 0
BBX  9 9 1 -1
BITMAP
F0F0F00000E0F0F0E0
F000F00000F00000F0
F000F00000F00000F0
F000F00000F00000F0
F000F0F0A0FF0000F0
F000000000000000F0
F000000000000000F0
F000000000000000F0
F0F0F0F0F0F0F0A0F0
ENDCHAR
STARTCHAR  51FA
ENCODING  20986
SWIDTH  1000 0
DWIDTH  10 0
BBX  8 9 1 -1
BITMAP
F0000000F00000F0
F0000000F00000F0
F0000000F00000F0
FFE0E0E0FFE0E0F0
00000000F0000010
F0000000F00000F0
F0000000F00000F0
F0000000C00000F0
F0F0F0F0F0F0E0F0
ENDCHAR
STARTCHAR  51FB
ENCODING  20987
SWIDTH  1000 0
DWIDTH  10 0
BBX  10 9 0 -1
BITMAP
00000000F00000000000
C0F0F0F0FFF0F0F0F000
00000000F00000000000
F0F0F0F0FFF0F0F0F040
00000000F00000000000
80000000F00000008000
F0000000F0000000F000
F0000000A0000000F000
E0F0F0F0F0F0F080E000
ENDCHAR
STARTCHAR  51FC
ENCODING  20988
SWIDTH  1000 0
DWIDTH  10 0
BBX  9 10 1 -1
BITMAP
000000004000000000
40000000E000A06040
F0C0E0C0E030C000F0
F00060A0E0603000F0
F000C040E0808000F0
F010E000E030C000F0
F060A000E000E020F0
F0A040A0FF008060F0
F010000000000010F0
E0E0E0E0E0E0E0C0F0
ENDCHAR
STARTCHAR  51FD
ENCODING  20989
SWIDTH  1000 0
DWIDTH  10 0
BBX  9 9 1 -1
BITMAP
00F0F0F0F0F0F0C000
3030000040E0802030
F080E040F060C080F0
F0002060F0603000F0
F0004080F0602000F0
F0A0A020F030C060F0
F02000E0F0000030F0
F000000000000000F0
E0E0E0E0E0E0E0C0F0
ENDCHAR
STARTCHAR  51FF
ENCODING  20991
SWIDTH  1000 0
DWIDTH  10 0
BBX  10 10 0 -1
BITMAP
00000030003000000000
80E000F000F00080A000
20A020F000F000803000
F0F0F0FFF0FFF0F0F030
60003030003040006000
F000E0F0E0F0F080F000
F0000000F0000000F000
F000E0E0FFE0E080F000
F0000000A0000000F000
E0F0F0F0F0F0F0C0F000
ENDCHAR
STARTCHAR  5200
ENCODING  20992
SWIDTH  1000 0
DWIDTH  10 0
BBX  9 9 0 -1
BITMAP
E0F0F0F0F0F0F0F0F0
0000600000000000FF
0030E00000000000FF
0080A00000000000FF
00C0600000000000FF
00F0200000000000FF
30E0000000000000FF
80A0000000000000FF
C060000000E0F0F0F0
ENDCHAR
STARTCHAR  5201
ENCODING  20993
SWIDTH  1000 0
DWIDTH  10 0
BBX  9 9 0 -1
BITMAP
C0FFFFFFFFFFFFFFFF
0000000000000000FF
0000000000006040FF
0000000030E0C020FF
000010A0E0600000FF
0060E08010000000FF
C0C0300000000000FF
6000000000000000FF
00000000F0FFFFFFFF
ENDCHAR
STARTCHAR  5202
ENCODING  20994
SWIDTH  1000 0
DWIDTH  10 0
BBX  3 10 7 -1
BITMAP
000000
1000F0
F000F0
F000F0
F000F0
F000F0
F000F0
F000F0
0000F0
60F0E0
ENDCHAR
STARTCHAR  5203
ENCODING  20995
SWIDTH  1000 0
DWIDTH  10 0
BBX  10 9 -1 -1
BITMAP
00C0F0F0F0F0F0F0F0F0
000000004060000000F0
0000C010A040000000F0
0020E000E010000000F0
0060A030C000000000F0
00A060808000000000F0
00E010C04000000000F0
003000F00000000000F0
000030C00000C0F0F0F0
ENDCHAR
STARTCHAR  5206
ENCODING  20998
SWIDTH  1000 0
DWIDTH  10 0
BBX  10 10 0 -1
BITMAP
00004040000030400000
0010E020000020E01000
0080A000000000A08000
10E0200000000020E010
80A0A0E0E0E0E0E0A080
00002060101010E00000
00008080000000E00000
0000E020000000E00000
0030C000000000E00000
0080600000E0F0F00000
ENDCHAR
STARTCHAR  5207
ENCODING  20999
SWIDTH  1000 0
DWIDTH  10 0
BBX  10 10 0 -1
BITMAP
00000000000000000000
0000F00030E0E0E0E0E0
0000F0000010600000F0
30F0FFF04020C00000F0
0000F0000040A00000F0
0000F0000060800000F0
0000F0000080600000F0
0000F00000A0300000F0
0000F00000E0100000F0
0000E0E020E00060E0F0
ENDCHAR
STARTCHAR  5208
ENCODING  21000
SWIDTH  1000 0
DWIDTH  10 0
BBX  9 10 0 -1
BITMAP
000000000000000010
60A00000C0604000F0
00E02030E000F000F0
008080A06000F000F0
0010E0E00000F000F0
0000A0A00000F000F0
0010E0E01000F000F0
008080A08000F000F0
10E01020E0100000F0
606000008040A0E0E0
ENDCHAR
STARTCHAR  520A
ENCODING  21002
SWIDTH  1000 0
DWIDTH  10 0
BBX  10 10 -1 -1
BITMAP
00000000000000000010
00E0E0E0E0E0101000E0
00000080000000F000E0
000000E0000000F000E0
000000E0000000F000E0
000000E0000000F000E0
10E0E0FFE0E020F000E0
000000E0000000F000E0
000000E00000003000E0
000000E000000080F0E0
ENDCHAR
STARTCHAR  520D
ENCODING  21005
SWIDTH  1000 0
DWIDTH  10 0
BBX  9 9 0 -1
BITMAP
0020F0F0F0F0F0E000
008080000000808000
00E020000000E02000
40A0E0F0F0F0F0F0FF
0000000000000000F0
00E0E0E0E0E0E0A0F0
0000000000000000F0
0000000000000000F0
00F0F0F0F0F0F0F0E0
ENDCHAR
STARTCHAR  520E
ENCODING  21006
SWIDTH  1000 0
DWIDTH  10 0
BBX  10 10 0 -1
BITMAP
00000000000000000000
00F000000000000000F0
00F0F0F0F0FF00F000F0
0030606030E000F000F0
008060A030E000F000F0
00A040E010E000F000F0
00C020E000E000F000F0
00E020C000E000E000F0
20E040A000E0000000F0
40A06060E0F00060F0E0
ENDCHAR
STARTCHAR  5211
ENCODING  21009
SWIDTH  1000 0
DWIDTH  10 0
BBX  10 10 0 -1
BITMAP
00000000000000000010
30F0F0F0F0F0002000F0
00801000A00000E000F0
00E00000F00000E000F0
00E00000F00000E000F0
40FFF0F0FFF010E000F0
00E02000F00000E000F0
00E01000F00000E000F0
00E00000F000000000F0
00E00000F0000080F0E0
ENDCHAR
STARTCHAR  5212
ENCODING  21010
SWIDTH  1000 0
DWIDTH  10 0
BBX  9 10 0 -1
BITMAP
000000000000000000
00C04020E0008000E0
0060A0008010E000E0
1080F0C0E0E0E000E0
3080E0601000E000E0
000080800060E000E0
000030E0E0A0E000E0
1060E0F04000E000E0
80A030A060000000E0
10000040F0F060F0F0
ENDCHAR
STARTCHAR  5216
ENCODING  21014
SWIDTH  1000 0
DWIDTH  10 0
BBX  9 10 1 -1
BITMAP
000000000000000010
F0F0F0F0E0002000F0
F0000000E000F000F0
F0000000E000F000F0
F0E0E060E000F000F0
F0000000E000F000F0
F0F0F060E000F000F0
F0000000E000F000F0
F0000000E0002000F0
E00060F0E00080F0E0
ENDCHAR
STARTCHAR  5217
ENCODING  21015
SWIDTH  1000 0
DWIDTH  10 0
BBX  10 10 -1 -1
BITMAP
00000000000000000000
00C0F0F0F0F0000000E0
0030A000000000F000E0
0060F0F0F0E000F000E0
0080600020C000F000E0
00A0300040A000F000E0
00E080F080A000F000E0
00E00000808000C000E0
000000008060000000E0
00A0F0F0F04000A0F0E0
ENDCHAR
STARTCHAR  5218
ENCODING  21016
SWIDTH  1000 0
DWIDTH  10 0
BBX  9 9 0 -1
BITMAP
000000C000000000C0
80F0F0F0FFF000E0F0
00800000E00000E0F0
00F00000E00000E0F0
00F00000E00000E0F0
00A0A040C00000E0F0
0000A0FF300000E0F0
0020E0E080000080F0
30E06010F08040F0F0
ENDCHAR
STARTCHAR  5219
ENCODING  21017
SWIDTH  1000 0
DWIDTH  10 0
BBX  10 10 0 -1
BITMAP
00000000000000000020
00E0E0E0E0E0003000F0
00E0004000F000F000F0
00E000F000F000F000F0
00E000F000F000F000F0
00E000F000F000F000F0
00E000F000F000F000F0
006040FF406000F000F0
0020E040E020000000F0
00C0400060C000A0E0E0
ENDCHAR
STARTCHAR  521A
ENCODING  21018
SWIDTH  1000 0
DWIDTH  10 0
BBX  9 10 1 -1
BITMAP
000000000000000010
F0F0F0F0F0001000F0
F0000000F000F000F0
F0C040C0F000F000F0
F080E040F000F000F0
F020F000F000F000F0
F040FF10F000F000F0
F080A060F000F000F0
F0E020C0F0000010F0
E00000E0F00030E0E0
ENDCHAR
STARTCHAR  521B
ENCODING  21019
SWIDTH  1000 0
DWIDTH  10 0
BBX  9 10 0 -1
BITMAP
000000000000000000
000040E030001000E0
00A0E060E030F000E0
C0A0100030E0F000E0
600000000040F000E0
00FFF0F0F0E0F000E0
00F0000010E0F000E0
00F010F0F0C0F000E0
00F0000000000000E0
00F0F0F0F0F0C0F0F0
ENDCHAR
STARTCHAR  521D
ENCODING  21021
SWIDTH  1000 0
DWIDTH  10 0
BBX  10 10 0 -1
BITMAP
00001000000000000000
0000E00020F0F0F0F0E0
0000A0000010800000F0
30F0F0F01030C00000F0
000080C00060A00000F0
0060F0401080800000F0
20E0F0C020A0600000F0
2020F0E020C0400000F0
0000F02010E0200000F0
0000E00000E00060F0E0
ENDCHAR
STARTCHAR  5220
ENCODING  21024
SWIDTH  1000 0
DWIDTH  10 0
BBX  10 10 0 -1
BITMAP
00000000000000000010
00E0F0E0E0F0E01000E0
00F000E0F000E0F000E0
00F000E0F000E0F000E0
00F000E0F000E0F000E0
40FFF0FFFFF0FFF000E0
00F000E0F000E0F000E0
00F000E0F000E0F000E0
00F000E0F000E00000E0
00E000E0E000E010F0E0
ENDCHAR
STARTCHAR  5224
ENCODING  21028
SWIDTH  1000 0
DWIDTH  10 0
BBX  10 10 0 -1
BITMAP
00000020000000000020
10E000F000E0004000F0
00C040F040A000E000F0
001010F0101000E000F0
00F0F0FFF0E000E000F0
000000F0000000E000F0
40E0E0FFE0E000E000F0
000040A0000000E000F0
000080600000000000F0
0000C02000000080F0E0
ENDCHAR
STARTCHAR  5228
ENCODING  21032
SWIDTH  1000 0
DWIDTH  10 0
BBX  9 9 1 -1
BITMAP
A00000000000A00080
E0E0E0E0FF00F000F0
F0F0F000F000F000F0
F000F000F000F000F0
F000F000F000F000F0
FFF0FF00F000F000F0
F00000000000F000F0
F000000000000000F0
E0E0E0E0E00080E0E0
ENDCHAR
STARTCHAR  5229
ENCODING  21033
SWIDTH  1000 0
DWIDTH  10 0
BBX  10 10 0 -1
BITMAP
00000000000000000010
00F0F0F0F0E0004000E0
00000080000000F000E0
000000F0000000F000E0
40F0F0FFF0F000F000E0
001000F0101000F000E0
00A040F0608000F000E0
00E020F020C000F000E0
10F000F000E0003000E0
40C000F000C00060F0E0
ENDCHAR
STARTCHAR  522B
ENCODING  21035
SWIDTH  1000 0
DWIDTH  10 0
BBX  10 10 0 -1
BITMAP
00000000000000000010
00F0F0F0F0E0001000F0
00F0000000E020E000F0
00F0000000E020E000F0
00FFF0F0A0E020E000F0
00208000000020E000F0
10F0FFF0F0E020E000F0
0080800000E020E000F0
00C0400000E0000000F0
00E02040E0E000E0F0E0
ENDCHAR
STARTCHAR  522D
ENCODING  21037
SWIDTH  1000 0
DWIDTH  10 0
BBX  9 9 0 -1
BITMAP
10F0F0F0F0E00030E0
00000030C0C000E0F0
001080FFC00000E0F0
40E0A040C0C000E0F0
60400000008000E0F0
00F0F0F0F0E000E0F0
000000F0000000E0F0
000000C000000030F0
40F0F0F0F0F060F0F0
ENDCHAR
STARTCHAR  522E
ENCODING  21038
SWIDTH  1000 0
DWIDTH  10 0
BBX  10 10 0 -1
BITMAP
00000000000000000010
00F0F0F0F0E0000000F0
000000E0000000E000F0
20C0C0FFC0C000E000F0
003030F0303000E000F0
00000060000000E000F0
00F0F0F0F0F000E000F0
00F0000000F000E000F0
00F0000000F0008000F0
00E0F0F0A0E00060F0E0
ENDCHAR
STARTCHAR  5230
ENCODING  21040
SWIDTH  1000 0
DWIDTH  10 0
BBX  10 10 0 -1
BITMAP
00000000000000000010
20E0E0E0E0E0300000F0
00608000201000E000F0
00A0400060A000E000F0
10F0E0E0F0E000E000F0
00000020000000E000F0
104040F0404000E000F0
108080F0808000C000F0
000000F00000000000F0
20E0E0E0E0E00040E0E0
ENDCHAR
STARTCHAR  5233
ENCODING  21043
SWIDTH  1000 0
DWIDTH  10 0
BBX  9 10 0 -1
BITMAP
000010100000000030
0000806000006000E0
C0F0FFF0F0E0F000E0
60C080A0A040F000E0
A080E0E0FFA0F000E0
000000000000F000E0
E0FFE0E0E0E0F000E0
00E0F0F0F000F000E0
00000000E0001000E0
00A0F0F0F00030F0E0
ENDCHAR
STARTCHAR  5236
ENCODING  21046
SWIDTH  1000 0
DWIDTH  10 0
BBX  9 11 0 -2
BITMAP
000000100000000010
00E000F000000080F0
00FFF0FFF0F000F0F0
000000F0000000F0F0
C0F0F0FFF0F000F0F0
000000F0000000F0F0
00FFF0FFF0E000F0F0
00E000F000F000F0F0
00E000F000F00000F0
00E000F080E040E0E0
000000100000000000
ENDCHAR
STARTCHAR  5237
ENCODING  21047
SWIDTH  1000 0
DWIDTH  10 0
BBX  9 10 1 -1
BITMAP
000000000000000010
F0F0F0F0F0000000E0
E0000000F000F000E0
FFF0F0F0FF00F000E0
E00000800000F000E0
E0E0E0FFE020F000E0
E0F000F0E020F000E0
E0F000F0E020F000E0
E0F000F0E0202000E0
E06000F0401030F0E0
ENDCHAR
STARTCHAR  5238
ENCODING  21048
SWIDTH  1000 0
DWIDTH  10 0
BBX  11 10 -1 -1
BITMAP
0000101000400010100000
0000808000F000E0300000
0080F0FFF0FFF0FFF0F000
0000000000F00000000000
00F0F0F0F0FFF0F0F0F030
000060C0000010E0400000
0030F0F0F0F0F0FFF03000
00A04060400000F040A010
000010E0100000F0000000
0000808000E0F0F0000000
ENDCHAR
STARTCHAR  5239
ENCODING  21049
SWIDTH  1000 0
DWIDTH  10 0
BBX  9 10 0 -1
BITMAP
000000000000000010
4080100020A00000E0
10A0E080E06000F0E0
0060E0E0C02000F0E0
A0C0202060E000F0E0
200000F0001000F0E0
A0F0F0FFF0F000F0E0
006010F0304000F0E0
30E000F020C00010E0
A08080E000C040E0E0
ENDCHAR
STARTCHAR  523A
ENCODING  21050
SWIDTH  1000 0
DWIDTH  10 0
BBX  9 9 0 -1
BITMAP
000000F000000010E0
80E0E0FFE0E000F0E0
00F0F0FFF0E000F0E0
00F000F000E000F0E0
00F000F000E000F0E0
002030F0401000F0E0
00A060F0806000F0E0
10F010F030C00000E0
60A000F000C030F0F0
ENDCHAR
STARTCHAR  523B
ENCODING  21051
SWIDTH  1000 0
DWIDTH  10 0
BBX  9 10 0 -2
BITMAP
000000E000000080C0
60F0FFF0F0F000F0E0
0060A020801000F0E0
30F0F0FF800000F0E0
0010E0A030A000F0E0
0080E030E03000F0E0
30F030E0C00000F0E0
1020C080E0600000E0
00A0A00020F080F0F0
001000000000000000
ENDCHAR
STARTCHAR  523D
ENCODING  21053
SWIDTH  1000 0
DWIDTH  10 0
BBX  9 9 0 -1
BITMAP
000040A010000030A0
0030E060A00000E0E0
20E04000808000E0E0
40600000008000E0E0
00F0F0F0F0A000E0E0
A0F0F0F0F0F000E0E0
0060A000101000E0E0
00A0600040A00020E0
00E0F0F0F0C040F0F0
ENDCHAR
STARTCHAR  523F
ENCODING  21055
SWIDTH  1000 0
DWIDTH  10 0
BBX  10 10 0 -1
BITMAP
00100000001000000000
00E000F000F0003000E0
00E000F000F000F000E0
00FFF0F0E0FF00F000E0
00000000000000F000E0
0080F0F0F0E000F000E0
00E0000040A000F000E0
30A0C0E0806000F000E0
00000000E010002010E0
20E0E0E0C0000060E0C0
ENDCHAR
STARTCHAR  5240
ENCODING  21056
SWIDTH  1000 0
DWIDTH  10 0
BBX  10 9 0 -1
BITMAP
00E000F000E0002000F0
00F000E000E000F000F0
00FFC0C0A0E000F000F0
00000000000000F000F0
20E0E0E0E0F000F000F0
0000000000F000F000F0
00FFE0E0E0E000F000F0
00F000000000002000F0
00F0F0F0F0F00060F0E0
ENDCHAR
STARTCHAR  5241
ENCODING  21057
SWIDTH  1000 0
DWIDTH  10 0
BBX  10 10 0 -1
BITMAP
00000000000000000010
00F0F0F0F000006000E0
00F00000F00000E000E0
00F00000F00000E000E0
00E00040E0F000E000E0
60F0F0FFF0C000E000E0
004010E0600000E000E0
00E010E0C02000E000E0
20E000E08060000000E0
408000E040A000A0F0E0
ENDCHAR
STARTCHAR  5242
ENCODING  21058
SWIDTH  1000 0
DWIDTH  10 0
BBX  9 9 0 -1
BITMAP
000000A000000060A0
60F0F0F0F0F000F0F0
00A03000606000F0F0
0040F0F0A01000F0F0
40E08040C0A000F0F0
30804000C04000F0F0
00A04000F00000F0F0
00C03000F0000000F0
00E02000F00060F0F0
ENDCHAR
STARTCHAR  5243
ENCODING  21059
SWIDTH  1000 0
DWIDTH  10 0
BBX  10 9 0 -1
BITMAP
00808010C030001000E0
20E0E0FFE0E000F000F0
000000F000E000F000F0
00F0F0FFE0E000F000F0
00F000F0000000F000F0
00FFF0FFF0F000F000F0
004030F000E000F000F0
00C030F020F0000010F0
00E000F060A00040E0C0
ENDCHAR
STARTCHAR  524A
ENCODING  21066
SWIDTH  1000 0
DWIDTH  10 0
BBX  10 10 0 -1
BITMAP
00001040000000000040
00C040F030A0002000F0
00C040F0A0A000E000F0
00E0F0FFE0E000E000F0
00F0000000F000E000F0
00F0E0E020F000E000F0
00F0000000F000E000F0
00F0F0F020F000E000F0
00F0000000F0000000F0
00E00000E0E00060E0E0
ENDCHAR
STARTCHAR  524C
ENCODING  21068
SWIDTH  1000 0
DWIDTH  10 0
BBX  9 11 0 -2
BITMAP
000000200000000020
000000F000000000E0
A0E0E0FFE0E000E0E0
00F0F0FFF0E000E0E0
00F000F000F000E0E0
00F000F000F000E0E0
00E0E0FFE0E000E0E0
006030F0304000E0E0
20F010F010A00080E0
80A000F000A010F0F0
000000000000000000
ENDCHAR
STARTCHAR  524D
ENCODING  21069
SWIDTH  1000 0
DWIDTH  10 0
BBX  10 10 0 -1
BITMAP
00000000000000000000
0010C000000080800000
E0E0E0E0E0E0E0E0E010
00000000000010001000
F0E0E0E0F000F000E000
F000E0E0F000F000E000
F0000000F000F000E000
F000F0F0F000F000E000
F0000000F0004000E000
E00010F0E00060F0E000
ENDCHAR
STARTCHAR  5250
ENCODING  21072
SWIDTH  1000 0
DWIDTH  10 0
BBX  10 10 0 -1
BITMAP
00000000000000000010
00F0F0F0F0F0002000F0
00F0000000E000F000F0
00FFF0F0E0F000F000F0
00000080000000F000F0
20E0E0FFE0E020F000F0
20C000E000C020F000F0
20C060E060C020F000F0
20C0802080C0202000F0
20C0000080F02040F0E0
ENDCHAR
STARTCHAR  5251
ENCODING  21073
SWIDTH  1000 0
DWIDTH  10 0
BBX  9 10 0 -1
BITMAP
000000000000000000
001080E040000030E0
40E06010C08000E0F0
60200000008000E0F0
00F0F0F0F0A000E0F0
40A0606010A000E0F0
20E040A0608000E0F0
00E030C0A06000E0F0
0000000000000010F0
80F0F0F0F0E060F0F0
ENDCHAR
STARTCHAR  5254
ENCODING  21076
SWIDTH  1000 0
DWIDTH  10 0
BBX  10 10 0 -1
BITMAP
00000000000000000010
00F0F0F0F0F0001000E0
00F0C0F0F0F000E000E0
00F0000000F000E000E0
00FFF0F0F0E000E000E0
00FFF0F0F0E000E000E0
0040306010F000E000E0
00A030E000F000E000E0
00E040A000F0000010E0
30A08060C0E00040E0E0
ENDCHAR
STARTCHAR  5256
ENCODING  21078
SWIDTH  1000 0
DWIDTH  10 0
BBX  9 10 0 -1
BITMAP
000000600000000060
60F0F0FFF0E00000F0
00800000206000F0F0
00E02000608000F0F0
00603000604000F0F0
80F0F0F0F0F000F0F0
00F0F0F0F0E000F0F0
00E0000000F000F0F0
00E0000000F00080F0
00F0F0F0C0E040F0F0
ENDCHAR
STARTCHAR  525C
ENCODING  21084
SWIDTH  1000 0
DWIDTH  10 0
BBX  9 10 1 -1
BITMAP
000060000000000060
E0E0FFE0E0E01000E0
F000000000F0F000E0
100000000010F000E0
E0F0E0F0F0E0F000E0
E060E0F010E0F000E0
E0C0E0F010E0F000E0
E080E0F010E0F000E0
00A060F000000000E0
60A000E0F0C040F0E0
ENDCHAR
STARTCHAR  525E
ENCODING  21086
SWIDTH  1000 0
DWIDTH  10 0
BBX  9 10 0 -1
BITMAP
000000300000000040
000000F000000030F0
C0F0FFFFF0E000F0F0
30C0E0A0C04000F0F0
80400000208000F0F0
C0F0F0F0F0F000F0F0
00000000008000F0F0
F0F0F0F000F000F0F0
F00000F000F00040F0
E0E080E080E000E0E0
ENDCHAR
STARTCHAR  5261
ENCODING  21089
SWIDTH  1000 0
DWIDTH  10 0
BBX  9 11 0 -2
BITMAP
000000000000000010
60A000E010E00000F0
10F010E0408000F0F0
0030C0E0A01000F0F0
60E0400080E000F0F0
602000C0006000F0F0
60C000E010C000F0F0
10E020F0608000F0F0
1080E0A0E04000A0F0
A080100030E030F0F0
000000000000000000
ENDCHAR
STARTCHAR  5265
ENCODING  21093
SWIDTH  1000 0
DWIDTH  10 0
BBX  9 10 0 -1
BITMAP
000000000000000020
80F0F0F0F0E00010E0
0000000000E000F0E0
A0F0F0F000E000F0E0
A0F0F0F0F0FF00F0E0
40400060106000F0E0
20F020F0A08000F0E0
008040F0803000F0E0
40E010F080800000E0
8060A0E010A060F0F0
ENDCHAR
STARTCHAR  5267
ENCODING  21095
SWIDTH  1000 0
DWIDTH  10 0
BBX  9 10 1 -1
BITMAP
000000000000000010
F0F0F0F0F0E08000F0
F000000000F0F000F0
FFF0F0E080F0F000F0
F00000600000F000F0
F0E0E0FFE040F000F0
F00000F00000F000F0
F0E0F0F0F0E0F000F0
F0E0000010E00000F0
F0E0E0C080C020E0E0
ENDCHAR
STARTCHAR  5269
ENCODING  21097
SWIDTH  1000 0
DWIDTH  10 0
BBX  9 10 0 -1
BITMAP
000000000000000010
60E0E0F0E0E00010F0
000000E0000000E0F0
F0FFF0FFFFF020E0F0
A0F000E0F08000E0F0
80F000E0F06000E0F0
80F000E0F0E000E0F0
008000E0801000E0F0
40A000E080800000F0
803000E020C020F0E0
ENDCHAR
STARTCHAR  526A
ENCODING  21098
SWIDTH  1000 0
DWIDTH  10 0
BBX  10 10 0 -1
BITMAP
00106010000040200000
F0F0FFF0F0F0FFF0F020
00000000000010001000
E0E0E0E0F000F000F000
E000A0A0F000F000F000
E000FFFFF0008000F000
C0000000E00060F0E000
A0E0E0E0E0E0E0E0C000
0040E03000000010E000
60F0400000E0E0E0C000
ENDCHAR
STARTCHAR  526F
ENCODING  21103
SWIDTH  1000 0
DWIDTH  10 0
BBX  9 10 0 -1
BITMAP
000000000000000010
A0F0F0F0F0F00000F0
A0F0F0F0F0A000E0F0
C020000020C000E0F0
C0E0E0E080C000E0F0
00000000000000E0F0
F0F0F0F0F0F000E0F0
F040A0F020F000E0F0
F02040E010F00000F0
E0E0E0E080E040F0F0
ENDCHAR
STARTCHAR  5272
ENCODING  21106
SWIDTH  1000 0
DWIDTH  10 0
BBX  9 10 0 -1
BITMAP
000000600000000040
E0F0F0FFF0E00080F0
A000006000A000F0F0
20E0E0FFE0E000F0F0
000000E0000000F0F0
00E0E0FFE0C000F0F0
80E0E0FFE0E000F0F0
00E0E0FFE0E000F0F0
00F0000000F00000F0
00F0F0F0C0E020F0F0
ENDCHAR
STARTCHAR  527D
ENCODING  21117
SWIDTH  1000 0
DWIDTH  10 0
BBX  9 10 0 -1
BITMAP
000000000000000000
A0E0E0E0E0E00030F0
C0E0FFFFE0C000F0F0
E000E0E000F000F0F0
E0E0E0E080F000F0F0
20E0E0E0E0E000F0F0
00000000000000F0F0
80E0E0FFE0E000F0F0
40C000F0A0A00020F0
803080E010C030F0F0
ENDCHAR
STARTCHAR  527F
ENCODING  21119
SWIDTH  1000 0
DWIDTH  10 0
BBX  9 9 0 -1
BITMAP
10C060E060A00000F0
30E060E0808000F0F0
00F0F0F0F0E000F0F0
00F000F000E000F0F0
00F0A0FFA0E000F0F0
00E0E0FFC0C000F0F0
A0E0E0FFE0E000F0F0
004030F0403000A0F0
30E010E020C030F0F0
ENDCHAR
STARTCHAR  5281
ENCODING  21121
SWIDTH  1000 0
DWIDTH  10 0
BBX  9 9 0 -1
BITMAP
00A010A000000010A0
40FFE0FFE0E010F0E0
60FFE0FFE0E000F0E0
00F000F0000000F0E0
00FFE0FFE0E000F0E0
00F000F0000000F0E0
00E0F0F0F0F010F0E0
30C0C0C060F01000E0
6060808080A060F0F0
ENDCHAR
STARTCHAR  5282
ENCODING  21122
SWIDTH  1000 0
DWIDTH  10 0
BBX  9 10 1 -1
BITMAP
000000000000000010
F0F0F0F0F0F00000F0
E0A060A0C0E000E0F0
E0E0F0F0E0E000E0F0
E060C060E0E000E0F0
E0E0C0E0608000E0F0
E0E0C0E000E000E0F0
E0C0FFC020E000E0F0
E010F00080F02080F0
E030C000E06040C0E0
ENDCHAR
STARTCHAR  5288
ENCODING  21128
SWIDTH  1000 0
DWIDTH  10 0
BBX  11 11 0 -2
BITMAP
0000000000000060000000
00F0F0F0F010F0FFF0F000
00F00000E000800060A000
00FFF0C0E020FFF0FFF010
00F0E0F0F01000F0000000
00F0E0E0F020F0FFF0F000
0000000000000020000000
00F0F0F0F0F0F0F0F0E000
0000C0300000000000E000
0030A00000A0F0F0F0E000
0000000000000000000000
ENDCHAR
STARTCHAR  5290
ENCODING  21136
SWIDTH  1000 0
DWIDTH  10 0
BBX  9 11 0 -2
BITMAP
000000000000000000
60F08080F0800000E0
80A060A0A06000F0E0
A0E0E0FFE0C000F0E0
E0C0C0FFC0C000F0E0
F0C0C0FFC0C000F0E0
C0E080C0E0C000F0E0
60E0E0E0E0E000F0E0
60C080C0F0800080E0
60A06080C0E010F0F0
000000000000000000
ENDCHAR
STARTCHAR  5293
ENCODING  21139
SWIDTH  1000 0
DWIDTH  10 0
BBX  9 10 0 -1
BITMAP
000030100000000020
E0E0E0E0E0C01000F0
F080C0A000E0E000F0
F080C0A000E0E000F0
C0E0E0A080C0E000F0
E0E0F0E0E0E0E000F0
F0C0F0E010F0E000F0
E0E0F0E080E0E000F0
C0E0E0E0E0E00000F0
60600000E00010F0F0
ENDCHAR
STARTCHAR  529B
ENCODING  21147
SWIDTH  1000 0
DWIDTH  10 0
BBX  9 10 0 -1
BITMAP
000060300000000000
0000E0200000000000
F0F0FFF0F0F0F0F0F0
0040C00000000000F0
0080800000000000F0
00C0400000000000F0
00F0100000000000F0
30E0000000000000F0
60A0000000000000F0
80400000A0F0F0F0F0
ENDCHAR
STARTCHAR  529D
ENCODING  21149
SWIDTH  1000 0
DWIDTH  10 0
BBX  10 10 0 -2
BITMAP
00000000000080600000
10F0F0F0F0A0F0F0F0E0
00F00000F000C04000E0
00F00000F000E02000E0
00F00000F000E01000E0
00C080A0A000F00000E0
0010E0E00010E00000E0
0040E0E03030C00000E0
10E03040C040A020F0E0
00000000000010000000
ENDCHAR
STARTCHAR  529E
ENCODING  21150
SWIDTH  1000 0
DWIDTH  10 0
BBX  10 11 0 -2
BITMAP
00000010100000000000
00000080600000000000
30F0F0F0F0F0F0F00000
002010C0200000F06060
00C020E0100000F06080
00E000E0000000F040A0
00E010E0000000F030C0
10E030A0000000F010E0
30A06080000000F000E0
000080800060F0E00000
00003020000000000000
ENDCHAR
STARTCHAR  529F
ENCODING  21151
SWIDTH  1000 0
DWIDTH  10 0
BBX  9 10 0 -2
BITMAP
000000000080400000
C0F0F0F0E0FFF0F0FF
0000F00000E01000E0
0000F00000E00000E0
0000F00010E00000E0
0000F00030C00000E0
0000F00040A00000E0
0000600060800000E0
A0E0E0E0806010E0E0
000000004020000000
ENDCHAR
STARTCHAR  52A0
ENCODING  21152
SWIDTH  1000 0
DWIDTH  10 0
BBX  10 10 0 -2
BITMAP
0020A000000000000000
60F0FFF0F000E0F0F0E0
00608000F000E00000E0
00806000F000E00000E0
00A04000F000E00000E0
00C02000F000E00000E0
00E00000F000E00000E0
00E00000F000E00000E0
20C020F0E000E0F0A0E0
00100000000000000000
ENDCHAR
STARTCHAR  52A1
ENCODING  21153
SWIDTH  1000 0
DWIDTH  10 0
BBX  11 11 -1 -2
BITMAP
0000800000000000000000
0000FFF0F0F0F0F0F01000
0000A03000001060F01000
000060C0E0A0E0A0400000
002080E0A080E0E0804000
00C060406000002060C020
10E0E0F0F0E0E0E0E00000
000010E000000000F00000
0000608000000000F00000
0000E0300080F0F0F00000
0000000000000000000000
ENDCHAR
STARTCHAR  52A2
ENCODING  21154
SWIDTH  1000 0
DWIDTH  10 0
BBX  9 11 0 -2
BITMAP
000000000000200000
80F0F0F0F030C00000
00C0400010F0F0F0FF
00E0F0F0E0608000F0
00F01000E0608000F0
00F00000E0806000F0
20E00000E0A04000F0
30C00000E0C03000F0
40A00000E0E02000F0
60A010F0E0E000E0F0
000000000010000000
ENDCHAR
STARTCHAR  52A3
ENCODING  21155
SWIDTH  1000 0
DWIDTH  10 0
BBX  11 11 0 -2
BITMAP
0000000000200000000000
0000003030F04010000000
0060C0C030F040E0A04000
30A0300000F0000060A020
00406080A0A0A0A0A01000
106040C030000000000000
20E0E0FFE0E0E0E0E00000
0000A06000000000E00000
0010F01000000000E00000
0080A00000E0E0E0E00000
0000000000000000000000
ENDCHAR
STARTCHAR  52A8
ENCODING  21160
SWIDTH  1000 0
DWIDTH  10 0
BBX  9 11 0 -2
BITMAP
000000000000200000
30F0F0F0F000E01000
0000000010E0FFE0FF
000000000010E000E0
000000000030C000E0
A0F0F0F0F040A000E0
00A0603040608000E0
00E02040A0806000E0
10E01010E0A04000E0
30E0E0E0E0C030C0F0
000000000010000000
ENDCHAR
STARTCHAR  52A9
ENCODING  21161
SWIDTH  1000 0
DWIDTH  10 0
BBX  10 11 0 -2
BITMAP
00000000000000100000
00F0F0F0F00030C00000
00F00000F020F0F0F0F0
00F00000F000608000F0
00F0C0C0F000608000F0
00F00000F000806000F0
00F0C0C0F000A06000F0
00F00000F000A04000F0
00F00000F000C03000F0
60F0F0E0E040E010E0E0
00000000000010000000
ENDCHAR
STARTCHAR  52AA
ENCODING  21162
SWIDTH  1000 0
DWIDTH  10 0
BBX  10 9 0 -1
BITMAP
80E0F0F0E0F0F0F0F000
00F00000F0200000F000
00F00010F0E06030F000
00A0E0F0A040FFFF8000
40E08080E0E08040E020
100010A0101000000000
30F0F0F0F0F0F0F0FF00
0010E02000000000F000
0080800040F0F0F0F000
ENDCHAR
STARTCHAR  52AB
ENCODING  21163
SWIDTH  1000 0
DWIDTH  10 0
BBX  9 10 0 -2
BITMAP
0000F0000010E00000
40F0FFF0F0F0FFF0FF
0000F0000040A000F0
0000C0000040A000F0
C0F0F0F0F0608000F0
0060100000806000F0
00E000A080806000F0
20C00040C0A04000F0
60F0F0F0E0C030F0F0
000000000000000000
ENDCHAR
STARTCHAR  52AC
ENCODING  21164
SWIDTH  1000 0
DWIDTH  10 0
BBX  9 10 1 -2
BITMAP
E00000000010A00000
E0E0E0FF20E0F0E0E0
E0E0E0F00030A000E0
F000E0F000408000E0
F000E0F000608000E0
F000E0F000606000E0
FFA0E0F000806000E0
000000F000804000E0
00C0F0F000A030A0C0
000000000000000000
ENDCHAR
STARTCHAR  52AD
ENCODING  21165
SWIDTH  1000 0
DWIDTH  10 0
BBX  10 11 0 -2
BITMAP
00000000000000000000
60F0F0F0F00020C00000
00806000E010F0F0F0F0
00E02000E00040A000F0
20E000E0FF00608000F0
001000000000608000F0
00F0F0F0F000806000F0
00F00000E000A06000F0
00F00000E000A04000F0
00F0F0F0E000C030C0E0
00000000000010000000
ENDCHAR
STARTCHAR  52B1
ENCODING  21169
SWIDTH  1000 0
DWIDTH  10 0
BBX  9 10 1 -1
BITMAP
000000000000000000
F0F0F0F0E000C00000
F00000000080FFF0F0
F080FFF0E000C000F0
F000E0000000C000F0
F000FFF0F010A000F0
F010E000F020A000F0
F020C000F0308000F0
F030A000F0408000F0
E040A0A0E06060C0E0
ENDCHAR
STARTCHAR  52B2
ENCODING  21170
SWIDTH  1000 0
DWIDTH  10 0
BBX  9 10 0 -2
BITMAP
60F0F0F0E000E01000
00000030F0E0FFF0FF
0020A0F06000E000F0
60E080E0E020E000F0
300000004030C000F0
60F0F0F0F040A000F0
0000F00000608000F0
0010801010808000F0
60E0E0E0E0A060C0E0
000000000010000000
ENDCHAR
STARTCHAR  52B3
ENCODING  21171
SWIDTH  1000 0
DWIDTH  10 0
BBX  9 9 0 -1
BITMAP
0000A0000000A00000
F0F0FFF0F0F0FFF0F0
0000A0000000A00000
FFE0E0E0E0E0E0E0FF
E000A03000000000E0
20E0FFF0F0F0F0F0F0
0080800000000000E0
00A0200000000000E0
00A0000080F0F0F0E0
ENDCHAR
STARTCHAR  52BE
ENCODING  21182
SWIDTH  1000 0
DWIDTH  10 0
BBX  9 9 0 -1
BITMAP
0000C0000000C00000
80F0F0F0F0F0FFF0FF
00A030803020E000F0
30FFF0E00040A000F0
0060F04080608000F0
00E060C030806000F0
40A080A000A04000F0
0040A0F030C03000F0
10C01080C0E040F0F0
ENDCHAR
STARTCHAR  52BF
ENCODING  21183
SWIDTH  1000 0
DWIDTH  10 0
BBX  10 9 0 -1
BITMAP
0010A0000020A0100000
40F0FFF080F0F0E0F000
40E0FFE060E04000F000
0010E00030FFF040F000
30E0E00040A01020FFA0
00001080000000000000
30F0FFF0F0F0F0F0FF10
0010F01000000000E010
0080800000A0F0F0F010
ENDCHAR
STARTCHAR  52C3
ENCODING  21187
SWIDTH  1000 0
DWIDTH  10 0
BBX  10 11 0 -2
BITMAP
00000020000000200000
006080E0604030F06060
008080F0804040E0A0F0
00E0F0FFE0E000E010F0
00E0000000E000E000F0
0040E0E0E01000F000F0
00000060C00000E000F0
40F0F0FFF0F010E000F0
000000F0000020C000F0
0010F0E0000030C080E0
00000000000000000000
ENDCHAR
STARTCHAR  52C7
ENCODING  21191
SWIDTH  1000 0
DWIDTH  10 0
BBX  10 10 0 -2
BITMAP
60F0F0F0F0F0F0F0E010
00006030000060F04000
00FFE0E0FFE0E0E0FF00
00F0E0E0FFE0E0A0F000
00F0E0E0FFE0E0A0F000
00F03030F0000000F000
40FFF0F0FFF0F0F0F000
0040A00000000000E000
00E03000C0E0E0E0E000
00000000000000000000
ENDCHAR
STARTCHAR  52C9
ENCODING  21193
SWIDTH  1000 0
DWIDTH  10 0
BBX  10 10 0 -1
BITMAP
00000000000000100000
00C0F0F0A00000E01000
10E000E03000C0FFF0F0
60FFF0F0F0E010E000F0
00E000C000E030C000F0
00E000F000E040A000F0
00F0FFF0A0E0608000F0
0020E0E000008060A0F0
00A060F0000000000000
30E000E0E0E0E0E0E0A0
ENDCHAR
STARTCHAR  52CB
ENCODING  21195
SWIDTH  1000 0
DWIDTH  10 0
BBX  10 10 0 -1
BITMAP
00000000000000100000
00E0F0F0F0E000E00000
00E0000000F0A0FFF0E0
00E0E0E0A0F000E010E0
00000000000000E000E0
00FFF0F0F0F000E000E0
00E000A000F000E000E0
00E000F000F010E000E0
0040A0C0A04020E000E0
00808000808030C0A0E0
ENDCHAR
STARTCHAR  52D0
ENCODING  21200
SWIDTH  1000 0
DWIDTH  10 0
BBX  9 10 0 -2
BITMAP
40E0E0E0E000A04000
000080E040A0FFF0F0
E0E0FFE0E000E020F0
0000F0000000E010F0
80F0F0000000E000F0
F0F0F0F0FF00E000F0
F000A0A0F010E000F0
F000E0E0F020C000F0
F0F0F0E0E080C0C0E0
000000000000000000
ENDCHAR
STARTCHAR  52D2
ENCODING  21202
SWIDTH  1000 0
DWIDTH  10 0
BBX  9 10 0 -2
BITMAP
00E00000E000E00000
80FFF0F0FFF0FFF0FF
00E0FFC0E020C000F0
00E0FFE0E040A000F0
00E0F000E040A000F0
00FFFFE0E0608000F0
0000F00000808000F0
80F0FFF0F0806000F0
0000F00000A040A0F0
000000000000000000
ENDCHAR
STARTCHAR  52D6
ENCODING  21206
SWIDTH  1000 0
DWIDTH  10 0
BBX  9 10 1 -1
BITMAP
000000000000200000
F0E0E0E0E000E00000
F0F0F060E0A0FFE0E0
F0000000E020C000E0
E0F0F060E030A000E0
E0F0F0F0E040A000E0
E0E0E060E0608000E0
E0100000E0608000E0
E0E0F060E0806000E0
C0E0E0A0E08040E0E0
ENDCHAR
STARTCHAR  52D8
ENCODING  21208
SWIDTH  1000 0
DWIDTH  10 0
BBX  9 10 0 -2
BITMAP
800000008000801000
E0F0F0F0FFC0FFF0F0
E0A0F020E000E000F0
E0A0F020E000E000F0
E0000000E010E000F0
FFF0F080E030C000F0
E060A080C040A000F0
E06020006060A010F0
E0E0E0E0E08080A0C0
000000000000000000
ENDCHAR
STARTCHAR  52DF
ENCODING  21215
SWIDTH  1000 0
DWIDTH  10 0
BBX  10 10 0 -1
BITMAP
00000030000000300000
00E0E0FFE0E0E0FFE0E0
00000040000000400000
0000FFE0E0E0E0E0FF00
0000FFE0E0E0E0E0FF00
0000E0E0E0FFE0E0C000
00E0E0E0E0F0E0E0E0E0
0080F0C0400010A0F080
0060E0FFE0E0E0E0F060
0000A06000C0E0E0E000
ENDCHAR
STARTCHAR  52E4
ENCODING  21220
SWIDTH  1000 0
DWIDTH  10 0
BBX  10 11 0 -2
BITMAP
00000000000000100000
40F0E0E0F0E000E00000
00F00000E00060FFF0E0
00C0E0E0E00000E000E0
00FFE0FFE0F000E000E0
00FFE0FFA0F000E000E0
00E0E0FFE0C000E000E0
000000E0000010E000E0
00E0E0FFE0C010E000E0
40E0E0E0E0E020E0A0E0
00000000000000000000
ENDCHAR
STARTCHAR  52F0
ENCODING  21232
SWIDTH  1000 0
DWIDTH  10 0
BBX  10 10 0 -1
BITMAP
00000000000000000000
40F0F0F0F0E0E0E0E000
00C03000F0E040E0E000
00E02040F0E0A0FFF000
00E040E0E0E040FFE000
00E000A030E0F0F0F000
40FFE0FFFF6040004040
10C0E0E0C0E0E000E0E0
30A0E0E0C0E0E00080E0
4080E0C0C0E0C0F0C0E0
ENDCHAR
STARTCHAR  52F9
ENCODING  21241
SWIDTH  1000 0
DWIDTH  10 0
BBX  8 9 1 -1
BITMAP
E000000000000000
F0F0F0F0F0F0F0FF
00000000000000F0
00000000000000F0
00000000000000F0
00000000000000F0
00000000000000F0
00000000000000F0
00000060F0F0F0F0
ENDCHAR
STARTCHAR  52FA
ENCODING  21242
SWIDTH  1000 0
DWIDTH  10 0
BBX  10 9 0 -1
BITMAP
00F00000000000000000
00F0F0F0F0F0F0F0F0F0
000000000000000000F0
006010000000000000F0
0080E0C06010000000F0
00000040A0E0A00000F0
000000000000400000F0
000000000000000000F0
000000000030F0F0F0F0
ENDCHAR
STARTCHAR  52FE
ENCODING  21246
SWIDTH  1000 0
DWIDTH  10 0
BBX  10 9 0 -1
BITMAP
00C00000000000000000
00F0F0F0F0F0F0F0F0F0
000080400010000000F0
0010F0100080800000F0
0060A0000020E00000F0
00C030000000E03000F0
20FFF0F0F0F0F08000F0
000000000000000000F0
0000000000E0F0F0F0F0
ENDCHAR
STARTCHAR  52FF
ENCODING  21247
SWIDTH  1000 0
DWIDTH  10 0
BBX  10 10 0 -1
BITMAP
00000000000000000000
00F00000000000000000
00E0E0E0E0E0E0E0E0F0
000030600000800000F0
000080600030E00000F0
0000E0200080800000F0
0020E00000C0400000F0
0060800010E0000000F0
00C0400060A0000000F0
10E00000A06000C0F0E0
ENDCHAR
STARTCHAR  5300
ENCODING  21248
SWIDTH  1000 0
DWIDTH  10 0
BBX  10 9 0 -1
BITMAP
00E00000000000000000
00E0E0E0E0E0E0E0E0E0
008040100000000000E0
0060A0E0E080401000E0
000000002060A0E010E0
000000000000308000E0
00001060A0E0C08000E0
00E0E0804010000000E0
002000000080F0F0F0E0
ENDCHAR
STARTCHAR  5305
ENCODING  21253
SWIDTH  1000 0
DWIDTH  10 0
BBX  9 9 1 -1
BITMAP
A00000000000000000
F0F0F0F0F0F0F0F0F0
F0F0F0F0F0F00000F0
F000000000F00000F0
F000000000F00000F0
FFF0F0F0C0FF0000F0
F00000000000000000
F00000000000000000
E0E0E0E0E0E0E0E0A0
ENDCHAR
STARTCHAR  5306
ENCODING  21254
SWIDTH  1000 0
DWIDTH  10 0
BBX  9 9 1 -1
BITMAP
E00000000000000000
F0F0F0F0F0F0F0F0F0
0010800000801000F0
4060A00020E00000F0
A0F0A01080800000F0
00E080E0F0600000F0
40A00030E0C06000F0
8040008080000000F0
C00000E0200080F0E0
ENDCHAR
STARTCHAR  5308
ENCODING  21256
SWIDTH  1000 0
DWIDTH  10 0
BBX  9 10 1 -1
BITMAP
800000000000000000
FFE0E0E0E0E0E0E0E0
0080100010800000F0
F040E020E040F000F0
F00060F06000F000F0
F00080E0A000F000F0
F060C000A060F000F0
F00000000000F000F0
F0F0F0F0F0A02000F0
00000000A0E0E0E0E0
ENDCHAR
STARTCHAR  530D
ENCODING  21261
SWIDTH  1000 0
DWIDTH  10 0
BBX  9 10 0 -1
BITMAP
800000000000000000
F0F0F0F0F0F0F0F0E0
0000001000000000F0
E0E0E0FFE0F0E000F0
C0E0E0FFE0E0E000F0
E02000E00000F000F0
E020E0FFE0E0F000F0
E020E0FFE0E0F000F0
E02000E00000F000F0
10000000C0F0F0F0E0
ENDCHAR
STARTCHAR  530F
ENCODING  21263
SWIDTH  1000 0
DWIDTH  10 0
BBX  10 9 0 -1
BITMAP
0000604000A010101000
60E0FFFFE0E0E0E0FF00
0080608040C0F0E0F000
40FFF0F0E0E010F0F000
0000000000E010F0F000
80FFF0F0F0F0A0F0F000
00FFF0F0E0E010000000
00000000E0E010000000
0020F0F0E0C0F0F0F020
ENDCHAR
STARTCHAR  5310
ENCODING  21264
SWIDTH  1000 0
DWIDTH  10 0
BBX  10 10 0 -1
BITMAP
00600000000000000000
00FFF0F0F0F0F0F0F0E0
20E0E0E0E0E0E0E000F0
000000000000000000F0
00E0E0E0E0E0E0E000F0
00C0E0E0E0E080A000F0
00FFE0E0FFE0E0F000F0
00F0C0C0FFC040F000F0
00E0E0E0E0E080E000F0
00000000000080E0E0E0
ENDCHAR
STARTCHAR  5315
ENCODING  21269
SWIDTH  1000 0
DWIDTH  10 0
BBX  9 10 1 -1
BITMAP
100000000000000000
F00000000000000000
F00000000000003030
F000104080C0F0C040
F080F0C08040000000
F01000000000000000
F00000000000000000
F00000000000000000
F00000000000000000
E0F0F0F0F0F0F0F060
ENDCHAR
STARTCHAR  5316
ENCODING  21270
SWIDTH  1000 0
DWIDTH  10 0
BBX  10 10 -1 -1
BITMAP
00000000000010000000
0000C0300000F0000000
0020C0000000F0000000
00A060000000F0001060
00C040000010F0C0E080
0000E010A0E0FF400000
0000E0106000F0000000
0000E0000000F0000000
0000E0000000F0000000
0000E0000000F0F0F0E0
ENDCHAR
STARTCHAR  5317
ENCODING  21271
SWIDTH  1000 0
DWIDTH  10 0
BBX  10 11 0 -2
BITMAP
00003000003000000000
0000F00000F000000000
E0F0FF0000F040F0F030
0000F00000F000000000
0000F00000F000000000
0000F00000F000000000
0000F00000F000000000
E0F0F00000F000000000
0000F00000F000000000
0000F00000F0F0F0F020
00001000000000000000
ENDCHAR
STARTCHAR  5319
ENCODING  21273
SWIDTH  1000 0
DWIDTH  10 0
BBX  10 11 0 -2
BITMAP
00000000000000100000
00F0E0E0E0E000F00000
00E0C0F040F000F00000
00E0000000F000F0E0C0
00E0E0E0A0E000F00000
60F0F0F0F0F000F00000
001000F0000000F00000
00E010FFF0A000FFE0C0
10FFF0F0000000000000
40C040A0E0F0F0F0F0E0
00000000000000000000
ENDCHAR
STARTCHAR  531A
ENCODING  21274
SWIDTH  1000 0
DWIDTH  10 0
BBX  9 9 1 -1
BITMAP
F0F0F0F0F0F0F0F0E0
E00000000000000000
E00000000000000000
E00000000000000000
E00000000000000000
E00000000000000000
E00000000000000000
E00000000000000000
E0E0E0E0E0E0E0E0E0
ENDCHAR
STARTCHAR  531D
ENCODING  21277
SWIDTH  1000 0
DWIDTH  10 0
BBX  9 9 1 -1
BITMAP
F0F0F0F0F0F0F0F0E0
E000000000E0000000
E000F0F0F0FFF0F0E0
E000F00000F00000F0
E000F00000F00000F0
E000F00000F00000F0
E000E00000F000E0E0
E00000000000000000
E0E0E0E0E0E0E0E0E0
ENDCHAR
STARTCHAR  5320
ENCODING  21280
SWIDTH  1000 0
DWIDTH  10 0
BBX  9 9 1 -1
BITMAP
F0F0F0F0F0F0F0F0E0
E00000000000000000
E000FFF0F0F0F0F030
E000F0000000000000
E000F0F0F0F0F0F060
E000F0000000E00000
E000F0000000E00000
E00040000000400000
E0E0E0E0E0E0E0E0E0
ENDCHAR
STARTCHAR  5321
ENCODING  21281
SWIDTH  1000 0
DWIDTH  10 0
BBX  10 9 1 -1
BITMAP
F0F0F0F0F0F0F0F0F020
E0000000000000000000
E010E0E0E0E0E0E0E000
E000000000E000000000
E000E0F0F0FFF0F0C000
E000000000C000000000
E010F0F0F0F0F0F0F000
E0000000000000000000
E0E0E0E0E0E0E0E0E020
ENDCHAR
STARTCHAR  5323
ENCODING  21283
SWIDTH  1000 0
DWIDTH  10 0
BBX  9 9 1 -1
BITMAP
F0F0F0F0F0F0F0F0E0
E000F0F0F0F0F0F0E0
E000F00000000000F0
E000F0F0F0FFF030F0
E000F00000E00000F0
E000FFE0E0FFE080F0
E000000000E0000000
E000000000C0000000
E0E0E0E0E0E0E0E0E0
ENDCHAR
STARTCHAR  5326
ENCODING  21286
SWIDTH  1000 0
DWIDTH  10 0
BBX  9 9 1 -1
BITMAP
F0F0F0F0F0F0F0F0A0
E00080200030600000
E080FFF0FFF0F0FF00
E020E0C0208060E000
E060F0FFE0C040E000
E00000C020C030E000
E060F0FFF0F010E0A0
E00000401040000000
E0E0E0E0E0E0E0E0A0
ENDCHAR
STARTCHAR  532A
ENCODING  21290
SWIDTH  1000 0
DWIDTH  10 0
BBX  9 9 1 -1
BITMAP
F0F0F0F0F0F0F0F0E0
E00000F00000F00000
E0C0E0FF0000FFE0E0
E00000F00000F00000
E0A0F0FF0000FFF0C0
E0C0E0FF0000FFE0E0
E00000F00000F00000
E00000000000000000
E0E0E0E0E0E0E0E0E0
ENDCHAR
STARTCHAR  532E
ENCODING  21294
SWIDTH  1000 0
DWIDTH  10 0
BBX  10 9 1 -1
BITMAP
F0F0F0F0F0F0F0F0F010
E000E0E0E080E0E00000
E000FFE0E0FFE0FF0000
E000000000F000000000
E080E0E0E0E0E0E0E000
E000F0E0E0FFE0F00000
E000C03060F060E00000
E060C080604060A0C000
E0E0E0E0E0E0E0E0E010
ENDCHAR
STARTCHAR  5339
ENCODING  21305
SWIDTH  1000 0
DWIDTH  10 0
BBX  9 9 1 -1
BITMAP
F0F0F0F0F0F0F0F080
E00000600060000000
E00000F000F0000000
E00000F000F0000000
E00000F000F0000000
E00000F000F0000000
E060F0F000E0F0F080
E00000000000000000
E0E0E0E0E0E0E0E080
ENDCHAR
STARTCHAR  533A
ENCODING  21306
SWIDTH  1000 0
DWIDTH  10 0
BBX  9 9 1 -1
BITMAP
F0F0F0F0F0F0F0F0E0
F010E060000040E020
F00020E04030E02000
F0000020E0E0300000
F0000020E0E0300000
F00010E04040E02000
F010E060000040E020
F00000000000000000
E0E0E0E0E0E0E0E0E0
ENDCHAR
STARTCHAR  533B
ENCODING  21307
SWIDTH  1000 0
DWIDTH  10 0
BBX  10 9 1 -1
BITMAP
F0F0F0F0F0F0F0F0F010
E000A000000000000000
E000F0F0F0F0F0F0E000
E000000000A000000000
E060F0F0F0FFF0F0F000
E0000040E0E0C0200000
E030C0C0300060E08000
E0404000000000006000
E0E0E0E0E0E0E0E0E010
ENDCHAR
STARTCHAR  533E
ENCODING  21310
SWIDTH  1000 0
DWIDTH  10 0
BBX  10 9 1 -1
BITMAP
F0F0F0F0F0F0F0F0F010
F0000000303000000000
F000FFE0E0E0E0E0E000
F000FFE0E0E0E0A0E000
F000E0E0E0E0E0E0C000
F000E0F000000000E000
F000E0F0C0C0F040E000
F000E0F0A0A0E020E000
E0E0E0E0E0E0E0E0E010
ENDCHAR
STARTCHAR  533F
ENCODING  21311
SWIDTH  1000 0
DWIDTH  10 0
BBX  10 9 1 -1
BITMAP
F0F0F0F0F0F0F0F0F000
E02060E06060E0606000
E030A0F0A0A0F0A08000
E0000040000000000000
E080F0F0F0F0F0F0F000
E000C0F0E0E0E0F00000
E040A0FFE0E0E0FF0000
E0000000000000000000
E0E0E0E0E0E0E0E0E000
ENDCHAR
STARTCHAR  5341
ENCODING  21313
SWIDTH  1000 0
DWIDTH  10 0
BBX  10 11 0 -2
BITMAP
00000000400000000000
00000000F00000000000
00000000F00000000000
00000000F00000000000
F0F0F0F0FFF0F0F0F060
00000000F00000000000
00000000F00000000000
00000000F00000000000
00000000F00000000000
00000000F00000000000
00000000200000000000
ENDCHAR
STARTCHAR  5343
ENCODING  21315
SWIDTH  1000 0
DWIDTH  10 0
BBX  10 10 0 -1
BITMAP
00000000000010203000
80C0E0E0F0F0E0E0C000
20302010800000000000
00000000F00000000000
00000000F00000000000
F0F0F0F0FFF0F0F0F000
00000000F00000000000
00000000F00000000000
00000000F00000000000
00000000F00000000000
ENDCHAR
STARTCHAR  5345
ENCODING  21317
SWIDTH  1000 0
DWIDTH  10 0
BBX  10 10 0 -1
BITMAP
00100000000000100000
00E00000E00000F00000
00F00000F00000F00000
00E00000F00000F00000
F0FFF0F0FFF0F0FFF030
00E00000F00000F00000
00E00000F00000F00000
00E00000F00000F00000
00E00000F00000F00000
00E00000E00000F00000
ENDCHAR
STARTCHAR  5347
ENCODING  21319
SWIDTH  1000 0
DWIDTH  10 0
BBX  10 11 0 -2
BITMAP
00000000000000100000
F0F0F0F0F01000F00000
00406000000000F00000
00808000000000F00000
00A06000000000F00000
F0F0F0F0F0F0F0FFF060
00E01000000000F00000
00E00000000000F00000
20E00000000000F00000
40A00000000000F00000
00100000000000100000
ENDCHAR
STARTCHAR  5348
ENCODING  21320
SWIDTH  1000 0
DWIDTH  10 0
BBX  10 10 0 -1
BITMAP
20000000000000000000
F0000000000000000000
E0F0F0F0F0F0F0F08000
00000000E00000000000
00000000F00000000000
00000000F00000000000
F0F0F0F0FFF0F0F0F020
00000000F00000000000
00000000F00000000000
00000000F00000000000
ENDCHAR
STARTCHAR  5349
ENCODING  21321
SWIDTH  1000 0
DWIDTH  10 0
BBX  10 10 0 -1
BITMAP
00000000200000000000
00000000F00000000000
80F0F0F0FFF0F0F0F000
00000000F00000000000
00608000F00000F00000
00806000000000F00000
F0FFF0F0F0F0F0FFF060
00C03000000000F00000
00E01000000000F00000
00E00000000000F00000
ENDCHAR
STARTCHAR  534A
ENCODING  21322
SWIDTH  1000 0
DWIDTH  10 0
BBX  10 10 0 -1
BITMAP
00000000800000000000
60800000F00000806000
10E00000F00000E02000
00802000F00020800000
00000000F00000000000
E0E0E0E0FFE0E0E0E000
00000000F00000000000
E0E0E0E0FFE0E0E0E060
00000000F00000000000
00000000F00000000000
ENDCHAR
STARTCHAR  534E
ENCODING  21326
SWIDTH  1000 0
DWIDTH  10 0
BBX  11 10 -1 -1
BITMAP
0000004010000040000000
000060C0000000E0000000
0030E020000010F0A0E010
008040E000C0E0F0400000
000000F0002000E0202000
000000F0000000E0E0E000
0000000000E00000000000
00E0E0E0E0FFE0E0E0E010
0000000000E00000000000
0000000000E00000000000
ENDCHAR
STARTCHAR  534F
ENCODING  21327
SWIDTH  1000 0
DWIDTH  10 0
BBX  10 10 0 -1
BITMAP
00000000000000000000
00E0000000C020000000
00E00080E0FFE0F00000
C0FFE06040E000F0E020
00E000A060E000F0C030
00E000C060C000F0A040
00E000E040A000F08060
00E000E0608000F08060
00E00000806000F00000
00E00000A060E0E00000
ENDCHAR
STARTCHAR  5351
ENCODING  21329
SWIDTH  1000 0
DWIDTH  10 0
BBX  10 11 0 -2
BITMAP
00000000A00000000000
00F0F0F0FFF0F0F0E000
00F0000000000000F000
00F03030F0303000F000
00F0C0C0FFC0C020F000
00F0000080000000F000
00F0FFF0F0F0F080E000
0020C00000C000000000
F0F0F0F0F0FFF0F0F030
0000000000F000000000
00000000006000000000
ENDCHAR
STARTCHAR  5352
ENCODING  21330
SWIDTH  1000 0
DWIDTH  10 0
BBX  10 10 0 -1
BITMAP
00000000800000000000
C0F0F0F0FFF0F0F0F010
00003000000030100000
0060E0100000C0A00000
10E0A0800060C0E03000
808010E030E02040C000
20000020A02000003000
E0E0E0E0FFE0E0E0E030
00000000F00000000000
00000000C00000000000
ENDCHAR
STARTCHAR  5353
ENCODING  21331
SWIDTH  1000 0
DWIDTH  10 0
BBX  10 11 0 -2
BITMAP
00000000300000000000
00000000FFF0F0F0C000
00000000F00000000000
00F0E0E0F0E0E0F00000
00F00000000000F00000
00F0F0F0F0F0F0F00000
00FFF0F0F0F0F0F00000
00000000800000000000
F0F0F0F0FFF0F0F0F000
00000000F00000000000
00000000200000000000
ENDCHAR
STARTCHAR  5355
ENCODING  21333
SWIDTH  1000 0
DWIDTH  10 0
BBX  10 10 0 -1
BITMAP
00001000000010200000
0010E0100010E0800000
00F0F0F0F0F0F0F0E000
00F0000080000000F000
00F0F0F0FFF0F020F000
00F00000F0000000F000
00FFE0E0FFE0E080F000
00000000F00000000000
F0F0F0F0FFF0F0F0F030
00000000F00000000000
ENDCHAR
STARTCHAR  5356
ENCODING  21334
SWIDTH  1000 0
DWIDTH  10 0
BBX  11 11 0 -2
BITMAP
0000000000300000000000
00F0F0F0F0FFF0F0F06000
0000000000F00000000000
10F0F0F0F0F0F0F0F0F000
00000080C00000E040F000
0060A020A06040C0003000
000020200000C040000000
20F0F0F0FFF0F0F0F0F000
000030E0600060C0200000
0060C02000000040E06000
0020000000000000101000
ENDCHAR
STARTCHAR  5357
ENCODING  21335
SWIDTH  1000 0
DWIDTH  10 0
BBX  10 11 0 -2
BITMAP
00000000600000000000
F0F0F0F0FFF0F0F0F060
00000000F00000000000
E0F0F0F0FFF0F0F0E000
E000000000001000E000
E00060800040E000E000
E000F0F0FFF0F080E000
E000F0F0FFF0F080E000
E0000000F0000000E000
E0000000F00060F0E000
00000000000000000000
ENDCHAR
STARTCHAR  535A
ENCODING  21338
SWIDTH  1000 0
DWIDTH  10 0
BBX  10 11 0 -2
BITMAP
00100000000000000000
00E010F0F0F0FFF0FF60
00E000000000FF000000
C0FFC0F0F0F0FFF0FF00
00E000F060E0FFE0E000
00E000F060E0FFE0E000
00E000E00000C000E000
00E010E0E0E0E0E0FF60
00E0000030000000F000
00E00000C06020F0E000
00000000000000000000
ENDCHAR
STARTCHAR  535C
ENCODING  21340
SWIDTH  1000 0
DWIDTH  10 0
BBX  6 10 4 -1
BITMAP
800000000000
FF0000000000
FF0080400000
FF0040E00000
FF0000C06000
FF000040E000
FF000000C060
FF0000002040
FF0000000000
FF0000000000
ENDCHAR
STARTCHAR  535E
ENCODING  21342
SWIDTH  1000 0
DWIDTH  10 0
BBX  10 11 0 -2
BITMAP
00000000002000000000
0000000000F000000000
00000000000000000000
30F0F0F0FFF0F0F0F0F0
00000000F00010100000
00000000F00040E00000
00000000F00000E03000
00000000F0000080A000
00000000F0000020F000
00000000F00000006020
00000000600000000000
ENDCHAR
STARTCHAR  535F
ENCODING  21343
SWIDTH  1000 0
DWIDTH  10 0
BBX  10 10 1 -1
BITMAP
00000000008000000000
E0E0E00000F000000000
F000F00000F010600000
F000F00000F000E00000
F000F00000F000C03000
F000F00000F000806000
F000F00000F00040A000
F000F00000F00010E000
F000F00000F000004000
F0E0E00000F000000000
ENDCHAR
STARTCHAR  5360
ENCODING  21344
SWIDTH  1000 0
DWIDTH  10 0
BBX  9 10 1 -1
BITMAP
000000200000000000
000000F00000000000
000000F0F0F0F0F0A0
000000F00000000000
000000F00000000000
FFF0F0F0F0F0F0FF00
F0000000000000F000
F0000000000000F000
F0000000000000F000
F0F0F0F0F0F0F0F000
ENDCHAR
STARTCHAR  5361
ENCODING  21345
SWIDTH  1000 0
DWIDTH  10 0
BBX  10 10 0 -1
BITMAP
00000060000000000000
000000E0000000000000
000000E0F0F0F0F04000
000000E0000000000000
F0F0F0FFF0F0F0F0F030
00000080000000000000
000000E040A020000000
000000E00060E0A02000
000000E0000000604000
000000E0000000000000
ENDCHAR
STARTCHAR  5362
ENCODING  21346
SWIDTH  1000 0
DWIDTH  10 0
BBX  9 10 1 -1
BITMAP
000000A00000000000
000000F00000000000
000000F0F0F0F0F060
F0F0F0FFF0F0F0F000
F0000000000000F000
F0000000000000F000
FFF0F0F0F0F0F0FF00
F00000000000000000
F00000000000000000
A00000000000000000
ENDCHAR
STARTCHAR  5363
ENCODING  21347
SWIDTH  1000 0
DWIDTH  10 0
BBX  9 10 1 -1
BITMAP
000000A00000000000
000000F00000000000
000000F0F0F0F0F0A0
E0E0E0FFE0E0E0E0E0
F000000000000000E0
FFE0E0E0E0E0E000E0
F00000000000F000E0
FFE0E0E0E0A0F000E0
F000000000000000E0
F0F0F0F0F0F0F0A0E0
ENDCHAR
STARTCHAR  5364
ENCODING  21348
SWIDTH  1000 0
DWIDTH  10 0
BBX  9 10 1 -1
BITMAP
000000A00000000000
000000F00000000000
000000F0F0F0F0F080
F0F0F0FFF0F0F0F000
E0401000000060F000
E060E06040E0A0F000
E00040FFFF8000F000
E060E04040C0C0F000
E0401000000060F000
E0E0E0E0E0E0E0E000
ENDCHAR
STARTCHAR  5366
ENCODING  21350
SWIDTH  1000 0
DWIDTH  10 0
BBX  11 10 0 -1
BITMAP
0000001000000010000000
001010F0101000E0000000
00E0E0FFE0A000E0803000
000000F0000000E0806000
20F0F0F0F0F000E060A000
000000A0000000E020C000
00F0F0FFF0A000E000F000
000000F0000000E000E020
00000080000000E0006030
20E0E0E0E0E000E0000000
ENDCHAR
STARTCHAR  5367
ENCODING  21351
SWIDTH  1000 0
DWIDTH  10 0
BBX  10 11 1 -2
BITMAP
00000000000020000000
F0F0F0F0E000F0000000
E000F0000000F0100000
E000F0000000F0806000
FFF0F0F0F000F040A000
E0000000F000F010E000
FFF0F0C0F000F000C030
E000F0000000F0008060
E000F0000000F0000000
F0F0F0F0E000F0000000
00000000000010000000
ENDCHAR
STARTCHAR  5369
ENCODING  21353
SWIDTH  1000 0
DWIDTH  10 0
BBX  5 10 5 -2
BITMAP
F0F0F0F0F0
F0000000F0
F0000000F0
F0000000F0
F0000000F0
F0000000F0
F010F0F0F0
F000000000
F000000000
0000000000
ENDCHAR
STARTCHAR  536B
ENCODING  21355
SWIDTH  1000 0
DWIDTH  10 0
BBX  10 9 0 -1
BITMAP
00F0F0F0F0F0F0F0F0E0
000000F00000000000F0
000000F00000000000F0
000000F00000000000F0
000000F00000000000F0
000000F0000030F0F0E0
000000F0000000000000
00000020000000000000
10F0F0F0F0F0F0F0F0F0
ENDCHAR
STARTCHAR  536E
ENCODING  21358
SWIDTH  1000 0
DWIDTH  10 0
BBX  10 9 1 -1
BITMAP
F0F0F0F0F0F0F0F0F000
F0000000000000000000
F080F0F0F0F0F0F0F020
F0000000000000000000
F000F0E0E0E0E0E0F000
F000F00000000000F000
F000F00080E0E0E0E000
F000F000000000000000
F000E0E0E0E0E0E0E010
ENDCHAR
STARTCHAR  536F
ENCODING  21359
SWIDTH  1000 0
DWIDTH  10 0
BBX  9 10 1 -2
BITMAP
F0F0F0E000F0F0F0E0
F000006000F00000F0
F00000F000F00000F0
F00000F000F00000F0
F00000F000F00000F0
F00000F000F00000F0
E0E0F0E000F00000F0
0040E03000F030E0E0
40E0300000F0000000
302000000040000000
ENDCHAR
STARTCHAR  5370
ENCODING  21360
SWIDTH  1000 0
DWIDTH  10 0
BBX  9 10 1 -2
BITMAP
E0E0E0E000E0E0E0E0
E000000000F00000E0
E000000000F00000E0
E000000000F00000E0
E0C0E0E000F00000E0
E000000000F00000E0
E000000000F00000E0
FFE0E0E000F0C0E0E0
0000000000F0000000
000000000020000000
ENDCHAR
STARTCHAR  5371
ENCODING  21361
SWIDTH  1000 0
DWIDTH  10 0
BBX  11 10 0 -2
BITMAP
0000E0F0F0F0F060000000
0060A0000010F010000000
00C0FFE0E0E0E0E0E0E020
10A0F00000000000000000
0000F000FFF0F0F0FF0000
0000F000F0000000F00000
0000F000F080F0F0F00000
0000F000F0101010101000
0000F000E0E0E0E0E0E020
0000000000000000000000
ENDCHAR
STARTCHAR  5373
ENCODING  21363
SWIDTH  1000 0
DWIDTH  10 0
BBX  9 10 1 -2
BITMAP
F0E0E0F000E0E0E0E0
E00000F000F00000F0
E0C0E0F000F00000F0
E00000F000F00000F0
E00000F000F00000F0
FFF0F0E000F00000F0
E000004000F00000F0
E00000E000F000C0F0
F0F0F0F020F0000000
000000000010000000
ENDCHAR
STARTCHAR  5374
ENCODING  21364
SWIDTH  1000 0
DWIDTH  10 0
BBX  9 10 0 -2
BITMAP
0000E00000E0F0F0F0
A0F0FFF0F0F00000E0
0000E00000F00000E0
0000A00000F00000E0
F0F0F0F0F0FF0000E0
00A0003010F00000E0
30C0008080F00000E0
80800030C0F000E0E0
A0E0E0E0E0F0000000
000000000010000000
ENDCHAR
STARTCHAR  5375
ENCODING  21365
SWIDTH  1000 0
DWIDTH  10 0
BBX  9 10 1 -2
BITMAP
E0E0E0E000F0E0E0E0
E0A000A000F0A000E0
E0F000F000F0E000E0
E0F000F000F0E000E0
E0F000F000F0E000E0
E00000F000F0E000E0
F0F0FFC000F00000E0
0060E01000F020F0E0
20C0100000F0000000
302000000040000000
ENDCHAR
STARTCHAR  5377
ENCODING  21367
SWIDTH  1000 0
DWIDTH  10 0
BBX  11 10 -1 -1
BITMAP
0000000000A00000000000
000080A040E00080E01000
00A0F0F0F0FFF0F0F0F000
00000000C0600000000000
00F0F0FFF0F0F0FFF0F030
000080E0000000E0800000
0060F0FFF0F0F0FFF08000
004020E0C0F0F0FF104010
000000E000000000000000
000000E0E0E0E0E0E0E000
ENDCHAR
STARTCHAR  5378
ENCODING  21368
SWIDTH  1000 0
DWIDTH  10 0
BBX  9 11 0 -2
BITMAP
100000000000000000
F00000000000F0F0E0
E0F0F0F0F020E000E0
0000F0000000E000E0
F0F0FFF0F030E000E0
0000F0000000E000E0
E000F0F0F000E000E0
E000F0000000E000E0
E00080000000E0C0F0
E0F0F0F0F000E00000
000000000000000000
ENDCHAR
STARTCHAR  537A
ENCODING  21370
SWIDTH  1000 0
DWIDTH  10 0
BBX  10 9 0 -1
BITMAP
0000A0E0E0E0E0C00010
00E0E0E0E0C0A0C0C040
0040C0C060E030E08000
80A03030E0FF000080A0
00E0E0E0E0E0E0E0E060
00000000000000000000
0000E0E0E0E0E0E0FF00
0000E00080E0E0E0E000
0000C0E0E0E0E0E0E060
ENDCHAR
STARTCHAR  537F
ENCODING  21375
SWIDTH  1000 0
DWIDTH  10 0
BBX  10 9 0 -1
BITMAP
00F0F000F0F0E0E0F0E0
00E08000F000F0F000F0
00E0F000FFC0F0F000F0
00E0F000F000F0F000F0
00E0F000F000F0F000F0
00E0F000FFE0E0F000F0
00FFF000F030A0F000F0
0040A000F020C0F020E0
00C03000E0E0C0F00000
ENDCHAR
STARTCHAR  5382
ENCODING  21378
SWIDTH  1000 0
DWIDTH  10 0
BBX  9 9 1 -1
BITMAP
FFFFFFFFFFFFFFFFF0
FF0000000000000000
FF0000000000000000
FF0000000000000000
FF0000000000000000
FF0000000000000000
FF0000000000000000
FF0000000000000000
F00000000000000000
ENDCHAR
STARTCHAR  5384
ENCODING  21380
SWIDTH  1000 0
DWIDTH  10 0
BBX  9 9 1 -1
BITMAP
F0F0F0F0F0F0F0F0C0
F00000000000000000
F000F0F0F0F0F0F000
F000F000000000F000
F000F000000000F000
F000F00080F0F0FF00
F000F0000000000000
F000F0101010101010
F000E0F0F0F0F0F0A0
ENDCHAR
STARTCHAR  5385
ENCODING  21381
SWIDTH  1000 0
DWIDTH  10 0
BBX  9 9 1 -1
BITMAP
F0F0F0F0F0F0F0F0F0
F00000000000000000
F040E0E0E0E0E0E0E0
F00000000020000000
F000000000F0000000
F000000000F0000000
F000000000F0000000
F000000000F0000000
E00040E0E0E0000000
ENDCHAR
STARTCHAR  5386
ENCODING  21382
SWIDTH  1000 0
DWIDTH  10 0
BBX  9 10 1 -2
BITMAP
E0E0E0E0E0E0E0E0E0
F00000003000000000
F0000040C000000000
F000E0F0F0F0F0F0E0
F00000C040000000E0
F00000E000000000E0
F00030C000000000E0
F000608000000000E0
F000A0400040F0F0E0
000010000000000000
ENDCHAR
STARTCHAR  5389
ENCODING  21385
SWIDTH  1000 0
DWIDTH  10 0
BBX  10 10 1 -2
BITMAP
E0E0E0E0E0E0E0E0E000
F0000000000000000000
F060F0FFF0F0F0F0F000
F00000F0000000000000
F00020FFE0E0E0E0F000
F00040C000000000F000
F00060A000000000F000
F000808000000000F000
F000A0600080F0F0E000
00001000000000000000
ENDCHAR
STARTCHAR  538B
ENCODING  21387
SWIDTH  1000 0
DWIDTH  10 0
BBX  9 9 1 -1
BITMAP
F0F0F0F0F0F0F0F0F0
F000000000F0000000
F000000000F0000000
F010F0F0F0FFF0F0F0
F000000000F0008000
F000000000F000C040
F000000000F0006080
F01010101010101010
F060E0E0E0E0E0E0E0
ENDCHAR
STARTCHAR  538C
ENCODING  21388
SWIDTH  1000 0
DWIDTH  10 0
BBX  10 9 1 -1
BITMAP
F0F0F0F0F0F0F0F0F000
F0000000004000200000
F000000000E000F00000
F060F0F0F0FFF0F0E000
F000000040F020000000
F0000020E080C0000000
F00000C06000C0800000
F000A080000030F03000
A040A00000000080A000
ENDCHAR
STARTCHAR  538D
ENCODING  21389
SWIDTH  1000 0
DWIDTH  10 0
BBX  9 10 1 -2
BITMAP
E0E0E0E0E0E0E0E0E0
F00000804000000000
F060F0FFF0F0F0F0E0
F00060A00040000000
F000C04000E0000000
F010E0F0F0FFF0F0A0
F000000000E0000000
F060E0E0E0FFE0E0E0
F000000000E0000000
100000000010000000
ENDCHAR
STARTCHAR  5395
ENCODING  21397
SWIDTH  1000 0
DWIDTH  10 0
BBX  10 9 1 -1
BITMAP
F0F0F0F0F0F0F0F0F010
F0000000000000000000
F000FFF0F0F0C000F000
F000F06000F0E000F000
F000F0F000F0E000F000
F000F0F000F0E000F000
F000F0F000F0E000F000
F00060E060300000F000
E000E020806040F0E000
ENDCHAR
STARTCHAR  5398
ENCODING  21400
SWIDTH  1000 0
DWIDTH  10 0
BBX  9 9 1 -1
BITMAP
F0F0F0F0F0F0F0F0E0
F000F0F0F0F0F0F0E0
F000F00000F00000E0
F000F0E0E0FFE020E0
F000F00000F00000E0
F000F0F0F0FFF080E0
F000F0F0F0FFF0F0F0
F000000000F0000000
F080F0F0F0F0F0F0F0
ENDCHAR
STARTCHAR  539A
ENCODING  21402
SWIDTH  1000 0
DWIDTH  10 0
BBX  10 9 1 -1
BITMAP
F0F0F0F0F0F0F0F0F000
E0C0E0E0E0E0E0E0C000
E0F0000000000000F000
E0F020E0E0E0E030F000
E0C0E0E0E0E0E080C000
E010E0E0E0E0E0E0E000
E00000000060F0A02000
E080E0E0E0FFE0E0E000
E00030E0E0E000000000
ENDCHAR
STARTCHAR  539D
ENCODING  21405
SWIDTH  1000 0
DWIDTH  10 0
BBX  9 9 1 -1
BITMAP
F0F0F0F0F0F0F0F0F0
F02060F06060F06060
F03080F08080F08080
F00000100000100000
F0A0F0F0F0F0F0F0F0
F000F0F0F0F0F0F000
F000F0A0E0E0E0F000
F000F000000000F000
E000E0E0E0E0E0E000
ENDCHAR
STARTCHAR  539F
ENCODING  21407
SWIDTH  1000 0
DWIDTH  10 0
BBX  9 9 1 -1
BITMAP
F0F0F0F0F0F0F0F0E0
F00000000060000000
F000FFF0F0F0F0F0F0
F000FFF0F0F0F040F0
F000F00000000000F0
F000E0E0E0FFE0A0E0
F000306000F000A020
F000C04000F0008080
F020C000E0E00010A0
ENDCHAR
STARTCHAR  53A2
ENCODING  21410
SWIDTH  1000 0
DWIDTH  10 0
BBX  9 10 1 -2
BITMAP
F0F0F0F0F0F0F0F0F0
E000008000E0F0F0C0
E0E0F0FFE0F00010E0
E04000F040F00010E0
E0E000F0E0F0F030E0
E0E000F0E0F00010E0
E0E000F0E0F0F030E0
E0E000F0E0F00010E0
E0E000F0E0E0E0A0E0
000000000000000000
ENDCHAR
STARTCHAR  53A3
ENCODING  21411
SWIDTH  1000 0
DWIDTH  10 0
BBX  10 9 1 -1
BITMAP
E0E0E0E0E0E0E0E0E000
F000000000A000800000
F080E0E0F0FFF0E0E000
F01060A0A080E0A03000
F060FFF0E0E0E0FFC000
F000F00000E000F00000
F000F0C0E0FFE0F00000
F000FFE0E0FFE0F00000
C000000000C000000000
ENDCHAR
STARTCHAR  53A5
ENCODING  21413
SWIDTH  1000 0
DWIDTH  10 0
BBX  9 9 1 -1
BITMAP
F0F0F0F0F0F0F0F0E0
F080C010A000000000
F0C0FFF0F0E0F0F0F0
F04000E040E000F0F0
F0E000E0E0E000F0F0
F0E000E0E08000F080
F0E0F0FFE00080FF20
F00060C00020E06080
F000E08000A06020C0
ENDCHAR
STARTCHAR  53A6
ENCODING  21414
SWIDTH  1000 0
DWIDTH  10 0
BBX  9 9 1 -1
BITMAP
F0E0E0E0E0E0E0E0E0
F080E0E0E0E0E0E0C0
F000C0C0C0FFC0C000
F000FFC0C0C0C0FF00
F000FFC0C0C0C0FF00
F000E0C0C0C0C0F000
F000F0E0E0E0E0E000
F000E0C08060A0E000
E080C0A0806080C0C0
ENDCHAR
STARTCHAR  53A8
ENCODING  21416
SWIDTH  1000 0
DWIDTH  10 0
BBX  9 9 1 -1
BITMAP
F0F0F0F0F0F0F0F060
F00000000000008000
F0C0F0F0F0C0F0FF60
F0E0E0E0E00010F000
F0E03030F020E0F000
F080A0A0A020E0F000
F0C04020E020E0F000
F0201010201040F000
F0C0E0E0E010E0E000
ENDCHAR
STARTCHAR  53A9
ENCODING  21417
SWIDTH  1000 0
DWIDTH  10 0
BBX  9 9 1 -1
BITMAP
F0F0F0F0F0F0F0F0F0
F00000000000000000
F0F0E0E0E0A0E0E0E0
F0F08020E0F000F000
F0F04010E0F030F030
F0F0E080E0E0FFF0F0
F0F000403040C0A000
F0F01080C08060E000
E0C0E0E0C0C020E0E0
ENDCHAR
STARTCHAR  53AE
ENCODING  21422
SWIDTH  1000 0
DWIDTH  10 0
BBX  9 9 1 -1
BITMAP
F0F0F0F0F0F0F0F080
F0604000A000000000
F0C0F0F0FFF0E0E060
F080F060F0F0000000
F0806000F0F0A0FF80
F080F060F0F000F000
F0F0F0A0FFFF00F000
F0408060A0F000F000
F0A04010C0E000E000
ENDCHAR
STARTCHAR  53B6
ENCODING  21430
SWIDTH  1000 0
DWIDTH  10 0
BBX  10 9 0 -1
BITMAP
000000C0100000000000
000060A0000000000000
0000C040000000000000
0020E000000060400000
00808000000060C00000
00E02000000000F01000
60C00000000000A08000
C040000000000030E000
F0F0F0F0F0F0F0F0F020
ENDCHAR
STARTCHAR  53BB
ENCODING  21435
SWIDTH  1000 0
DWIDTH  10 0
BBX  10 9 0 -1
BITMAP
00000000FF0000000000
C0F0F0F0FFF0F0F0F000
00000000FF0000000000
00000000E00000000000
F0F0F0F0F0F0F0F0F040
0010A000000020100000
00808000000060C00000
10E02000000000E04000
60F0F0F0F0F0F0F0C000
ENDCHAR
STARTCHAR  53BF
ENCODING  21439
SWIDTH  1000 0
DWIDTH  10 0
BBX  10 9 0 -1
BITMAP
00E0F0F0F0F0F0FF0000
00F00000000000F00000
00F080E0E0E0E0F00000
00F00000000000F00000
00F080E0E0E0E0F00000
C0FFF0F0F0F0F0F0F040
00A08000000000200000
10E01000000000E06000
40E0E0E0E0E0E0E0E000
ENDCHAR
STARTCHAR  53C1
ENCODING  21441
SWIDTH  1000 0
DWIDTH  10 0
BBX  11 10 0 -1
BITMAP
0000006020001030000000
000080C0000000C0600000
0020FFF0E0E0E0F0FF1000
0000000000A00000000000
10F0F0F0F0FFF0F0F0E000
003080C0C080C0C0602000
20C0A0F0E0E0E0F080C010
0000E0E0E0E0E0E0E00000
0000000000000000000000
00E0E0E0E0E0E0E0E0E000
ENDCHAR
STARTCHAR  53C2
ENCODING  21442
SWIDTH  1000 0
DWIDTH  10 0
BBX  10 10 0 -1
BITMAP
00001010000000000000
0040E020000060C00000
20E0F0F0F0F0F0F06000
E0F0F0F0FFF0F0F0F030
10C0C0100030C0E03000
E080C0E0E0C0A040E030
3010606080A0C0E02010
20E0C0A0806060606010
406080C0E0E0C0A08010
A0806030100000000000
ENDCHAR
STARTCHAR  53C8
ENCODING  21448
SWIDTH  1000 0
DWIDTH  10 0
BBX  10 10 0 -2
BITMAP
00F0F0F0F0F0F0F0E000
0060000000000000F000
00F0000000000000F000
00F0100000000020F000
0080E060000080E06000
000020A0E0E0A0100000
000030C0C0E0A0100000
30A0E040000080E06000
E060000000000020C030
10000000000000000000
ENDCHAR
STARTCHAR  53C9
ENCODING  21449
SWIDTH  1000 0
DWIDTH  10 0
BBX  10 10 0 -2
BITMAP
00E0E0E0E0E0E0E0E000
0020000020000000F000
00F00000F0000000F000
00F00000F0000000F000
00F00000F0000000F000
00E0C030001060E0A000
000060E0C0F080200000
0030A0E080E0E0600000
C0E06000000040C0E030
40000000000000003020
ENDCHAR
STARTCHAR  53CA
ENCODING  21450
SWIDTH  1000 0
DWIDTH  10 0
BBX  10 10 0 -2
BITMAP
00E0E0E0E0E0E0E0E000
00008020000000A0A000
0000E010000040E01000
0010E0000010E0F0F0C0
0040A01000000000A080
008080E0801000A0A000
00A0401080E0E0A00000
00E0100000A0C0E0A030
10E00000A0A0000060C0
00000000000000000000
ENDCHAR
STARTCHAR  53CB
ENCODING  21451
SWIDTH  1000 0
DWIDTH  10 0
BBX  10 11 0 -2
BITMAP
00000040000000000000
000040F0000000000000
30E0F0FFE0E0E0E0E0E0
0000A080000000000000
0000E0F0E0E0E0E0E0E0
0010E0100000000000E0
0040A080C0400040C0A0
0080800040E0E0E04000
00C04030A0E060E0C030
00F020E06000000060E0
00100000000000000000
ENDCHAR
STARTCHAR  53CC
ENCODING  21452
SWIDTH  1000 0
DWIDTH  10 0
BBX  11 9 0 -1
BITMAP
00F0F0F0F000F0F0F0E000
00600000F000600000F000
00F00000F000E00000F000
00F00000F000E00000F000
00E03030E000E02030E000
0040E0E0400040E0E04000
0000C0C0000000C0C00000
0040E0E0600030E0E04000
10E03030F040E06030E010
ENDCHAR
STARTCHAR  53CD
ENCODING  21453
SWIDTH  1000 0
DWIDTH  10 0
BBX  9 10 1 -2
BITMAP
F0F0F0F0F0F0F0F0E0
F00000000000000000
FFF0F0F0F0F0F0F0E0
F000800000000000F0
F000F00000000010F0
F000A0E0601080E080
F0000030F0FFE02000
F01080E0A040C0E040
F080A02000000040E0
100000000000000000
ENDCHAR
STARTCHAR  53D1
ENCODING  21457
SWIDTH  1000 0
DWIDTH  10 0
BBX  10 11 0 -2
BITMAP
00000010100000000000
00A060A0300000E02000
00E010C0000000402000
40F0F0F0F0F0F0F0F0A0
00008020000000000000
0000E0F0F0F0F0F0FF00
0020E03000000030F000
008080C0C060A0E06000
00E01010C0E0F0803000
30C000E080001060C080
10200010000000000010
ENDCHAR
STARTCHAR  53D4
ENCODING  21460
SWIDTH  1000 0
DWIDTH  10 0
BBX  10 10 0 -1
BITMAP
00002000000000000000
0000F00000E0F0F0F000
0000F0F0A0600000F000
0000F00000E00000F000
C0E0F0E0E0E00000F000
0000A01000E02020F000
40A0E0806040E0C06000
6080E060A000C0E00000
A040E030C020E0E06000
8060E010A0A04020E020
ENDCHAR
STARTCHAR  53D6
ENCODING  21462
SWIDTH  1000 0
DWIDTH  10 0
BBX  10 10 0 -2
BITMAP
80E0E0E0E0E0F0F0F000
00F00000F0600000E000
00FFF060F0F00000E000
00F00000F0F00000E000
00F00000F0E03020F000
00FFE060F060C0A06000
00F00000F000C0E00000
80F0F0A0FF20E0E04000
00000000F0A04030E010
00000000200000000000
ENDCHAR
STARTCHAR  53D7
ENCODING  21463
SWIDTH  1000 0
DWIDTH  10 0
BBX  9 9 0 -1
BITMAP
E0F0F0F0F0F0F0F0F0
004000103000004000
00E03010E00020E000
F0E0E0E0E0E0E0E0FF
F0C0E0E0E0E0E0E0E0
10804000000040F010
0040A0F0C0E0C06000
40A0E0C060A0E0A040
A060100000001060A0
ENDCHAR
STARTCHAR  53D8
ENCODING  21464
SWIDTH  1000 0
DWIDTH  10 0
BBX  11 10 -1 -1
BITMAP
0000000000800000000000
00E0E0E0E0FFE0E0E0E000
00006010E000E000406000
0060C000E000E00010E000
00A04000C000C000006010
0000E0E0E0E0E0E0E0E000
0000A04000000040A0E000
000040A0F0C0E0A0401000
0060A0E0A060A0E0A06000
00A040000000000040A000
ENDCHAR
STARTCHAR  53D9
ENCODING  21465
SWIDTH  1000 0
DWIDTH  10 0
BBX  11 10 0 -1
BITMAP
0000000000000000000000
000060E04000E0F0F0E000
0080E030E040600000E000
20C0100020C0F00000E000
00F0F0F0F020F00000E000
000000E00000E03030E000
00E0E0FFE0E040E0E06000
008030F0600000C0E00000
00F020F0A04040E0C08000
00A080E06060C04020E020
ENDCHAR
STARTCHAR  53DB
ENCODING  21467
SWIDTH  1000 0
DWIDTH  10 0
BBX  10 10 0 -2
BITMAP
C030F080E0F0F0F0F000
C060F0A0F00000000000
8080F080F0F0F0F0E000
C0F0FFE0F0004000F000
0000F000F000F000F000
E0F0FFF0F000E060E000
0020E000F00040FF3000
0060A000F00080F06000
00A06000E040E040E010
00000000000000000000
ENDCHAR
STARTCHAR  53DF
ENCODING  21471
SWIDTH  1000 0
DWIDTH  10 0
BBX  9 11 0 -2
BITMAP
000000000000000000
00F0F0E0F0E0F0F010
00F00000F00000E020
00F0E0E0F0E030E020
00FFF0F0FFF080F020
00000000F000000000
00F0F0F0F0F0F0FF20
00A06020001060F020
0040E0FFE0F0A04000
A0E0A0603080C0E020
200000000000001010
ENDCHAR
STARTCHAR  53E0
ENCODING  21472
SWIDTH  1000 0
DWIDTH  10 0
BBX  10 9 0 -1
BITMAP
00E0C0C0C0E0F0FF1000
40E0E0A0A0C0E0C08000
C0C0C0E010C0C0E0E000
F0C0C0E010F0A0E0C010
E0C0C0C0C0E0C0C0C000
A0A0C0C0C0C0C0C0A000
00E060C0C0C0C0F00000
00E060C0C0C0C0F00000
E0E0E0E0E0E0E0E0E010
ENDCHAR
STARTCHAR  53E3
ENCODING  21475
SWIDTH  1000 0
DWIDTH  10 0
BBX  8 7 1 0
BITMAP
FFF0F0F0F0F0F0FF
F0000000000000F0
F0000000000000F0
F0000000000000F0
F0000000000000F0
F0000000000000F0
FFF0F0F0F0F0C0FF
ENDCHAR
STARTCHAR  53E4
ENCODING  21476
SWIDTH  1000 0
DWIDTH  10 0
BBX  10 10 0 -1
BITMAP
00000000100000000000
00000000F00000000000
F0F0F0F0FFF0F0F0F030
00000000F00000000000
00000000F00000000000
00F0F0F0F0F0F0F0E000
00F0000000000000F000
00F0000000000000F000
00F0000000000000F000
00F0F0F0F0F0F0C0E000
ENDCHAR
STARTCHAR  53E5
ENCODING  21477
SWIDTH  1000 0
DWIDTH  10 0
BBX  9 9 1 -1
BITMAP
E00000000000000000
F0F0F0F0F0F0F0F0F0
0000000000000000F0
FFF0F0F0F0FF0000F0
F000000000F00000F0
F000000000F00000F0
F0F0F0F0F0E00000F0
0000000000000000F0
00000000E0F0F0F0E0
ENDCHAR
STARTCHAR  53E6
ENCODING  21478
SWIDTH  1000 0
DWIDTH  10 0
BBX  9 10 0 -2
BITMAP
00E0F0F0F0F0F0F0E0
00F0000000000000F0
00F0000000000000F0
00E0E0E0E0E0E0C0E0
000030800000000000
80E0FFF0E0E0E0E0FF
0000E01000000000F0
0060A00000000000F0
00A0400030E0E0E0E0
001000000000000000
ENDCHAR
STARTCHAR  53E8
ENCODING  21480
SWIDTH  1000 0
DWIDTH  10 0
BBX  9 9 1 -1
BITMAP
E0E0E030F0F0F0F0E0
F010E00000800000F0
F000E00020E00000F0
F000E00040A00000F0
F000E00060800000F0
F000E00080600000F0
F000E000C0300000F0
F010E000E0100000F0
E0A0E000E000C0F0E0
ENDCHAR
STARTCHAR  53E9
ENCODING  21481
SWIDTH  1000 0
DWIDTH  10 0
BBX  9 10 1 -2
BITMAP
E0E0E00000F0E0E0E0
F010F00000F00000F0
F000F00000F00000F0
F000F00000F00000F0
F000F00000F00000F0
F000F00000F00000F0
F000F00000F00000F0
F000F00000F00000F0
E0E0F00000F000F0E0
000000000020000000
ENDCHAR
STARTCHAR  53EA
ENCODING  21482
SWIDTH  1000 0
DWIDTH  10 0
BBX  10 10 0 -2
BITMAP
00E0F0F0F0F0F0F0E000
00F0000000000000F000
00F0000000000000F000
00F0000000000000F000
00F0F0F0F0F0F0A0F000
00206000000000802000
00A06000000000A0A000
10E0100000000020F020
80800000000000008080
10000000000000000010
ENDCHAR
STARTCHAR  53EB
ENCODING  21483
SWIDTH  1000 0
DWIDTH  10 0
BBX  9 11 1 -2
BITMAP
000000000000000010
F0F0F000C0000000F0
F000F000E0000000F0
F000F000E0000000F0
F000F000E0000000F0
F000F000E0000000F0
F000F000E0000000F0
F000F000E0000000F0
F000F000E0F0E000F0
F0F0E00000000000F0
000000000000000010
ENDCHAR
STARTCHAR  53EC
ENCODING  21484
SWIDTH  1000 0
DWIDTH  10 0
BBX  10 9 0 -1
BITMAP
00E0E0E0E0E0E0E0E0E0
0000A0400000000000E0
0030E0000000000000E0
00A060000000000000E0
10A000000020E0E0E0E0
00E0E0E0E0E0E0E0E0E0
00F000000000000000E0
00F000000000000000E0
00E0F0F0F0F0F0F0A0E0
ENDCHAR
STARTCHAR  53ED
ENCODING  21485
SWIDTH  1000 0
DWIDTH  10 0
BBX  10 11 1 -2
BITMAP
00000000002010100000
E0E0E00040A060800000
E000F000608040C00000
E000F000A06010E00000
E000F000C03000E01000
E000F000F00000C04000
E000F020E00000806000
E000F040A0000060A000
E000F08080000030C000
F0C0E0A040000010F000
00000020000000002000
ENDCHAR
STARTCHAR  53EE
ENCODING  21486
SWIDTH  1000 0
DWIDTH  10 0
BBX  9 9 1 -1
BITMAP
E0E0E060F0F0F0F0F0
F010F0000000A00000
F000F0000000FF0000
F000F0000000FF0000
F000F0000000FF0000
F000F0000000FF0000
F000F0000000FF0000
F020F0000000FF0000
E0C0C00080F0F00000
ENDCHAR
STARTCHAR  53EF
ENCODING  21487
SWIDTH  1000 0
DWIDTH  10 0
BBX  10 9 0 -1
BITMAP
F0F0F0F0F0F0F0F0F030
00000000000000E00000
E0F0F0F0F0E000E00000
E000000000F000E00000
E000000000F000E00000
E000000000F000E00000
E0E0E0E0A0F000E00000
00000000000000E00000
00000000E0F0F0F00000
ENDCHAR
STARTCHAR  53F0
ENCODING  21488
SWIDTH  1000 0
DWIDTH  10 0
BBX  8 10 1 -1
BITMAP
0000000000000000
00A0800000A02000
20E000000030C000
A040000000006080
F0F0F0F0F0F0F0E0
0000000000000000
F0F0F0F0F0F0F0F0
F0000000000000F0
F0000000000000F0
E0F0F0F0F0F080E0
ENDCHAR
STARTCHAR  53F1
ENCODING  21489
SWIDTH  1000 0
DWIDTH  10 0
BBX  10 10 1 -1
BITMAP
00000000004000000000
F0F0F00000F000000000
E000F00000F000000000
E000F00000F000004010
E000F00000F080E0C010
E000F020A0FF80200000
E000F02040F000000000
E000F00000F000000000
E020F00000F000000000
E0C0C00000F0F0F0F020
ENDCHAR
STARTCHAR  53F2
ENCODING  21490
SWIDTH  1000 0
DWIDTH  10 0
BBX  10 11 0 -2
BITMAP
00000000006000000000
0000000000E000000000
00FFE0E0E0FFE0E0FF00
00F0000000E00000F000
00F0000000E00000F000
00FFF0F0F0FFF0F0F000
10000020E04000000000
60F0C0E0800000000000
0030F0A0E0F0A0602000
10E06000001060A0E060
10300000000000000000
ENDCHAR
STARTCHAR  53F3
ENCODING  21491
SWIDTH  1000 0
DWIDTH  10 0
BBX  11 10 -1 -1
BITMAP
0000006000000000000000
000020E000000000000000
00F0F0F0F0F0F0F0F0F040
0000A03000000000000000
0000E00000000000000000
0040A0E0F0F0F0F0F0F000
008040E00000000000F000
00C010E00000000000F000
006000E00000000000F000
000000E0F0F0F0F0A0E000
ENDCHAR
STARTCHAR  53F5
ENCODING  21493
SWIDTH  1000 0
DWIDTH  10 0
BBX  9 9 1 -1
BITMAP
F0F0F0F0F0F0F0F0E0
E00000000000000000
E000E0E0E0E0E0E000
E000F000000000E000
E000F000000000E000
E000F000000000E000
E000E0E0E0E0A0E000
E00000000000000000
E0E0E0E0E0E0E0E0E0
ENDCHAR
STARTCHAR  53F6
ENCODING  21494
SWIDTH  1000 0
DWIDTH  10 0
BBX  10 11 1 -2
BITMAP
00000000000030000000
E0E0E0000000F0000000
E000F0000000F0000000
E000F0000000F0000000
E000F040F0F0FFF0F010
E000F0000000F0000000
E000F0000000F0000000
E000F0000000F0000000
E000F0000000F0000000
F0F0E0000000F0000000
00000000000020000000
ENDCHAR
STARTCHAR  53F7
ENCODING  21495
SWIDTH  1000 0
DWIDTH  10 0
BBX  10 9 0 -1
BITMAP
00F0F0F0F0F0F0F00000
00F00000000000F00000
00FFF0F0F0F0E0F00000
00000000000000000000
F0F0F0F0F0F0F0F0F030
00A00000000000000000
00E0E0E0E0E0E0FF0000
00000000000000F00000
00000080E0E0E0E00000
ENDCHAR
STARTCHAR  53F8
ENCODING  21496
SWIDTH  1000 0
DWIDTH  10 0
BBX  9 9 0 -1
BITMAP
F0F0F0F0F0F0F0F0E0
0000000000000000F0
F0F0F0F0F0F0F000F0
0000000000000000F0
E0F0F0F0F0FF0000F0
E010000000F00000F0
E0F0F0F0E0FF0000F0
0000000000000000F0
00000000C0F0F0F0E0
ENDCHAR
STARTCHAR  53F9
ENCODING  21497
SWIDTH  1000 0
DWIDTH  10 0
BBX  10 9 1 -1
BITMAP
E0E0C000F0F0F0F0E000
E010F00060000000F000
E000F000F0000000F000
E000F000F0000000F000
E000F000F0100020F000
E000F00080C020E06000
E000F0000080FF800000
E000F00020E0C0C01000
F0C0E040F0600080E010
ENDCHAR
STARTCHAR  53FB
ENCODING  21499
SWIDTH  1000 0
DWIDTH  10 0
BBX  9 11 1 -2
BITMAP
000000000030000000
F0F0F00000F0100000
F000E010F0FFF0F0F0
F000E00020E00000F0
F000E00040C00000F0
F000E00060A00000F0
F000E00060800000F0
F000E00080600000F0
F010E000A0600000F0
E0E0E000C04060F0E0
000000001000000000
ENDCHAR
STARTCHAR  53FC
ENCODING  21500
SWIDTH  1000 0
DWIDTH  10 0
BBX  9 9 1 -1
BITMAP
E0E0E030F0F0F0F0E0
F010F00000000000E0
F000F0000040C000E0
F000F00000C06000E0
F000F00030E00000E0
F000F000A0800000E0
F000F010F0100000E0
F010F06080000000E0
E0A0C00000A0F0F0E0
ENDCHAR
STARTCHAR  53FD
ENCODING  21501
SWIDTH  1000 0
DWIDTH  10 0
BBX  9 10 1 -2
BITMAP
E0E0C000F0F0F0F000
E010E000F00000F000
E000E000F00000F000
E000E000F00000F000
E000E000F00000F000
E000E000F00000F000
E000E000F00000F000
E010E000F00000F000
E0A0C000F00000F0E0
000000001000000000
ENDCHAR
STARTCHAR  5401
ENCODING  21505
SWIDTH  1000 0
DWIDTH  10 0
BBX  9 9 1 -1
BITMAP
E0E0C060F0F0F0F0E0
E010F0000000800000
E000F0000000F00000
E000F0000000F00000
E000F080F0F0FFF0F0
E000F0000000F00000
E000F0000000F00000
E000F0000000F00000
F0C0E00080F0E00000
ENDCHAR
STARTCHAR  5403
ENCODING  21507
SWIDTH  1000 0
DWIDTH  10 0
BBX  10 9 1 -1
BITMAP
F0F0E000C00000000000
F000F000F0F0F0F0F000
F000F000000000000000
F000F000F0F0F0F0FF00
F000F000000000C08000
F000F0000000C0800000
F000F00000A0A0000000
F010F000A0A000000000
E0C0E030F0F0F0F0F010
ENDCHAR
STARTCHAR  5404
ENCODING  21508
SWIDTH  1000 0
DWIDTH  10 0
BBX  10 10 0 -1
BITMAP
10600000000000000000
20FFF0F0F0F0F0F02000
10601000000000E03000
10A0E0A060A0E0A01000
0040A0F0C0F0A0400000
E0C06010001060C0E010
10E0E0E0E0E0E0E01000
00F00000000000E00000
00F00000000000E00000
00E0E0E0E0E0C0E00000
ENDCHAR
STARTCHAR  5406
ENCODING  21510
SWIDTH  1000 0
DWIDTH  10 0
BBX  10 10 1 -1
BITMAP
00000000002010000000
F0F0E00000E020000000
E000F00060A000000000
E000F000C04000E03000
E000F030E00080A00000
E000F080F0F0F0200000
E000F00000A080200000
E000F00030E010A04000
E000F000C0600060A000
E0C0E040F0F0F0F0E000
ENDCHAR
STARTCHAR  5408
ENCODING  21512
SWIDTH  1000 0
DWIDTH  10 0
BBX  10 10 0 -1
BITMAP
00000000401000000000
000040E0C0E060000000
30C0C0300020A0E04000
E040000000000030C020
10F0F0F0F0F0F0F03000
00000000000000000000
00F0F0F0F0F0F0F00000
00F00000000000E00000
00F00000000000E00000
00E0E0E0E0E0E0E00000
ENDCHAR
STARTCHAR  5409
ENCODING  21513
SWIDTH  1000 0
DWIDTH  10 0
BBX  10 9 0 -1
BITMAP
00000000E00000000000
F0F0F0F0FFF0F0F0F040
00000000F00000000000
40F0F0F0FFF0F0F0F000
00000000000000000000
00F0F0F0F0F0F0F0E000
00F0000000000000F000
00F0000000000000F000
00F0F0F0F0F0F0C0E000
ENDCHAR
STARTCHAR  540A
ENCODING  21514
SWIDTH  1000 0
DWIDTH  10 0
BBX  9 9 1 -1
BITMAP
E0E0E0E0E0E0E0F000
F0000000000000F000
F0000000000000F000
E0E0E0E0E0E0C0E000
00000000E000000000
F0F0F0F0FFF0F0F0E0
F0000000F0000000F0
F0000000F0000000F0
E0000000F00040F0E0
ENDCHAR
STARTCHAR  540C
ENCODING  21516
SWIDTH  1000 0
DWIDTH  10 0
BBX  9 10 1 -2
BITMAP
F0F0F0F0F0F0F0F0F0
F000000000000000F0
F000F0F0F0F08000F0
F000000000000000F0
F000F0E0E0E0F000F0
F000F0000000F000F0
F000F0F0F0A0F000F0
F000000000000000F0
F00000000060F0F0F0
000000000000000000
ENDCHAR
STARTCHAR  540D
ENCODING  21517
SWIDTH  1000 0
DWIDTH  10 0
BBX  10 9 0 -1
BITMAP
0060E0E0E0E0E0E0E060
00E0300000000020F010
40C000F0F0F00080A000
00000000000010F03000
80E0E0E0E0E0E0C00000
00E0E0E0E0E0E0E0E000
00F0000000000000F000
00F0000000000000F000
00E0E0E0E0E0E0C0E000
ENDCHAR
ENDFONT
